<?xml version="1.0" encoding="utf-8" standalone="no"?>
<!DOCTYPE svg PUBLIC "-//W3C//DTD SVG 1.1//EN"
  "http://www.w3.org/Graphics/SVG/1.1/DTD/svg11.dtd">
<svg xmlns:xlink="http://www.w3.org/1999/xlink" width="502.573906pt" height="332.615156pt" viewBox="0 0 502.573906 332.615156" xmlns="http://www.w3.org/2000/svg" version="1.1">
 <metadata>
  <rdf:RDF xmlns:dc="http://purl.org/dc/elements/1.1/" xmlns:cc="http://creativecommons.org/ns#" xmlns:rdf="http://www.w3.org/1999/02/22-rdf-syntax-ns#">
   <cc:Work>
    <dc:type rdf:resource="http://purl.org/dc/dcmitype/StillImage"/>
    <dc:date>2026-04-06T08:38:46.979890</dc:date>
    <dc:format>image/svg+xml</dc:format>
    <dc:creator>
     <cc:Agent>
      <dc:title>Matplotlib v3.7.5, https://matplotlib.org/</dc:title>
     </cc:Agent>
    </dc:creator>
   </cc:Work>
  </rdf:RDF>
 </metadata>
 <defs>
  <style type="text/css">*{stroke-linejoin: round; stroke-linecap: butt}</style>
 </defs>
 <g id="figure_1">
  <g id="patch_1">
   <path d="M 0 332.615156 
L 502.573906 332.615156 
L 502.573906 0 
L 0 0 
z
" style="fill: #ffffff"/>
  </g>
  <g id="axes_1">
   <g id="patch_2">
    <path d="M 37.653906 296.823437 
L 261.113906 296.823437 
L 261.113906 20.479687 
L 37.653906 20.479687 
z
" style="fill: #ffffff"/>
   </g>
   <g id="patch_3">
    <path d="M 47.811179 296.823437 
L 68.125724 296.823437 
L 68.125724 33.638914 
L 47.811179 33.638914 
z
" clip-path="url(#peb27ba9dfd)" style="fill: #0ea5e9; opacity: 0.8; stroke: #ffffff; stroke-linejoin: miter"/>
   </g>
   <g id="patch_4">
    <path d="M 68.125724 296.823437 
L 88.44027 296.823437 
L 88.44027 296.823437 
L 68.125724 296.823437 
z
" clip-path="url(#peb27ba9dfd)" style="fill: #0ea5e9; opacity: 0.8; stroke: #ffffff; stroke-linejoin: miter"/>
   </g>
   <g id="patch_5">
    <path d="M 88.44027 296.823437 
L 108.754815 296.823437 
L 108.754815 296.823437 
L 88.44027 296.823437 
z
" clip-path="url(#peb27ba9dfd)" style="fill: #0ea5e9; opacity: 0.8; stroke: #ffffff; stroke-linejoin: miter"/>
   </g>
   <g id="patch_6">
    <path d="M 108.754815 296.823437 
L 129.069361 296.823437 
L 129.069361 296.823437 
L 108.754815 296.823437 
z
" clip-path="url(#peb27ba9dfd)" style="fill: #0ea5e9; opacity: 0.8; stroke: #ffffff; stroke-linejoin: miter"/>
   </g>
   <g id="patch_7">
    <path d="M 129.069361 296.823437 
L 149.383906 296.823437 
L 149.383906 296.823437 
L 129.069361 296.823437 
z
" clip-path="url(#peb27ba9dfd)" style="fill: #0ea5e9; opacity: 0.8; stroke: #ffffff; stroke-linejoin: miter"/>
   </g>
   <g id="patch_8">
    <path d="M 149.383906 296.823437 
L 169.698452 296.823437 
L 169.698452 296.823437 
L 149.383906 296.823437 
z
" clip-path="url(#peb27ba9dfd)" style="fill: #0ea5e9; opacity: 0.8; stroke: #ffffff; stroke-linejoin: miter"/>
   </g>
   <g id="patch_9">
    <path d="M 169.698452 296.823437 
L 190.012997 296.823437 
L 190.012997 288.848149 
L 169.698452 288.848149 
z
" clip-path="url(#peb27ba9dfd)" style="fill: #0ea5e9; opacity: 0.8; stroke: #ffffff; stroke-linejoin: miter"/>
   </g>
   <g id="patch_10">
    <path d="M 190.012997 296.823437 
L 210.327543 296.823437 
L 210.327543 272.897572 
L 190.012997 272.897572 
z
" clip-path="url(#peb27ba9dfd)" style="fill: #0ea5e9; opacity: 0.8; stroke: #ffffff; stroke-linejoin: miter"/>
   </g>
   <g id="patch_11">
    <path d="M 210.327543 296.823437 
L 230.642088 296.823437 
L 230.642088 288.848149 
L 210.327543 288.848149 
z
" clip-path="url(#peb27ba9dfd)" style="fill: #0ea5e9; opacity: 0.8; stroke: #ffffff; stroke-linejoin: miter"/>
   </g>
   <g id="patch_12">
    <path d="M 230.642088 296.823437 
L 250.956634 296.823437 
L 250.956634 280.87286 
L 230.642088 280.87286 
z
" clip-path="url(#peb27ba9dfd)" style="fill: #0ea5e9; opacity: 0.8; stroke: #ffffff; stroke-linejoin: miter"/>
   </g>
   <g id="matplotlib.axis_1">
    <g id="xtick_1">
     <g id="line2d_1">
      <path d="M 47.811179 296.823437 
L 47.811179 20.479687 
" clip-path="url(#peb27ba9dfd)" style="fill: none; stroke: #b0b0b0; stroke-opacity: 0.3; stroke-width: 0.8; stroke-linecap: square"/>
     </g>
     <g id="line2d_2">
      <defs>
       <path id="mfb777d1e49" d="M 0 0 
L 0 3.5 
" style="stroke: #000000; stroke-width: 0.8"/>
      </defs>
      <g>
       <use xlink:href="#mfb777d1e49" x="47.811179" y="296.823437" style="stroke: #000000; stroke-width: 0.8"/>
      </g>
     </g>
     <g id="text_1">
      <!-- 0 -->
      <g transform="translate(45.03071 310.98125) scale(0.1 -0.1)">
       <defs>
        <path id="ArialUnicodeMS-30" d="M 1778 4603 
Q 3272 4603 3272 2259 
Q 3272 1075 2886 498 
Q 2500 -78 1778 -78 
Q 288 -78 288 2259 
Q 288 3444 673 4023 
Q 1059 4603 1778 4603 
z
M 1778 384 
Q 2231 384 2462 823 
Q 2694 1263 2694 2259 
Q 2694 2953 2592 3351 
Q 2491 3750 2286 3945 
Q 2081 4141 1772 4141 
Q 1319 4141 1091 3694 
Q 863 3247 863 2259 
Q 863 1575 966 1175 
Q 1069 775 1272 579 
Q 1475 384 1778 384 
z
" transform="scale(0.015625)"/>
       </defs>
       <use xlink:href="#ArialUnicodeMS-30"/>
      </g>
     </g>
    </g>
    <g id="xtick_2">
     <g id="line2d_3">
      <path d="M 92.503179 296.823437 
L 92.503179 20.479687 
" clip-path="url(#peb27ba9dfd)" style="fill: none; stroke: #b0b0b0; stroke-opacity: 0.3; stroke-width: 0.8; stroke-linecap: square"/>
     </g>
     <g id="line2d_4">
      <g>
       <use xlink:href="#mfb777d1e49" x="92.503179" y="296.823437" style="stroke: #000000; stroke-width: 0.8"/>
      </g>
     </g>
     <g id="text_2">
      <!-- 2 -->
      <g transform="translate(89.72271 310.98125) scale(0.1 -0.1)">
       <defs>
        <path id="ArialUnicodeMS-32" d="M 3231 0 
L 197 0 
Q 197 388 467 784 
Q 738 1181 1478 1778 
Q 1931 2141 2287 2539 
Q 2644 2938 2644 3341 
Q 2644 3688 2398 3914 
Q 2153 4141 1778 4141 
Q 1400 4141 1144 3908 
Q 888 3675 884 3213 
L 306 3278 
Q 359 3922 764 4262 
Q 1169 4603 1791 4603 
Q 2466 4603 2842 4229 
Q 3219 3856 3219 3328 
Q 3219 2888 2901 2436 
Q 2584 1984 1638 1228 
Q 1141 831 978 544 
L 3231 544 
L 3231 0 
z
" transform="scale(0.015625)"/>
       </defs>
       <use xlink:href="#ArialUnicodeMS-32"/>
      </g>
     </g>
    </g>
    <g id="xtick_3">
     <g id="line2d_5">
      <path d="M 137.195179 296.823437 
L 137.195179 20.479687 
" clip-path="url(#peb27ba9dfd)" style="fill: none; stroke: #b0b0b0; stroke-opacity: 0.3; stroke-width: 0.8; stroke-linecap: square"/>
     </g>
     <g id="line2d_6">
      <g>
       <use xlink:href="#mfb777d1e49" x="137.195179" y="296.823437" style="stroke: #000000; stroke-width: 0.8"/>
      </g>
     </g>
     <g id="text_3">
      <!-- 4 -->
      <g transform="translate(134.41471 310.98125) scale(0.1 -0.1)">
       <defs>
        <path id="ArialUnicodeMS-34" d="M 3263 1094 
L 2644 1094 
L 2644 0 
L 2081 0 
L 2081 1094 
L 97 1094 
L 97 1613 
L 2181 4581 
L 2644 4581 
L 2644 1613 
L 3263 1613 
L 3263 1094 
z
M 2081 1613 
L 2081 3681 
L 2069 3681 
L 647 1613 
L 2081 1613 
z
" transform="scale(0.015625)"/>
       </defs>
       <use xlink:href="#ArialUnicodeMS-34"/>
      </g>
     </g>
    </g>
    <g id="xtick_4">
     <g id="line2d_7">
      <path d="M 181.887179 296.823437 
L 181.887179 20.479687 
" clip-path="url(#peb27ba9dfd)" style="fill: none; stroke: #b0b0b0; stroke-opacity: 0.3; stroke-width: 0.8; stroke-linecap: square"/>
     </g>
     <g id="line2d_8">
      <g>
       <use xlink:href="#mfb777d1e49" x="181.887179" y="296.823437" style="stroke: #000000; stroke-width: 0.8"/>
      </g>
     </g>
     <g id="text_4">
      <!-- 6 -->
      <g transform="translate(179.10671 310.98125) scale(0.1 -0.1)">
       <defs>
        <path id="ArialUnicodeMS-36" d="M 838 2363 
Q 1225 2969 1941 2969 
Q 2503 2969 2897 2553 
Q 3291 2138 3291 1491 
Q 3291 838 2898 380 
Q 2506 -78 1856 -78 
Q 1197 -78 733 409 
Q 269 897 269 2144 
Q 269 3369 689 3986 
Q 1109 4603 1906 4603 
Q 2422 4603 2778 4315 
Q 3134 4028 3213 3463 
L 2650 3413 
Q 2497 4141 1875 4141 
Q 1444 4141 1134 3712 
Q 825 3284 825 2363 
L 838 2363 
z
M 1844 384 
Q 2231 384 2472 696 
Q 2713 1009 2713 1453 
Q 2713 1897 2472 2187 
Q 2231 2478 1825 2478 
Q 1453 2478 1184 2204 
Q 916 1931 916 1484 
Q 916 1028 1180 706 
Q 1444 384 1844 384 
z
" transform="scale(0.015625)"/>
       </defs>
       <use xlink:href="#ArialUnicodeMS-36"/>
      </g>
     </g>
    </g>
    <g id="xtick_5">
     <g id="line2d_9">
      <path d="M 226.579179 296.823437 
L 226.579179 20.479687 
" clip-path="url(#peb27ba9dfd)" style="fill: none; stroke: #b0b0b0; stroke-opacity: 0.3; stroke-width: 0.8; stroke-linecap: square"/>
     </g>
     <g id="line2d_10">
      <g>
       <use xlink:href="#mfb777d1e49" x="226.579179" y="296.823437" style="stroke: #000000; stroke-width: 0.8"/>
      </g>
     </g>
     <g id="text_5">
      <!-- 8 -->
      <g transform="translate(223.79871 310.98125) scale(0.1 -0.1)">
       <defs>
        <path id="ArialUnicodeMS-38" d="M 2425 2478 
Q 3284 2203 3284 1306 
Q 3284 716 2862 319 
Q 2441 -78 1778 -78 
Q 1109 -78 689 322 
Q 269 722 269 1325 
Q 269 1759 505 2084 
Q 741 2409 1141 2478 
L 1141 2491 
Q 453 2703 453 3419 
Q 453 3925 815 4264 
Q 1178 4603 1766 4603 
Q 2363 4603 2730 4253 
Q 3097 3903 3097 3406 
Q 3097 2731 2425 2491 
L 2425 2478 
z
M 1778 2700 
Q 2094 2700 2308 2901 
Q 2522 3103 2522 3406 
Q 2522 3716 2305 3928 
Q 2088 4141 1772 4141 
Q 1450 4141 1240 3931 
Q 1031 3722 1031 3438 
Q 1031 3097 1247 2898 
Q 1463 2700 1778 2700 
z
M 1778 384 
Q 2175 384 2440 640 
Q 2706 897 2706 1306 
Q 2706 1716 2432 1978 
Q 2159 2241 1766 2241 
Q 1356 2241 1100 1970 
Q 844 1700 844 1319 
Q 844 922 1108 653 
Q 1372 384 1778 384 
z
" transform="scale(0.015625)"/>
       </defs>
       <use xlink:href="#ArialUnicodeMS-38"/>
      </g>
     </g>
    </g>
    <g id="text_6">
     <!-- Word Error Rate (%) -->
     <g transform="translate(108.380469 323.525156) scale(0.09 -0.09)">
      <defs>
       <path id="ArialUnicodeMS-57" d="M 5972 4581 
L 4709 0 
L 4128 0 
L 3128 3609 
Q 3050 3888 3028 4031 
L 3016 4031 
L 2888 3488 
L 1913 0 
L 1300 0 
L 78 4581 
L 697 4581 
L 1403 1575 
Q 1544 984 1581 706 
Q 1588 650 1588 641 
L 1600 641 
Q 1725 1234 1797 1491 
L 2669 4581 
L 3406 4581 
L 4056 2266 
Q 4300 1403 4409 641 
L 4422 641 
Q 4488 1013 4641 1638 
L 5363 4581 
L 5972 4581 
z
" transform="scale(0.015625)"/>
       <path id="ArialUnicodeMS-6f" d="M 1778 3391 
Q 2450 3391 2892 2953 
Q 3334 2516 3334 1709 
Q 3334 731 2856 326 
Q 2378 -78 1778 -78 
Q 1150 -78 687 337 
Q 225 753 225 1656 
Q 225 2531 672 2961 
Q 1119 3391 1778 3391 
z
M 1778 384 
Q 2259 384 2509 740 
Q 2759 1097 2759 1678 
Q 2759 2300 2476 2615 
Q 2194 2931 1778 2931 
Q 1350 2931 1075 2611 
Q 800 2291 800 1656 
Q 800 1025 1079 704 
Q 1359 384 1778 384 
z
" transform="scale(0.015625)"/>
       <path id="ArialUnicodeMS-72" d="M 2216 3213 
L 2022 2694 
Q 1813 2816 1613 2816 
Q 1297 2816 1134 2533 
Q 972 2250 972 1741 
L 972 0 
L 409 0 
L 409 3316 
L 922 3316 
L 922 2816 
L 934 2816 
Q 1203 3391 1638 3391 
Q 1925 3391 2216 3213 
z
" transform="scale(0.015625)"/>
       <path id="ArialUnicodeMS-64" d="M 3109 0 
L 2584 0 
L 2584 422 
L 2572 422 
Q 2269 -78 1656 -78 
Q 1047 -78 639 405 
Q 231 888 231 1656 
Q 231 2459 615 2925 
Q 1000 3391 1631 3391 
Q 2225 3391 2534 2938 
L 2547 2938 
L 2547 4581 
L 3109 4581 
L 3109 0 
z
M 1716 384 
Q 2084 384 2340 687 
Q 2597 991 2597 1606 
Q 2597 2213 2362 2572 
Q 2128 2931 1691 2931 
Q 1253 2931 1029 2579 
Q 806 2228 806 1656 
Q 806 1244 926 958 
Q 1047 672 1262 528 
Q 1478 384 1716 384 
z
" transform="scale(0.015625)"/>
       <path id="ArialUnicodeMS-20" transform="scale(0.015625)"/>
       <path id="ArialUnicodeMS-45" d="M 3928 0 
L 506 0 
L 506 4581 
L 3822 4581 
L 3822 4038 
L 1113 4038 
L 1113 2638 
L 3647 2638 
L 3647 2094 
L 1113 2094 
L 1113 544 
L 3928 544 
L 3928 0 
z
" transform="scale(0.015625)"/>
       <path id="ArialUnicodeMS-52" d="M 4550 0 
L 3788 0 
Q 3103 1081 2937 1328 
Q 2772 1575 2589 1751 
Q 2406 1928 2245 1975 
Q 2084 2022 1819 2022 
L 1119 2022 
L 1119 0 
L 513 0 
L 513 4581 
L 2541 4581 
Q 2956 4581 3237 4528 
Q 3519 4475 3731 4304 
Q 3944 4134 4058 3875 
Q 4172 3616 4172 3328 
Q 4172 2809 3844 2493 
Q 3516 2178 2888 2094 
L 2888 2081 
Q 3347 1878 3750 1247 
L 4550 0 
z
M 1119 2566 
L 2419 2566 
Q 2813 2566 3042 2633 
Q 3272 2700 3409 2894 
Q 3547 3088 3547 3328 
Q 3547 3641 3319 3859 
Q 3091 4078 2566 4078 
L 1119 4078 
L 1119 2566 
z
" transform="scale(0.015625)"/>
       <path id="ArialUnicodeMS-61" d="M 3303 0 
L 2713 0 
Q 2631 156 2597 409 
Q 2031 -78 1375 -78 
Q 850 -78 547 184 
Q 244 447 244 878 
Q 244 1291 536 1558 
Q 828 1825 1550 1913 
L 2075 1991 
Q 2369 2038 2559 2106 
Q 2559 2359 2543 2464 
Q 2528 2569 2451 2681 
Q 2375 2794 2206 2862 
Q 2038 2931 1753 2931 
Q 1391 2931 1180 2797 
Q 969 2663 891 2297 
L 341 2369 
Q 431 2878 806 3134 
Q 1181 3391 1838 3391 
Q 2434 3391 2714 3214 
Q 2994 3038 3058 2788 
Q 3122 2538 3122 2144 
L 3122 1388 
Q 3122 697 3148 461 
Q 3175 225 3303 0 
z
M 2559 1459 
L 2559 1663 
Q 2119 1516 1481 1430 
Q 844 1344 844 891 
Q 844 663 1016 514 
Q 1188 366 1509 366 
Q 1925 366 2242 614 
Q 2559 863 2559 1459 
z
" transform="scale(0.015625)"/>
       <path id="ArialUnicodeMS-74" d="M 1722 6 
Q 1472 -44 1300 -44 
Q 931 -44 762 86 
Q 594 216 556 416 
Q 519 616 519 972 
L 519 2881 
L 109 2881 
L 109 3316 
L 519 3316 
L 519 4141 
L 1081 4481 
L 1081 3316 
L 1644 3316 
L 1644 2881 
L 1081 2881 
L 1081 941 
Q 1081 691 1132 586 
Q 1184 481 1394 481 
Q 1516 481 1644 506 
L 1722 6 
z
" transform="scale(0.015625)"/>
       <path id="ArialUnicodeMS-65" d="M 3309 1516 
L 825 1516 
Q 859 966 1139 675 
Q 1419 384 1838 384 
Q 2159 384 2378 554 
Q 2597 725 2713 1069 
L 3291 997 
Q 3150 478 2775 200 
Q 2400 -78 1838 -78 
Q 1091 -78 670 380 
Q 250 838 250 1631 
Q 250 2416 658 2903 
Q 1066 3391 1806 3391 
Q 2169 3391 2505 3231 
Q 2841 3072 3075 2689 
Q 3309 2306 3309 1516 
z
M 2731 1978 
Q 2697 2484 2417 2707 
Q 2138 2931 1806 2931 
Q 1409 2931 1153 2665 
Q 897 2400 856 1978 
L 2731 1978 
z
" transform="scale(0.015625)"/>
       <path id="ArialUnicodeMS-28" d="M 1900 -1344 
L 1497 -1344 
Q 978 -681 681 103 
Q 384 888 384 1656 
Q 384 2528 700 3275 
Q 1016 4022 1497 4659 
L 1900 4659 
Q 1344 3747 1155 3059 
Q 966 2372 966 1663 
Q 966 153 1900 -1344 
z
" transform="scale(0.015625)"/>
       <path id="ArialUnicodeMS-25" d="M 4325 4659 
L 1838 -159 
L 1369 -159 
L 3872 4659 
L 4325 4659 
z
M 1428 4653 
Q 1856 4653 2137 4343 
Q 2419 4034 2419 3438 
Q 2419 2850 2131 2539 
Q 1844 2228 1434 2228 
Q 1009 2228 739 2540 
Q 469 2853 469 3475 
Q 469 3984 722 4318 
Q 975 4653 1428 4653 
z
M 1441 2619 
Q 1931 2619 1931 3463 
Q 1931 4269 1441 4269 
Q 953 4269 953 3419 
Q 953 2619 1441 2619 
z
M 4250 2253 
Q 4681 2253 4961 1943 
Q 5241 1634 5241 1038 
Q 5241 600 5087 328 
Q 4934 56 4709 -58 
Q 4484 -172 4256 -172 
Q 3831 -172 3561 140 
Q 3291 453 3291 1075 
Q 3291 1584 3544 1918 
Q 3797 2253 4250 2253 
z
M 4263 219 
Q 4756 219 4756 1063 
Q 4756 1869 4263 1869 
Q 3775 1869 3775 1019 
Q 3775 219 4263 219 
z
" transform="scale(0.015625)"/>
       <path id="ArialUnicodeMS-29" d="M 634 4659 
Q 1153 3997 1450 3212 
Q 1747 2428 1747 1656 
Q 1747 788 1431 41 
Q 1116 -706 634 -1344 
L 231 -1344 
Q 788 -431 977 255 
Q 1166 941 1166 1650 
Q 1166 3163 231 4659 
L 634 4659 
z
" transform="scale(0.015625)"/>
      </defs>
      <use xlink:href="#ArialUnicodeMS-57"/>
      <use xlink:href="#ArialUnicodeMS-6f" x="94.384766"/>
      <use xlink:href="#ArialUnicodeMS-72" x="150"/>
      <use xlink:href="#ArialUnicodeMS-64" x="183.300781"/>
      <use xlink:href="#ArialUnicodeMS-20" x="238.916016"/>
      <use xlink:href="#ArialUnicodeMS-45" x="266.699219"/>
      <use xlink:href="#ArialUnicodeMS-72" x="333.398438"/>
      <use xlink:href="#ArialUnicodeMS-72" x="366.699219"/>
      <use xlink:href="#ArialUnicodeMS-6f" x="400"/>
      <use xlink:href="#ArialUnicodeMS-72" x="455.615234"/>
      <use xlink:href="#ArialUnicodeMS-20" x="488.916016"/>
      <use xlink:href="#ArialUnicodeMS-52" x="516.699219"/>
      <use xlink:href="#ArialUnicodeMS-61" x="588.916016"/>
      <use xlink:href="#ArialUnicodeMS-74" x="644.53125"/>
      <use xlink:href="#ArialUnicodeMS-65" x="672.314453"/>
      <use xlink:href="#ArialUnicodeMS-20" x="727.929688"/>
      <use xlink:href="#ArialUnicodeMS-28" x="755.712891"/>
      <use xlink:href="#ArialUnicodeMS-25" x="789.013672"/>
      <use xlink:href="#ArialUnicodeMS-29" x="877.929688"/>
     </g>
    </g>
   </g>
   <g id="matplotlib.axis_2">
    <g id="ytick_1">
     <g id="line2d_11">
      <path d="M 37.653906 296.823437 
L 261.113906 296.823437 
" clip-path="url(#peb27ba9dfd)" style="fill: none; stroke: #b0b0b0; stroke-opacity: 0.3; stroke-width: 0.8; stroke-linecap: square"/>
     </g>
     <g id="line2d_12">
      <defs>
       <path id="ma6117102d9" d="M 0 0 
L -3.5 0 
" style="stroke: #000000; stroke-width: 0.8"/>
      </defs>
      <g>
       <use xlink:href="#ma6117102d9" x="37.653906" y="296.823437" style="stroke: #000000; stroke-width: 0.8"/>
      </g>
     </g>
     <g id="text_7">
      <!-- 0 -->
      <g transform="translate(25.092969 300.402344) scale(0.1 -0.1)">
       <use xlink:href="#ArialUnicodeMS-30"/>
      </g>
     </g>
    </g>
    <g id="ytick_2">
     <g id="line2d_13">
      <path d="M 37.653906 256.946994 
L 261.113906 256.946994 
" clip-path="url(#peb27ba9dfd)" style="fill: none; stroke: #b0b0b0; stroke-opacity: 0.3; stroke-width: 0.8; stroke-linecap: square"/>
     </g>
     <g id="line2d_14">
      <g>
       <use xlink:href="#ma6117102d9" x="37.653906" y="256.946994" style="stroke: #000000; stroke-width: 0.8"/>
      </g>
     </g>
     <g id="text_8">
      <!-- 5 -->
      <g transform="translate(25.092969 260.525901) scale(0.1 -0.1)">
       <defs>
        <path id="ArialUnicodeMS-35" d="M 1013 2753 
Q 1431 3041 1881 3041 
Q 2453 3041 2878 2636 
Q 3303 2231 3303 1556 
Q 3303 875 2872 398 
Q 2441 -78 1741 -78 
Q 1169 -78 750 245 
Q 331 569 269 1203 
L 856 1247 
Q 928 813 1162 598 
Q 1397 384 1741 384 
Q 2169 384 2434 707 
Q 2700 1031 2700 1503 
Q 2700 1984 2428 2262 
Q 2156 2541 1728 2541 
Q 1188 2541 897 2100 
L 366 2163 
L 813 4519 
L 3084 4519 
L 3084 3975 
L 1259 3975 
L 1013 2753 
z
" transform="scale(0.015625)"/>
       </defs>
       <use xlink:href="#ArialUnicodeMS-35"/>
      </g>
     </g>
    </g>
    <g id="ytick_3">
     <g id="line2d_15">
      <path d="M 37.653906 217.070551 
L 261.113906 217.070551 
" clip-path="url(#peb27ba9dfd)" style="fill: none; stroke: #b0b0b0; stroke-opacity: 0.3; stroke-width: 0.8; stroke-linecap: square"/>
     </g>
     <g id="line2d_16">
      <g>
       <use xlink:href="#ma6117102d9" x="37.653906" y="217.070551" style="stroke: #000000; stroke-width: 0.8"/>
      </g>
     </g>
     <g id="text_9">
      <!-- 10 -->
      <g transform="translate(19.532031 220.649458) scale(0.1 -0.1)">
       <defs>
        <path id="ArialUnicodeMS-31" d="M 2400 0 
L 1838 0 
L 1838 3584 
Q 1416 3184 709 2906 
L 709 3450 
Q 1681 3916 2034 4603 
L 2400 4603 
L 2400 0 
z
" transform="scale(0.015625)"/>
       </defs>
       <use xlink:href="#ArialUnicodeMS-31"/>
       <use xlink:href="#ArialUnicodeMS-30" x="55.615234"/>
      </g>
     </g>
    </g>
    <g id="ytick_4">
     <g id="line2d_17">
      <path d="M 37.653906 177.194108 
L 261.113906 177.194108 
" clip-path="url(#peb27ba9dfd)" style="fill: none; stroke: #b0b0b0; stroke-opacity: 0.3; stroke-width: 0.8; stroke-linecap: square"/>
     </g>
     <g id="line2d_18">
      <g>
       <use xlink:href="#ma6117102d9" x="37.653906" y="177.194108" style="stroke: #000000; stroke-width: 0.8"/>
      </g>
     </g>
     <g id="text_10">
      <!-- 15 -->
      <g transform="translate(19.532031 180.773015) scale(0.1 -0.1)">
       <use xlink:href="#ArialUnicodeMS-31"/>
       <use xlink:href="#ArialUnicodeMS-35" x="55.615234"/>
      </g>
     </g>
    </g>
    <g id="ytick_5">
     <g id="line2d_19">
      <path d="M 37.653906 137.317665 
L 261.113906 137.317665 
" clip-path="url(#peb27ba9dfd)" style="fill: none; stroke: #b0b0b0; stroke-opacity: 0.3; stroke-width: 0.8; stroke-linecap: square"/>
     </g>
     <g id="line2d_20">
      <g>
       <use xlink:href="#ma6117102d9" x="37.653906" y="137.317665" style="stroke: #000000; stroke-width: 0.8"/>
      </g>
     </g>
     <g id="text_11">
      <!-- 20 -->
      <g transform="translate(19.532031 140.896572) scale(0.1 -0.1)">
       <use xlink:href="#ArialUnicodeMS-32"/>
       <use xlink:href="#ArialUnicodeMS-30" x="55.615234"/>
      </g>
     </g>
    </g>
    <g id="ytick_6">
     <g id="line2d_21">
      <path d="M 37.653906 97.441222 
L 261.113906 97.441222 
" clip-path="url(#peb27ba9dfd)" style="fill: none; stroke: #b0b0b0; stroke-opacity: 0.3; stroke-width: 0.8; stroke-linecap: square"/>
     </g>
     <g id="line2d_22">
      <g>
       <use xlink:href="#ma6117102d9" x="37.653906" y="97.441222" style="stroke: #000000; stroke-width: 0.8"/>
      </g>
     </g>
     <g id="text_12">
      <!-- 25 -->
      <g transform="translate(19.532031 101.020129) scale(0.1 -0.1)">
       <use xlink:href="#ArialUnicodeMS-32"/>
       <use xlink:href="#ArialUnicodeMS-35" x="55.615234"/>
      </g>
     </g>
    </g>
    <g id="ytick_7">
     <g id="line2d_23">
      <path d="M 37.653906 57.564779 
L 261.113906 57.564779 
" clip-path="url(#peb27ba9dfd)" style="fill: none; stroke: #b0b0b0; stroke-opacity: 0.3; stroke-width: 0.8; stroke-linecap: square"/>
     </g>
     <g id="line2d_24">
      <g>
       <use xlink:href="#ma6117102d9" x="37.653906" y="57.564779" style="stroke: #000000; stroke-width: 0.8"/>
      </g>
     </g>
     <g id="text_13">
      <!-- 30 -->
      <g transform="translate(19.532031 61.143686) scale(0.1 -0.1)">
       <defs>
        <path id="ArialUnicodeMS-33" d="M 2425 2478 
Q 2850 2397 3067 2067 
Q 3284 1738 3284 1350 
Q 3284 725 2829 323 
Q 2375 -78 1741 -78 
Q 1134 -78 740 275 
Q 347 628 281 1209 
L 844 1288 
Q 928 834 1151 609 
Q 1375 384 1741 384 
Q 2134 384 2407 661 
Q 2681 938 2681 1338 
Q 2681 1722 2432 1975 
Q 2184 2228 1784 2228 
Q 1622 2228 1388 2169 
L 1453 2663 
Q 1678 2663 1809 2684 
Q 1941 2706 2103 2790 
Q 2266 2875 2372 3033 
Q 2478 3191 2478 3425 
Q 2478 3766 2251 3953 
Q 2025 4141 1728 4141 
Q 1388 4141 1173 3925 
Q 959 3709 903 3309 
L 341 3413 
Q 450 4009 823 4306 
Q 1197 4603 1716 4603 
Q 2288 4603 2670 4258 
Q 3053 3913 3053 3413 
Q 3053 2772 2425 2491 
L 2425 2478 
z
" transform="scale(0.015625)"/>
       </defs>
       <use xlink:href="#ArialUnicodeMS-33"/>
       <use xlink:href="#ArialUnicodeMS-30" x="55.615234"/>
      </g>
     </g>
    </g>
    <g id="text_14">
     <!-- Frequency -->
     <g transform="translate(13.642031 179.910547) rotate(-90) scale(0.09 -0.09)">
      <defs>
       <path id="ArialUnicodeMS-46" d="M 3603 4038 
L 1119 4038 
L 1119 2619 
L 3272 2619 
L 3272 2075 
L 1119 2075 
L 1119 0 
L 513 0 
L 513 4581 
L 3603 4581 
L 3603 4038 
z
" transform="scale(0.015625)"/>
       <path id="ArialUnicodeMS-71" d="M 3122 -1275 
L 2559 -1275 
L 2559 347 
L 2547 347 
Q 2222 -78 1691 -78 
Q 1078 -78 661 398 
Q 244 875 244 1684 
Q 244 2444 622 2917 
Q 1000 3391 1650 3391 
Q 2281 3391 2597 2888 
L 2613 2888 
L 2613 3316 
L 3122 3316 
L 3122 -1275 
z
M 1728 384 
Q 2125 384 2372 703 
Q 2619 1022 2619 1638 
Q 2619 2219 2362 2584 
Q 2106 2950 1703 2950 
Q 1316 2950 1067 2622 
Q 819 2294 819 1684 
Q 819 1256 934 965 
Q 1050 675 1262 529 
Q 1475 384 1728 384 
z
" transform="scale(0.015625)"/>
       <path id="ArialUnicodeMS-75" d="M 3116 0 
L 2613 0 
L 2613 488 
L 2597 488 
Q 2216 -78 1556 -78 
Q 1209 -78 914 83 
Q 619 244 520 526 
Q 422 809 422 1259 
L 422 3316 
L 984 3316 
L 984 1478 
Q 984 1038 1026 847 
Q 1069 656 1247 532 
Q 1425 409 1672 409 
Q 1991 409 2272 629 
Q 2553 850 2553 1544 
L 2553 3316 
L 3116 3316 
L 3116 0 
z
" transform="scale(0.015625)"/>
       <path id="ArialUnicodeMS-6e" d="M 3138 0 
L 2572 0 
L 2572 2016 
Q 2572 2525 2389 2715 
Q 2206 2906 1881 2906 
Q 1631 2906 1407 2784 
Q 1184 2663 1090 2441 
Q 997 2219 997 1813 
L 997 0 
L 434 0 
L 434 3316 
L 941 3316 
L 941 2847 
L 953 2847 
Q 1131 3119 1392 3255 
Q 1653 3391 1997 3391 
Q 2259 3391 2515 3297 
Q 2772 3203 2917 3015 
Q 3063 2828 3100 2615 
Q 3138 2403 3138 2041 
L 3138 0 
z
" transform="scale(0.015625)"/>
       <path id="ArialUnicodeMS-63" d="M 3144 1147 
Q 3034 513 2643 217 
Q 2253 -78 1759 -78 
Q 1038 -78 644 395 
Q 250 869 250 1650 
Q 250 2297 476 2686 
Q 703 3075 1043 3233 
Q 1384 3391 1759 3391 
Q 2272 3391 2636 3125 
Q 3000 2859 3084 2344 
L 2541 2259 
Q 2456 2594 2267 2762 
Q 2078 2931 1784 2931 
Q 1313 2931 1069 2597 
Q 825 2263 825 1663 
Q 825 1050 1064 717 
Q 1303 384 1753 384 
Q 2116 384 2323 592 
Q 2531 800 2584 1216 
L 3144 1147 
z
" transform="scale(0.015625)"/>
       <path id="ArialUnicodeMS-79" d="M 3150 3316 
L 1881 -56 
Q 1878 -63 1875 -78 
Q 1694 -641 1451 -992 
Q 1209 -1344 763 -1344 
Q 613 -1344 397 -1281 
L 341 -750 
Q 503 -800 659 -800 
Q 972 -800 1092 -628 
Q 1213 -456 1363 -6 
L 103 3316 
L 709 3316 
L 1491 1144 
Q 1559 944 1638 628 
L 1650 628 
Q 1728 991 1850 1319 
L 2578 3316 
L 3150 3316 
z
" transform="scale(0.015625)"/>
      </defs>
      <use xlink:href="#ArialUnicodeMS-46"/>
      <use xlink:href="#ArialUnicodeMS-72" x="61.083984"/>
      <use xlink:href="#ArialUnicodeMS-65" x="94.384766"/>
      <use xlink:href="#ArialUnicodeMS-71" x="150"/>
      <use xlink:href="#ArialUnicodeMS-75" x="205.615234"/>
      <use xlink:href="#ArialUnicodeMS-65" x="261.230469"/>
      <use xlink:href="#ArialUnicodeMS-6e" x="316.845703"/>
      <use xlink:href="#ArialUnicodeMS-63" x="372.460938"/>
      <use xlink:href="#ArialUnicodeMS-79" x="422.460938"/>
     </g>
    </g>
   </g>
   <g id="line2d_25">
    <path d="M 76.833764 296.823437 
L 76.833764 20.479687 
" clip-path="url(#peb27ba9dfd)" style="fill: none; stroke-dasharray: 7.4,3.2; stroke-dashoffset: 0; stroke: #ff0000; stroke-width: 2"/>
   </g>
   <g id="patch_13">
    <path d="M 37.653906 296.823437 
L 37.653906 20.479687 
" style="fill: none; stroke: #000000; stroke-width: 0.8; stroke-linejoin: miter; stroke-linecap: square"/>
   </g>
   <g id="patch_14">
    <path d="M 261.113906 296.823437 
L 261.113906 20.479687 
" style="fill: none; stroke: #000000; stroke-width: 0.8; stroke-linejoin: miter; stroke-linecap: square"/>
   </g>
   <g id="patch_15">
    <path d="M 37.653906 296.823437 
L 261.113906 296.823437 
" style="fill: none; stroke: #000000; stroke-width: 0.8; stroke-linejoin: miter; stroke-linecap: square"/>
   </g>
   <g id="patch_16">
    <path d="M 37.653906 20.479687 
L 261.113906 20.479687 
" style="fill: none; stroke: #000000; stroke-width: 0.8; stroke-linejoin: miter; stroke-linecap: square"/>
   </g>
   <g id="text_15">
    <!-- ASR WER Distribution (N=40) -->
    <g transform="translate(82.839375 14.479688) scale(0.1 -0.1)">
     <defs>
      <path id="ArialUnicodeMS-41" d="M 4275 0 
L 3591 0 
L 3053 1394 
L 1141 1394 
L 634 0 
L -6 0 
L 1753 4581 
L 2406 4581 
L 4275 0 
z
M 2869 1875 
Q 2306 3363 2234 3564 
Q 2163 3766 2075 4103 
L 2059 4103 
Q 1972 3641 1825 3247 
L 1313 1875 
L 2869 1875 
z
" transform="scale(0.015625)"/>
      <path id="ArialUnicodeMS-53" d="M 3213 3238 
Q 3175 3675 2897 3895 
Q 2619 4116 2100 4116 
Q 1631 4116 1337 3941 
Q 1044 3766 1044 3431 
Q 1044 3134 1270 2989 
Q 1497 2844 2138 2700 
Q 2706 2575 3065 2444 
Q 3425 2313 3681 2036 
Q 3938 1759 3938 1294 
Q 3938 703 3467 312 
Q 2997 -78 2241 -78 
Q 1275 -78 795 353 
Q 316 784 288 1472 
L 863 1522 
Q 903 972 1287 720 
Q 1672 469 2216 469 
Q 2725 469 3039 678 
Q 3353 888 3353 1247 
Q 3353 1622 3025 1794 
Q 2697 1966 1923 2133 
Q 1150 2300 809 2603 
Q 469 2906 469 3391 
Q 469 3941 900 4300 
Q 1331 4659 2075 4659 
Q 2838 4659 3302 4301 
Q 3766 3944 3794 3284 
L 3213 3238 
z
" transform="scale(0.015625)"/>
      <path id="ArialUnicodeMS-44" d="M 513 4581 
L 2094 4581 
Q 2509 4581 2809 4539 
Q 3109 4497 3382 4333 
Q 3656 4169 3861 3881 
Q 4066 3594 4183 3220 
Q 4300 2847 4300 2316 
Q 4300 1303 3819 651 
Q 3338 0 2163 0 
L 513 0 
L 513 4581 
z
M 1119 544 
L 2100 544 
Q 2400 544 2636 581 
Q 2872 619 3114 784 
Q 3356 950 3515 1328 
Q 3675 1706 3675 2328 
Q 3675 2672 3614 2970 
Q 3553 3269 3389 3514 
Q 3225 3759 3012 3873 
Q 2800 3988 2598 4013 
Q 2397 4038 2081 4038 
L 1119 4038 
L 1119 544 
z
" transform="scale(0.015625)"/>
      <path id="ArialUnicodeMS-69" d="M 991 0 
L 428 0 
L 428 3316 
L 991 3316 
L 991 0 
z
M 991 3944 
L 428 3944 
L 428 4581 
L 991 4581 
L 991 3944 
z
" transform="scale(0.015625)"/>
      <path id="ArialUnicodeMS-73" d="M 2278 2388 
Q 2241 2659 2058 2795 
Q 1875 2931 1550 2931 
Q 1228 2931 1029 2822 
Q 831 2713 831 2503 
Q 831 2306 989 2222 
Q 1147 2138 1613 2016 
Q 2138 1881 2398 1778 
Q 2659 1675 2804 1489 
Q 2950 1303 2950 972 
Q 2950 528 2587 225 
Q 2225 -78 1619 -78 
Q 988 -78 633 189 
Q 278 456 197 991 
L 756 1075 
Q 800 728 1014 556 
Q 1228 384 1613 384 
Q 1981 384 2178 539 
Q 2375 694 2375 916 
Q 2375 1066 2284 1156 
Q 2194 1247 2058 1292 
Q 1922 1338 1447 1453 
Q 741 1622 514 1862 
Q 288 2103 288 2438 
Q 288 2853 619 3122 
Q 950 3391 1509 3391 
Q 2103 3391 2433 3158 
Q 2763 2925 2828 2463 
L 2278 2388 
z
" transform="scale(0.015625)"/>
      <path id="ArialUnicodeMS-62" d="M 1006 2944 
Q 1319 3391 1900 3391 
Q 2541 3391 2925 2925 
Q 3309 2459 3309 1709 
Q 3309 844 2879 383 
Q 2450 -78 1875 -78 
Q 1291 -78 966 416 
L 953 416 
L 953 0 
L 428 0 
L 428 4581 
L 991 4581 
L 991 2944 
L 1006 2944 
z
M 1831 384 
Q 2222 384 2476 720 
Q 2731 1056 2731 1663 
Q 2731 2247 2497 2589 
Q 2263 2931 1850 2931 
Q 1444 2931 1195 2578 
Q 947 2225 947 1684 
Q 947 1156 1050 932 
Q 1153 709 1361 546 
Q 1569 384 1831 384 
z
" transform="scale(0.015625)"/>
      <path id="ArialUnicodeMS-4e" d="M 4109 0 
L 3488 0 
L 1094 3597 
L 1081 3597 
L 1081 0 
L 506 0 
L 506 4581 
L 1125 4581 
L 3519 984 
L 3531 984 
L 3531 4581 
L 4109 4581 
L 4109 0 
z
" transform="scale(0.015625)"/>
      <path id="ArialUnicodeMS-3d" d="M 3384 2694 
L 353 2694 
L 353 3219 
L 3384 3219 
L 3384 2694 
z
M 3384 1300 
L 353 1300 
L 353 1825 
L 3384 1825 
L 3384 1300 
z
" transform="scale(0.015625)"/>
     </defs>
     <use xlink:href="#ArialUnicodeMS-41"/>
     <use xlink:href="#ArialUnicodeMS-53" x="66.699219"/>
     <use xlink:href="#ArialUnicodeMS-52" x="133.398438"/>
     <use xlink:href="#ArialUnicodeMS-20" x="205.615234"/>
     <use xlink:href="#ArialUnicodeMS-57" x="233.398438"/>
     <use xlink:href="#ArialUnicodeMS-45" x="327.783203"/>
     <use xlink:href="#ArialUnicodeMS-52" x="394.482422"/>
     <use xlink:href="#ArialUnicodeMS-20" x="466.699219"/>
     <use xlink:href="#ArialUnicodeMS-44" x="494.482422"/>
     <use xlink:href="#ArialUnicodeMS-69" x="566.699219"/>
     <use xlink:href="#ArialUnicodeMS-73" x="588.916016"/>
     <use xlink:href="#ArialUnicodeMS-74" x="638.916016"/>
     <use xlink:href="#ArialUnicodeMS-72" x="666.699219"/>
     <use xlink:href="#ArialUnicodeMS-69" x="700"/>
     <use xlink:href="#ArialUnicodeMS-62" x="722.216797"/>
     <use xlink:href="#ArialUnicodeMS-75" x="777.832031"/>
     <use xlink:href="#ArialUnicodeMS-74" x="833.447266"/>
     <use xlink:href="#ArialUnicodeMS-69" x="861.230469"/>
     <use xlink:href="#ArialUnicodeMS-6f" x="883.447266"/>
     <use xlink:href="#ArialUnicodeMS-6e" x="939.0625"/>
     <use xlink:href="#ArialUnicodeMS-20" x="994.677734"/>
     <use xlink:href="#ArialUnicodeMS-28" x="1022.460938"/>
     <use xlink:href="#ArialUnicodeMS-4e" x="1055.761719"/>
     <use xlink:href="#ArialUnicodeMS-3d" x="1127.978516"/>
     <use xlink:href="#ArialUnicodeMS-34" x="1186.376953"/>
     <use xlink:href="#ArialUnicodeMS-30" x="1241.992188"/>
     <use xlink:href="#ArialUnicodeMS-29" x="1297.607422"/>
    </g>
   </g>
   <g id="legend_1">
    <g id="patch_17">
     <path d="M 182.776406 38.199687 
L 255.513906 38.199687 
Q 257.113906 38.199687 257.113906 36.599687 
L 257.113906 26.079688 
Q 257.113906 24.479688 255.513906 24.479688 
L 182.776406 24.479688 
Q 181.176406 24.479688 181.176406 26.079688 
L 181.176406 36.599687 
Q 181.176406 38.199687 182.776406 38.199687 
z
" style="fill: #ffffff; opacity: 0.8; stroke: #cccccc; stroke-linejoin: miter"/>
    </g>
    <g id="line2d_26">
     <path d="M 184.376406 30.605937 
L 192.376406 30.605937 
L 200.376406 30.605937 
" style="fill: none; stroke-dasharray: 7.4,3.2; stroke-dashoffset: 0; stroke: #ff0000; stroke-width: 2"/>
    </g>
    <g id="text_16">
     <!-- Mean: 1.30% -->
     <g transform="translate(206.776406 33.405937) scale(0.08 -0.08)">
      <defs>
       <path id="ArialUnicodeMS-4d" d="M 4844 0 
L 4269 0 
L 4269 3834 
L 4256 3834 
L 2938 0 
L 2394 0 
L 1081 3897 
L 1063 3897 
L 1063 0 
L 488 0 
L 488 4581 
L 1394 4581 
L 2478 1338 
Q 2659 797 2688 659 
L 2700 659 
Q 2784 925 2944 1394 
L 4038 4581 
L 4844 4581 
L 4844 0 
z
" transform="scale(0.015625)"/>
       <path id="ArialUnicodeMS-3a" d="M 1216 2675 
L 575 2675 
L 575 3316 
L 1216 3316 
L 1216 2675 
z
M 1216 0 
L 575 0 
L 575 641 
L 1216 641 
L 1216 0 
z
" transform="scale(0.015625)"/>
       <path id="ArialUnicodeMS-2e" d="M 1209 0 
L 569 0 
L 569 641 
L 1209 641 
L 1209 0 
z
" transform="scale(0.015625)"/>
      </defs>
      <use xlink:href="#ArialUnicodeMS-4d"/>
      <use xlink:href="#ArialUnicodeMS-65" x="83.300781"/>
      <use xlink:href="#ArialUnicodeMS-61" x="138.916016"/>
      <use xlink:href="#ArialUnicodeMS-6e" x="194.53125"/>
      <use xlink:href="#ArialUnicodeMS-3a" x="250.146484"/>
      <use xlink:href="#ArialUnicodeMS-20" x="277.929688"/>
      <use xlink:href="#ArialUnicodeMS-31" x="305.712891"/>
      <use xlink:href="#ArialUnicodeMS-2e" x="361.328125"/>
      <use xlink:href="#ArialUnicodeMS-33" x="389.111328"/>
      <use xlink:href="#ArialUnicodeMS-30" x="444.726562"/>
      <use xlink:href="#ArialUnicodeMS-25" x="500.341797"/>
     </g>
    </g>
   </g>
  </g>
  <g id="axes_2">
   <g id="patch_18">
    <path d="M 383.643906 69.267562 
C 373.970069 69.267562 364.360075 70.83803 355.1895 73.917589 
C 346.018925 76.997148 337.408813 81.545151 329.695663 87.383853 
C 321.982512 93.222555 315.268131 100.27489 309.814928 108.265241 
C 304.361725 116.255592 300.241679 125.078492 297.615808 134.389128 
C 294.989937 143.699763 293.892901 153.375241 294.367573 163.037425 
C 294.842246 172.69961 296.882362 182.220969 300.40819 191.229391 
C 303.934018 200.237813 308.89902 208.614394 315.109155 216.031762 
C 321.31929 223.44913 328.69259 229.809383 336.940892 234.863949 
C 345.189194 239.918516 354.203628 243.60068 363.631893 245.766537 
C 373.060159 247.932394 382.777811 248.553356 392.405066 247.605155 
C 402.032321 246.656953 411.442108 244.152104 420.266675 240.188501 
C 429.091242 236.224897 437.214111 230.854857 444.317828 224.288249 
C 451.421545 217.721641 457.412346 210.045141 462.056099 201.558759 
C 466.699852 193.072376 469.935264 183.888125 471.63589 174.364943 
C 473.336515 164.841761 473.479906 155.105345 472.06046 145.536212 
C 470.641014 135.967079 467.677466 126.691534 463.285636 118.072082 
L 383.643906 158.651562 
z
" style="fill: #0ea5e9"/>
   </g>
   <g id="patch_19">
    <path d="M 463.285636 118.072082 
C 455.802552 103.385698 444.400917 91.051477 430.346924 82.439178 
C 416.292932 73.826878 400.126828 69.267564 383.643915 69.267563 
L 383.643906 158.651562 
z
" style="fill: #e5e7eb"/>
   </g>
   <g id="matplotlib.axis_3"/>
   <g id="matplotlib.axis_4"/>
   <g id="text_17">
    <!-- Zero Error -->
    <g transform="translate(286.712778 239.650188) scale(0.1 -0.1)">
     <defs>
      <path id="ArialUnicodeMS-5a" d="M 3738 0 
L 116 0 
L 116 569 
L 2463 3494 
Q 2463 3503 2628 3698 
Q 2794 3894 2938 4038 
L 378 4038 
L 378 4581 
L 3659 4581 
L 3659 4038 
L 1088 872 
L 813 544 
L 3738 544 
L 3738 0 
z
" transform="scale(0.015625)"/>
     </defs>
     <use xlink:href="#ArialUnicodeMS-5a"/>
     <use xlink:href="#ArialUnicodeMS-65" x="61.083984"/>
     <use xlink:href="#ArialUnicodeMS-72" x="116.699219"/>
     <use xlink:href="#ArialUnicodeMS-6f" x="150"/>
     <use xlink:href="#ArialUnicodeMS-20" x="205.615234"/>
     <use xlink:href="#ArialUnicodeMS-45" x="233.398438"/>
     <use xlink:href="#ArialUnicodeMS-72" x="300.097656"/>
     <use xlink:href="#ArialUnicodeMS-72" x="333.398438"/>
     <use xlink:href="#ArialUnicodeMS-6f" x="366.699219"/>
     <use xlink:href="#ArialUnicodeMS-72" x="422.314453"/>
    </g>
    <!-- (33) -->
    <g transform="translate(314.48934 250.378) scale(0.1 -0.1)">
     <use xlink:href="#ArialUnicodeMS-28"/>
     <use xlink:href="#ArialUnicodeMS-33" x="33.300781"/>
     <use xlink:href="#ArialUnicodeMS-33" x="88.916016"/>
     <use xlink:href="#ArialUnicodeMS-29" x="144.53125"/>
    </g>
   </g>
   <g id="text_18">
    <!-- 82.5% -->
    <g transform="translate(341.445535 206.961807) scale(0.1 -0.1)">
     <use xlink:href="#ArialUnicodeMS-38"/>
     <use xlink:href="#ArialUnicodeMS-32" x="55.615234"/>
     <use xlink:href="#ArialUnicodeMS-2e" x="111.230469"/>
     <use xlink:href="#ArialUnicodeMS-35" x="139.013672"/>
     <use xlink:href="#ArialUnicodeMS-25" x="194.628906"/>
    </g>
   </g>
   <g id="text_19">
    <!-- With Error -->
    <g transform="translate(435.017226 71.98294) scale(0.1 -0.1)">
     <defs>
      <path id="ArialUnicodeMS-68" d="M 3138 0 
L 2572 0 
L 2572 2094 
Q 2572 2500 2397 2703 
Q 2222 2906 1875 2906 
Q 1531 2906 1261 2667 
Q 991 2428 991 1813 
L 991 0 
L 428 0 
L 428 4581 
L 991 4581 
L 991 2938 
Q 1391 3391 1991 3391 
Q 2313 3391 2606 3259 
Q 2900 3128 3019 2856 
Q 3138 2584 3138 2100 
L 3138 0 
z
" transform="scale(0.015625)"/>
     </defs>
     <use xlink:href="#ArialUnicodeMS-57"/>
     <use xlink:href="#ArialUnicodeMS-69" x="94.384766"/>
     <use xlink:href="#ArialUnicodeMS-74" x="116.601562"/>
     <use xlink:href="#ArialUnicodeMS-68" x="144.384766"/>
     <use xlink:href="#ArialUnicodeMS-20" x="200"/>
     <use xlink:href="#ArialUnicodeMS-45" x="227.783203"/>
     <use xlink:href="#ArialUnicodeMS-72" x="294.482422"/>
     <use xlink:href="#ArialUnicodeMS-72" x="327.783203"/>
     <use xlink:href="#ArialUnicodeMS-6f" x="361.083984"/>
     <use xlink:href="#ArialUnicodeMS-72" x="416.699219"/>
    </g>
    <!-- (7) -->
    <g transform="translate(435.017226 82.710752) scale(0.1 -0.1)">
     <defs>
      <path id="ArialUnicodeMS-37" d="M 3272 4084 
Q 2597 3344 2103 2253 
Q 1609 1163 1522 0 
L 947 0 
Q 969 934 1408 2051 
Q 1847 3169 2547 3975 
L 306 3975 
L 306 4519 
L 3272 4519 
L 3272 4084 
z
" transform="scale(0.015625)"/>
     </defs>
     <use xlink:href="#ArialUnicodeMS-28"/>
     <use xlink:href="#ArialUnicodeMS-37" x="33.300781"/>
     <use xlink:href="#ArialUnicodeMS-29" x="88.916016"/>
    </g>
   </g>
   <g id="text_20">
    <!-- 17.5% -->
    <g transform="translate(397.489155 115.506944) scale(0.1 -0.1)">
     <use xlink:href="#ArialUnicodeMS-31"/>
     <use xlink:href="#ArialUnicodeMS-37" x="55.615234"/>
     <use xlink:href="#ArialUnicodeMS-2e" x="111.230469"/>
     <use xlink:href="#ArialUnicodeMS-35" x="139.013672"/>
     <use xlink:href="#ArialUnicodeMS-25" x="194.628906"/>
    </g>
   </g>
   <g id="text_21">
    <!-- Zero Error Rate -->
    <g transform="translate(348.915 40.921562) scale(0.1 -0.1)">
     <use xlink:href="#ArialUnicodeMS-5a"/>
     <use xlink:href="#ArialUnicodeMS-65" x="61.083984"/>
     <use xlink:href="#ArialUnicodeMS-72" x="116.699219"/>
     <use xlink:href="#ArialUnicodeMS-6f" x="150"/>
     <use xlink:href="#ArialUnicodeMS-20" x="205.615234"/>
     <use xlink:href="#ArialUnicodeMS-45" x="233.398438"/>
     <use xlink:href="#ArialUnicodeMS-72" x="300.097656"/>
     <use xlink:href="#ArialUnicodeMS-72" x="333.398438"/>
     <use xlink:href="#ArialUnicodeMS-6f" x="366.699219"/>
     <use xlink:href="#ArialUnicodeMS-72" x="422.314453"/>
     <use xlink:href="#ArialUnicodeMS-20" x="455.615234"/>
     <use xlink:href="#ArialUnicodeMS-52" x="483.398438"/>
     <use xlink:href="#ArialUnicodeMS-61" x="555.615234"/>
     <use xlink:href="#ArialUnicodeMS-74" x="611.230469"/>
     <use xlink:href="#ArialUnicodeMS-65" x="639.013672"/>
    </g>
   </g>
  </g>
 </g>
 <defs>
  <clipPath id="peb27ba9dfd">
   <rect x="37.653906" y="20.479688" width="223.46" height="276.34375"/>
  </clipPath>
 </defs>
</svg>
