<?xml version="1.0" encoding="utf-8" standalone="no"?>
<!DOCTYPE svg PUBLIC "-//W3C//DTD SVG 1.1//EN"
  "http://www.w3.org/Graphics/SVG/1.1/DTD/svg11.dtd">
<svg xmlns:xlink="http://www.w3.org/1999/xlink" width="502.445937pt" height="332.615156pt" viewBox="0 0 502.445937 332.615156" xmlns="http://www.w3.org/2000/svg" version="1.1">
 <metadata>
  <rdf:RDF xmlns:dc="http://purl.org/dc/elements/1.1/" xmlns:cc="http://creativecommons.org/ns#" xmlns:rdf="http://www.w3.org/1999/02/22-rdf-syntax-ns#">
   <cc:Work>
    <dc:type rdf:resource="http://purl.org/dc/dcmitype/StillImage"/>
    <dc:date>2026-04-06T08:38:47.324116</dc:date>
    <dc:format>image/svg+xml</dc:format>
    <dc:creator>
     <cc:Agent>
      <dc:title>Matplotlib v3.7.5, https://matplotlib.org/</dc:title>
     </cc:Agent>
    </dc:creator>
   </cc:Work>
  </rdf:RDF>
 </metadata>
 <defs>
  <style type="text/css">*{stroke-linejoin: round; stroke-linecap: butt}</style>
 </defs>
 <g id="figure_1">
  <g id="patch_1">
   <path d="M 0 332.615156 
L 502.445937 332.615156 
L 502.445937 0 
L 0 0 
z
" style="fill: #ffffff"/>
  </g>
  <g id="axes_1">
   <g id="patch_2">
    <path d="M 45.895938 296.823437 
L 495.245937 296.823437 
L 495.245937 20.479687 
L 45.895938 20.479687 
z
" style="fill: #ffffff"/>
   </g>
   <g id="patch_3">
    <path d="M 66.320938 296.823437 
L 134.404271 296.823437 
L 134.404271 238.337988 
L 66.320938 238.337988 
z
" clip-path="url(#p8e52d8b29c)" style="fill: #10b981; opacity: 0.7"/>
   </g>
   <g id="patch_4">
    <path d="M 151.425104 296.823437 
L 219.508437 296.823437 
L 219.508437 33.638914 
L 151.425104 33.638914 
z
" clip-path="url(#p8e52d8b29c)" style="fill: #3b82f6; opacity: 0.7"/>
   </g>
   <g id="patch_5">
    <path d="M 236.529271 296.823437 
L 304.612604 296.823437 
L 304.612604 267.580713 
L 236.529271 267.580713 
z
" clip-path="url(#p8e52d8b29c)" style="fill: #f59e0b; opacity: 0.7"/>
   </g>
   <g id="patch_6">
    <path d="M 321.633437 296.823437 
L 389.716771 296.823437 
L 389.716771 223.716625 
L 321.633437 223.716625 
z
" clip-path="url(#p8e52d8b29c)" style="fill: #ef4444; opacity: 0.7"/>
   </g>
   <g id="patch_7">
    <path d="M 406.737604 296.823437 
L 474.820938 296.823437 
L 474.820938 282.202075 
L 406.737604 282.202075 
z
" clip-path="url(#p8e52d8b29c)" style="fill: #8b5cf6; opacity: 0.7"/>
   </g>
   <g id="matplotlib.axis_1">
    <g id="xtick_1">
     <g id="line2d_1">
      <defs>
       <path id="m1baed4ed0f" d="M 0 0 
L 0 3.5 
" style="stroke: #000000; stroke-width: 0.8"/>
      </defs>
      <g>
       <use xlink:href="#m1baed4ed0f" x="100.362604" y="296.823437" style="stroke: #000000; stroke-width: 0.8"/>
      </g>
     </g>
     <g id="text_1">
      <!-- L0 -->
      <g transform="translate(94.801667 310.98125) scale(0.1 -0.1)">
       <defs>
        <path id="ArialUnicodeMS-4c" d="M 3347 0 
L 481 0 
L 481 4581 
L 1088 4581 
L 1088 544 
L 3347 544 
L 3347 0 
z
" transform="scale(0.015625)"/>
        <path id="ArialUnicodeMS-30" d="M 1778 4603 
Q 3272 4603 3272 2259 
Q 3272 1075 2886 498 
Q 2500 -78 1778 -78 
Q 288 -78 288 2259 
Q 288 3444 673 4023 
Q 1059 4603 1778 4603 
z
M 1778 384 
Q 2231 384 2462 823 
Q 2694 1263 2694 2259 
Q 2694 2953 2592 3351 
Q 2491 3750 2286 3945 
Q 2081 4141 1772 4141 
Q 1319 4141 1091 3694 
Q 863 3247 863 2259 
Q 863 1575 966 1175 
Q 1069 775 1272 579 
Q 1475 384 1778 384 
z
" transform="scale(0.015625)"/>
       </defs>
       <use xlink:href="#ArialUnicodeMS-4c"/>
       <use xlink:href="#ArialUnicodeMS-30" x="55.615234"/>
      </g>
     </g>
    </g>
    <g id="xtick_2">
     <g id="line2d_2">
      <g>
       <use xlink:href="#m1baed4ed0f" x="185.466771" y="296.823437" style="stroke: #000000; stroke-width: 0.8"/>
      </g>
     </g>
     <g id="text_2">
      <!-- L1 -->
      <g transform="translate(179.905833 310.98125) scale(0.1 -0.1)">
       <defs>
        <path id="ArialUnicodeMS-31" d="M 2400 0 
L 1838 0 
L 1838 3584 
Q 1416 3184 709 2906 
L 709 3450 
Q 1681 3916 2034 4603 
L 2400 4603 
L 2400 0 
z
" transform="scale(0.015625)"/>
       </defs>
       <use xlink:href="#ArialUnicodeMS-4c"/>
       <use xlink:href="#ArialUnicodeMS-31" x="55.615234"/>
      </g>
     </g>
    </g>
    <g id="xtick_3">
     <g id="line2d_3">
      <g>
       <use xlink:href="#m1baed4ed0f" x="270.570937" y="296.823437" style="stroke: #000000; stroke-width: 0.8"/>
      </g>
     </g>
     <g id="text_3">
      <!-- L2 -->
      <g transform="translate(265.01 310.98125) scale(0.1 -0.1)">
       <defs>
        <path id="ArialUnicodeMS-32" d="M 3231 0 
L 197 0 
Q 197 388 467 784 
Q 738 1181 1478 1778 
Q 1931 2141 2287 2539 
Q 2644 2938 2644 3341 
Q 2644 3688 2398 3914 
Q 2153 4141 1778 4141 
Q 1400 4141 1144 3908 
Q 888 3675 884 3213 
L 306 3278 
Q 359 3922 764 4262 
Q 1169 4603 1791 4603 
Q 2466 4603 2842 4229 
Q 3219 3856 3219 3328 
Q 3219 2888 2901 2436 
Q 2584 1984 1638 1228 
Q 1141 831 978 544 
L 3231 544 
L 3231 0 
z
" transform="scale(0.015625)"/>
       </defs>
       <use xlink:href="#ArialUnicodeMS-4c"/>
       <use xlink:href="#ArialUnicodeMS-32" x="55.615234"/>
      </g>
     </g>
    </g>
    <g id="xtick_4">
     <g id="line2d_4">
      <g>
       <use xlink:href="#m1baed4ed0f" x="355.675104" y="296.823437" style="stroke: #000000; stroke-width: 0.8"/>
      </g>
     </g>
     <g id="text_4">
      <!-- L3 -->
      <g transform="translate(350.114167 310.98125) scale(0.1 -0.1)">
       <defs>
        <path id="ArialUnicodeMS-33" d="M 2425 2478 
Q 2850 2397 3067 2067 
Q 3284 1738 3284 1350 
Q 3284 725 2829 323 
Q 2375 -78 1741 -78 
Q 1134 -78 740 275 
Q 347 628 281 1209 
L 844 1288 
Q 928 834 1151 609 
Q 1375 384 1741 384 
Q 2134 384 2407 661 
Q 2681 938 2681 1338 
Q 2681 1722 2432 1975 
Q 2184 2228 1784 2228 
Q 1622 2228 1388 2169 
L 1453 2663 
Q 1678 2663 1809 2684 
Q 1941 2706 2103 2790 
Q 2266 2875 2372 3033 
Q 2478 3191 2478 3425 
Q 2478 3766 2251 3953 
Q 2025 4141 1728 4141 
Q 1388 4141 1173 3925 
Q 959 3709 903 3309 
L 341 3413 
Q 450 4009 823 4306 
Q 1197 4603 1716 4603 
Q 2288 4603 2670 4258 
Q 3053 3913 3053 3413 
Q 3053 2772 2425 2491 
L 2425 2478 
z
" transform="scale(0.015625)"/>
       </defs>
       <use xlink:href="#ArialUnicodeMS-4c"/>
       <use xlink:href="#ArialUnicodeMS-33" x="55.615234"/>
      </g>
     </g>
    </g>
    <g id="xtick_5">
     <g id="line2d_5">
      <g>
       <use xlink:href="#m1baed4ed0f" x="440.779271" y="296.823437" style="stroke: #000000; stroke-width: 0.8"/>
      </g>
     </g>
     <g id="text_5">
      <!-- L4 -->
      <g transform="translate(435.218333 310.98125) scale(0.1 -0.1)">
       <defs>
        <path id="ArialUnicodeMS-34" d="M 3263 1094 
L 2644 1094 
L 2644 0 
L 2081 0 
L 2081 1094 
L 97 1094 
L 97 1613 
L 2181 4581 
L 2644 4581 
L 2644 1613 
L 3263 1613 
L 3263 1094 
z
M 2081 1613 
L 2081 3681 
L 2069 3681 
L 647 1613 
L 2081 1613 
z
" transform="scale(0.015625)"/>
       </defs>
       <use xlink:href="#ArialUnicodeMS-4c"/>
       <use xlink:href="#ArialUnicodeMS-34" x="55.615234"/>
      </g>
     </g>
    </g>
    <g id="text_6">
     <!-- LREF Stage -->
     <g transform="translate(246.059297 323.525156) scale(0.09 -0.09)">
      <defs>
       <path id="ArialUnicodeMS-52" d="M 4550 0 
L 3788 0 
Q 3103 1081 2937 1328 
Q 2772 1575 2589 1751 
Q 2406 1928 2245 1975 
Q 2084 2022 1819 2022 
L 1119 2022 
L 1119 0 
L 513 0 
L 513 4581 
L 2541 4581 
Q 2956 4581 3237 4528 
Q 3519 4475 3731 4304 
Q 3944 4134 4058 3875 
Q 4172 3616 4172 3328 
Q 4172 2809 3844 2493 
Q 3516 2178 2888 2094 
L 2888 2081 
Q 3347 1878 3750 1247 
L 4550 0 
z
M 1119 2566 
L 2419 2566 
Q 2813 2566 3042 2633 
Q 3272 2700 3409 2894 
Q 3547 3088 3547 3328 
Q 3547 3641 3319 3859 
Q 3091 4078 2566 4078 
L 1119 4078 
L 1119 2566 
z
" transform="scale(0.015625)"/>
       <path id="ArialUnicodeMS-45" d="M 3928 0 
L 506 0 
L 506 4581 
L 3822 4581 
L 3822 4038 
L 1113 4038 
L 1113 2638 
L 3647 2638 
L 3647 2094 
L 1113 2094 
L 1113 544 
L 3928 544 
L 3928 0 
z
" transform="scale(0.015625)"/>
       <path id="ArialUnicodeMS-46" d="M 3603 4038 
L 1119 4038 
L 1119 2619 
L 3272 2619 
L 3272 2075 
L 1119 2075 
L 1119 0 
L 513 0 
L 513 4581 
L 3603 4581 
L 3603 4038 
z
" transform="scale(0.015625)"/>
       <path id="ArialUnicodeMS-20" transform="scale(0.015625)"/>
       <path id="ArialUnicodeMS-53" d="M 3213 3238 
Q 3175 3675 2897 3895 
Q 2619 4116 2100 4116 
Q 1631 4116 1337 3941 
Q 1044 3766 1044 3431 
Q 1044 3134 1270 2989 
Q 1497 2844 2138 2700 
Q 2706 2575 3065 2444 
Q 3425 2313 3681 2036 
Q 3938 1759 3938 1294 
Q 3938 703 3467 312 
Q 2997 -78 2241 -78 
Q 1275 -78 795 353 
Q 316 784 288 1472 
L 863 1522 
Q 903 972 1287 720 
Q 1672 469 2216 469 
Q 2725 469 3039 678 
Q 3353 888 3353 1247 
Q 3353 1622 3025 1794 
Q 2697 1966 1923 2133 
Q 1150 2300 809 2603 
Q 469 2906 469 3391 
Q 469 3941 900 4300 
Q 1331 4659 2075 4659 
Q 2838 4659 3302 4301 
Q 3766 3944 3794 3284 
L 3213 3238 
z
" transform="scale(0.015625)"/>
       <path id="ArialUnicodeMS-74" d="M 1722 6 
Q 1472 -44 1300 -44 
Q 931 -44 762 86 
Q 594 216 556 416 
Q 519 616 519 972 
L 519 2881 
L 109 2881 
L 109 3316 
L 519 3316 
L 519 4141 
L 1081 4481 
L 1081 3316 
L 1644 3316 
L 1644 2881 
L 1081 2881 
L 1081 941 
Q 1081 691 1132 586 
Q 1184 481 1394 481 
Q 1516 481 1644 506 
L 1722 6 
z
" transform="scale(0.015625)"/>
       <path id="ArialUnicodeMS-61" d="M 3303 0 
L 2713 0 
Q 2631 156 2597 409 
Q 2031 -78 1375 -78 
Q 850 -78 547 184 
Q 244 447 244 878 
Q 244 1291 536 1558 
Q 828 1825 1550 1913 
L 2075 1991 
Q 2369 2038 2559 2106 
Q 2559 2359 2543 2464 
Q 2528 2569 2451 2681 
Q 2375 2794 2206 2862 
Q 2038 2931 1753 2931 
Q 1391 2931 1180 2797 
Q 969 2663 891 2297 
L 341 2369 
Q 431 2878 806 3134 
Q 1181 3391 1838 3391 
Q 2434 3391 2714 3214 
Q 2994 3038 3058 2788 
Q 3122 2538 3122 2144 
L 3122 1388 
Q 3122 697 3148 461 
Q 3175 225 3303 0 
z
M 2559 1459 
L 2559 1663 
Q 2119 1516 1481 1430 
Q 844 1344 844 891 
Q 844 663 1016 514 
Q 1188 366 1509 366 
Q 1925 366 2242 614 
Q 2559 863 2559 1459 
z
" transform="scale(0.015625)"/>
       <path id="ArialUnicodeMS-67" d="M 3144 447 
Q 3144 -259 3003 -607 
Q 2863 -956 2503 -1150 
Q 2144 -1344 1644 -1344 
Q 1081 -1344 706 -1094 
Q 331 -844 331 -275 
L 878 -359 
Q 909 -622 1098 -753 
Q 1288 -884 1638 -884 
Q 2075 -884 2278 -706 
Q 2481 -528 2526 -272 
Q 2572 -16 2572 434 
Q 2206 0 1650 0 
Q 1003 0 611 478 
Q 219 956 219 1684 
Q 219 2416 600 2903 
Q 981 3391 1656 3391 
Q 2244 3391 2613 2919 
L 2625 2919 
L 2625 3316 
L 3144 3316 
L 3144 447 
z
M 1703 459 
Q 2063 459 2341 745 
Q 2619 1031 2619 1703 
Q 2619 2297 2353 2614 
Q 2088 2931 1697 2931 
Q 1297 2931 1045 2606 
Q 794 2281 794 1716 
Q 794 1063 1058 761 
Q 1322 459 1703 459 
z
" transform="scale(0.015625)"/>
       <path id="ArialUnicodeMS-65" d="M 3309 1516 
L 825 1516 
Q 859 966 1139 675 
Q 1419 384 1838 384 
Q 2159 384 2378 554 
Q 2597 725 2713 1069 
L 3291 997 
Q 3150 478 2775 200 
Q 2400 -78 1838 -78 
Q 1091 -78 670 380 
Q 250 838 250 1631 
Q 250 2416 658 2903 
Q 1066 3391 1806 3391 
Q 2169 3391 2505 3231 
Q 2841 3072 3075 2689 
Q 3309 2306 3309 1516 
z
M 2731 1978 
Q 2697 2484 2417 2707 
Q 2138 2931 1806 2931 
Q 1409 2931 1153 2665 
Q 897 2400 856 1978 
L 2731 1978 
z
" transform="scale(0.015625)"/>
      </defs>
      <use xlink:href="#ArialUnicodeMS-4c"/>
      <use xlink:href="#ArialUnicodeMS-52" x="55.615234"/>
      <use xlink:href="#ArialUnicodeMS-45" x="127.832031"/>
      <use xlink:href="#ArialUnicodeMS-46" x="194.53125"/>
      <use xlink:href="#ArialUnicodeMS-20" x="255.615234"/>
      <use xlink:href="#ArialUnicodeMS-53" x="283.398438"/>
      <use xlink:href="#ArialUnicodeMS-74" x="350.097656"/>
      <use xlink:href="#ArialUnicodeMS-61" x="377.880859"/>
      <use xlink:href="#ArialUnicodeMS-67" x="433.496094"/>
      <use xlink:href="#ArialUnicodeMS-65" x="489.111328"/>
     </g>
    </g>
   </g>
   <g id="matplotlib.axis_2">
    <g id="ytick_1">
     <g id="line2d_6">
      <path d="M 45.895938 296.823437 
L 495.245937 296.823437 
" clip-path="url(#p8e52d8b29c)" style="fill: none; stroke: #b0b0b0; stroke-opacity: 0.3; stroke-width: 0.8; stroke-linecap: square"/>
     </g>
     <g id="line2d_7">
      <defs>
       <path id="m6b080786aa" d="M 0 0 
L -3.5 0 
" style="stroke: #000000; stroke-width: 0.8"/>
      </defs>
      <g>
       <use xlink:href="#m6b080786aa" x="45.895938" y="296.823437" style="stroke: #000000; stroke-width: 0.8"/>
      </g>
     </g>
     <g id="text_7">
      <!-- 0.0 -->
      <g transform="translate(24.995938 300.402344) scale(0.1 -0.1)">
       <defs>
        <path id="ArialUnicodeMS-2e" d="M 1209 0 
L 569 0 
L 569 641 
L 1209 641 
L 1209 0 
z
" transform="scale(0.015625)"/>
       </defs>
       <use xlink:href="#ArialUnicodeMS-30"/>
       <use xlink:href="#ArialUnicodeMS-2e" x="55.615234"/>
       <use xlink:href="#ArialUnicodeMS-30" x="83.398438"/>
      </g>
     </g>
    </g>
    <g id="ytick_2">
     <g id="line2d_8">
      <path d="M 45.895938 260.270031 
L 495.245937 260.270031 
" clip-path="url(#p8e52d8b29c)" style="fill: none; stroke: #b0b0b0; stroke-opacity: 0.3; stroke-width: 0.8; stroke-linecap: square"/>
     </g>
     <g id="line2d_9">
      <g>
       <use xlink:href="#m6b080786aa" x="45.895938" y="260.270031" style="stroke: #000000; stroke-width: 0.8"/>
      </g>
     </g>
     <g id="text_8">
      <!-- 2.5 -->
      <g transform="translate(24.995938 263.848938) scale(0.1 -0.1)">
       <defs>
        <path id="ArialUnicodeMS-35" d="M 1013 2753 
Q 1431 3041 1881 3041 
Q 2453 3041 2878 2636 
Q 3303 2231 3303 1556 
Q 3303 875 2872 398 
Q 2441 -78 1741 -78 
Q 1169 -78 750 245 
Q 331 569 269 1203 
L 856 1247 
Q 928 813 1162 598 
Q 1397 384 1741 384 
Q 2169 384 2434 707 
Q 2700 1031 2700 1503 
Q 2700 1984 2428 2262 
Q 2156 2541 1728 2541 
Q 1188 2541 897 2100 
L 366 2163 
L 813 4519 
L 3084 4519 
L 3084 3975 
L 1259 3975 
L 1013 2753 
z
" transform="scale(0.015625)"/>
       </defs>
       <use xlink:href="#ArialUnicodeMS-32"/>
       <use xlink:href="#ArialUnicodeMS-2e" x="55.615234"/>
       <use xlink:href="#ArialUnicodeMS-35" x="83.398438"/>
      </g>
     </g>
    </g>
    <g id="ytick_3">
     <g id="line2d_10">
      <path d="M 45.895938 223.716625 
L 495.245937 223.716625 
" clip-path="url(#p8e52d8b29c)" style="fill: none; stroke: #b0b0b0; stroke-opacity: 0.3; stroke-width: 0.8; stroke-linecap: square"/>
     </g>
     <g id="line2d_11">
      <g>
       <use xlink:href="#m6b080786aa" x="45.895938" y="223.716625" style="stroke: #000000; stroke-width: 0.8"/>
      </g>
     </g>
     <g id="text_9">
      <!-- 5.0 -->
      <g transform="translate(24.995938 227.295532) scale(0.1 -0.1)">
       <use xlink:href="#ArialUnicodeMS-35"/>
       <use xlink:href="#ArialUnicodeMS-2e" x="55.615234"/>
       <use xlink:href="#ArialUnicodeMS-30" x="83.398438"/>
      </g>
     </g>
    </g>
    <g id="ytick_4">
     <g id="line2d_12">
      <path d="M 45.895938 187.163219 
L 495.245937 187.163219 
" clip-path="url(#p8e52d8b29c)" style="fill: none; stroke: #b0b0b0; stroke-opacity: 0.3; stroke-width: 0.8; stroke-linecap: square"/>
     </g>
     <g id="line2d_13">
      <g>
       <use xlink:href="#m6b080786aa" x="45.895938" y="187.163219" style="stroke: #000000; stroke-width: 0.8"/>
      </g>
     </g>
     <g id="text_10">
      <!-- 7.5 -->
      <g transform="translate(24.995938 190.742125) scale(0.1 -0.1)">
       <defs>
        <path id="ArialUnicodeMS-37" d="M 3272 4084 
Q 2597 3344 2103 2253 
Q 1609 1163 1522 0 
L 947 0 
Q 969 934 1408 2051 
Q 1847 3169 2547 3975 
L 306 3975 
L 306 4519 
L 3272 4519 
L 3272 4084 
z
" transform="scale(0.015625)"/>
       </defs>
       <use xlink:href="#ArialUnicodeMS-37"/>
       <use xlink:href="#ArialUnicodeMS-2e" x="55.615234"/>
       <use xlink:href="#ArialUnicodeMS-35" x="83.398438"/>
      </g>
     </g>
    </g>
    <g id="ytick_5">
     <g id="line2d_14">
      <path d="M 45.895938 150.609813 
L 495.245937 150.609813 
" clip-path="url(#p8e52d8b29c)" style="fill: none; stroke: #b0b0b0; stroke-opacity: 0.3; stroke-width: 0.8; stroke-linecap: square"/>
     </g>
     <g id="line2d_15">
      <g>
       <use xlink:href="#m6b080786aa" x="45.895938" y="150.609813" style="stroke: #000000; stroke-width: 0.8"/>
      </g>
     </g>
     <g id="text_11">
      <!-- 10.0 -->
      <g transform="translate(19.435 154.188719) scale(0.1 -0.1)">
       <use xlink:href="#ArialUnicodeMS-31"/>
       <use xlink:href="#ArialUnicodeMS-30" x="55.615234"/>
       <use xlink:href="#ArialUnicodeMS-2e" x="111.230469"/>
       <use xlink:href="#ArialUnicodeMS-30" x="139.013672"/>
      </g>
     </g>
    </g>
    <g id="ytick_6">
     <g id="line2d_16">
      <path d="M 45.895938 114.056407 
L 495.245937 114.056407 
" clip-path="url(#p8e52d8b29c)" style="fill: none; stroke: #b0b0b0; stroke-opacity: 0.3; stroke-width: 0.8; stroke-linecap: square"/>
     </g>
     <g id="line2d_17">
      <g>
       <use xlink:href="#m6b080786aa" x="45.895938" y="114.056407" style="stroke: #000000; stroke-width: 0.8"/>
      </g>
     </g>
     <g id="text_12">
      <!-- 12.5 -->
      <g transform="translate(19.435 117.635313) scale(0.1 -0.1)">
       <use xlink:href="#ArialUnicodeMS-31"/>
       <use xlink:href="#ArialUnicodeMS-32" x="55.615234"/>
       <use xlink:href="#ArialUnicodeMS-2e" x="111.230469"/>
       <use xlink:href="#ArialUnicodeMS-35" x="139.013672"/>
      </g>
     </g>
    </g>
    <g id="ytick_7">
     <g id="line2d_18">
      <path d="M 45.895938 77.503001 
L 495.245937 77.503001 
" clip-path="url(#p8e52d8b29c)" style="fill: none; stroke: #b0b0b0; stroke-opacity: 0.3; stroke-width: 0.8; stroke-linecap: square"/>
     </g>
     <g id="line2d_19">
      <g>
       <use xlink:href="#m6b080786aa" x="45.895938" y="77.503001" style="stroke: #000000; stroke-width: 0.8"/>
      </g>
     </g>
     <g id="text_13">
      <!-- 15.0 -->
      <g transform="translate(19.435 81.081907) scale(0.1 -0.1)">
       <use xlink:href="#ArialUnicodeMS-31"/>
       <use xlink:href="#ArialUnicodeMS-35" x="55.615234"/>
       <use xlink:href="#ArialUnicodeMS-2e" x="111.230469"/>
       <use xlink:href="#ArialUnicodeMS-30" x="139.013672"/>
      </g>
     </g>
    </g>
    <g id="ytick_8">
     <g id="line2d_20">
      <path d="M 45.895938 40.949595 
L 495.245937 40.949595 
" clip-path="url(#p8e52d8b29c)" style="fill: none; stroke: #b0b0b0; stroke-opacity: 0.3; stroke-width: 0.8; stroke-linecap: square"/>
     </g>
     <g id="line2d_21">
      <g>
       <use xlink:href="#m6b080786aa" x="45.895938" y="40.949595" style="stroke: #000000; stroke-width: 0.8"/>
      </g>
     </g>
     <g id="text_14">
      <!-- 17.5 -->
      <g transform="translate(19.435 44.528501) scale(0.1 -0.1)">
       <use xlink:href="#ArialUnicodeMS-31"/>
       <use xlink:href="#ArialUnicodeMS-37" x="55.615234"/>
       <use xlink:href="#ArialUnicodeMS-2e" x="111.230469"/>
       <use xlink:href="#ArialUnicodeMS-35" x="139.013672"/>
      </g>
     </g>
    </g>
    <g id="text_15">
     <!-- Count -->
     <g transform="translate(13.642031 170.658828) rotate(-90) scale(0.09 -0.09)">
      <defs>
       <path id="ArialUnicodeMS-43" d="M 4372 1453 
Q 4172 681 3673 301 
Q 3175 -78 2478 -78 
Q 1353 -78 839 626 
Q 325 1331 325 2322 
Q 325 3419 929 4039 
Q 1534 4659 2484 4659 
Q 3153 4659 3628 4318 
Q 4103 3978 4294 3322 
L 3700 3181 
Q 3550 3659 3244 3900 
Q 2938 4141 2478 4141 
Q 1728 4141 1340 3648 
Q 953 3156 953 2328 
Q 953 1372 1361 906 
Q 1769 441 2425 441 
Q 2963 441 3298 731 
Q 3634 1022 3769 1606 
L 4372 1453 
z
" transform="scale(0.015625)"/>
       <path id="ArialUnicodeMS-6f" d="M 1778 3391 
Q 2450 3391 2892 2953 
Q 3334 2516 3334 1709 
Q 3334 731 2856 326 
Q 2378 -78 1778 -78 
Q 1150 -78 687 337 
Q 225 753 225 1656 
Q 225 2531 672 2961 
Q 1119 3391 1778 3391 
z
M 1778 384 
Q 2259 384 2509 740 
Q 2759 1097 2759 1678 
Q 2759 2300 2476 2615 
Q 2194 2931 1778 2931 
Q 1350 2931 1075 2611 
Q 800 2291 800 1656 
Q 800 1025 1079 704 
Q 1359 384 1778 384 
z
" transform="scale(0.015625)"/>
       <path id="ArialUnicodeMS-75" d="M 3116 0 
L 2613 0 
L 2613 488 
L 2597 488 
Q 2216 -78 1556 -78 
Q 1209 -78 914 83 
Q 619 244 520 526 
Q 422 809 422 1259 
L 422 3316 
L 984 3316 
L 984 1478 
Q 984 1038 1026 847 
Q 1069 656 1247 532 
Q 1425 409 1672 409 
Q 1991 409 2272 629 
Q 2553 850 2553 1544 
L 2553 3316 
L 3116 3316 
L 3116 0 
z
" transform="scale(0.015625)"/>
       <path id="ArialUnicodeMS-6e" d="M 3138 0 
L 2572 0 
L 2572 2016 
Q 2572 2525 2389 2715 
Q 2206 2906 1881 2906 
Q 1631 2906 1407 2784 
Q 1184 2663 1090 2441 
Q 997 2219 997 1813 
L 997 0 
L 434 0 
L 434 3316 
L 941 3316 
L 941 2847 
L 953 2847 
Q 1131 3119 1392 3255 
Q 1653 3391 1997 3391 
Q 2259 3391 2515 3297 
Q 2772 3203 2917 3015 
Q 3063 2828 3100 2615 
Q 3138 2403 3138 2041 
L 3138 0 
z
" transform="scale(0.015625)"/>
      </defs>
      <use xlink:href="#ArialUnicodeMS-43"/>
      <use xlink:href="#ArialUnicodeMS-6f" x="72.216797"/>
      <use xlink:href="#ArialUnicodeMS-75" x="127.832031"/>
      <use xlink:href="#ArialUnicodeMS-6e" x="183.447266"/>
      <use xlink:href="#ArialUnicodeMS-74" x="239.0625"/>
     </g>
    </g>
   </g>
   <g id="patch_8">
    <path d="M 45.895938 296.823437 
L 45.895938 20.479687 
" style="fill: none; stroke: #000000; stroke-width: 0.8; stroke-linejoin: miter; stroke-linecap: square"/>
   </g>
   <g id="patch_9">
    <path d="M 495.245937 296.823437 
L 495.245937 20.479687 
" style="fill: none; stroke: #000000; stroke-width: 0.8; stroke-linejoin: miter; stroke-linecap: square"/>
   </g>
   <g id="patch_10">
    <path d="M 45.895938 296.823437 
L 495.245937 296.823437 
" style="fill: none; stroke: #000000; stroke-width: 0.8; stroke-linejoin: miter; stroke-linecap: square"/>
   </g>
   <g id="patch_11">
    <path d="M 45.895938 20.479687 
L 495.245937 20.479687 
" style="fill: none; stroke: #000000; stroke-width: 0.8; stroke-linejoin: miter; stroke-linecap: square"/>
   </g>
   <g id="text_16">
    <!-- 4 -->
    <g transform="translate(97.860182 236.875852) scale(0.09 -0.09)">
     <use xlink:href="#ArialUnicodeMS-34"/>
    </g>
   </g>
   <g id="text_17">
    <!-- 18 -->
    <g transform="translate(180.461927 32.176777) scale(0.09 -0.09)">
     <defs>
      <path id="ArialUnicodeMS-38" d="M 2425 2478 
Q 3284 2203 3284 1306 
Q 3284 716 2862 319 
Q 2441 -78 1778 -78 
Q 1109 -78 689 322 
Q 269 722 269 1325 
Q 269 1759 505 2084 
Q 741 2409 1141 2478 
L 1141 2491 
Q 453 2703 453 3419 
Q 453 3925 815 4264 
Q 1178 4603 1766 4603 
Q 2363 4603 2730 4253 
Q 3097 3903 3097 3406 
Q 3097 2731 2425 2491 
L 2425 2478 
z
M 1778 2700 
Q 2094 2700 2308 2901 
Q 2522 3103 2522 3406 
Q 2522 3716 2305 3928 
Q 2088 4141 1772 4141 
Q 1450 4141 1240 3931 
Q 1031 3722 1031 3438 
Q 1031 3097 1247 2898 
Q 1463 2700 1778 2700 
z
M 1778 384 
Q 2175 384 2440 640 
Q 2706 897 2706 1306 
Q 2706 1716 2432 1978 
Q 2159 2241 1766 2241 
Q 1356 2241 1100 1970 
Q 844 1700 844 1319 
Q 844 922 1108 653 
Q 1372 384 1778 384 
z
" transform="scale(0.015625)"/>
     </defs>
     <use xlink:href="#ArialUnicodeMS-31"/>
     <use xlink:href="#ArialUnicodeMS-38" x="55.615234"/>
    </g>
   </g>
   <g id="text_18">
    <!-- 2 -->
    <g transform="translate(268.068516 266.118576) scale(0.09 -0.09)">
     <use xlink:href="#ArialUnicodeMS-32"/>
    </g>
   </g>
   <g id="text_19">
    <!-- 5 -->
    <g transform="translate(353.172682 222.254489) scale(0.09 -0.09)">
     <use xlink:href="#ArialUnicodeMS-35"/>
    </g>
   </g>
   <g id="text_20">
    <!-- 1 -->
    <g transform="translate(438.276849 280.739939) scale(0.09 -0.09)">
     <use xlink:href="#ArialUnicodeMS-31"/>
    </g>
   </g>
   <g id="text_21">
    <!-- LREF Stage Distribution -->
    <g transform="translate(216.938125 14.479688) scale(0.1 -0.1)">
     <defs>
      <path id="ArialUnicodeMS-44" d="M 513 4581 
L 2094 4581 
Q 2509 4581 2809 4539 
Q 3109 4497 3382 4333 
Q 3656 4169 3861 3881 
Q 4066 3594 4183 3220 
Q 4300 2847 4300 2316 
Q 4300 1303 3819 651 
Q 3338 0 2163 0 
L 513 0 
L 513 4581 
z
M 1119 544 
L 2100 544 
Q 2400 544 2636 581 
Q 2872 619 3114 784 
Q 3356 950 3515 1328 
Q 3675 1706 3675 2328 
Q 3675 2672 3614 2970 
Q 3553 3269 3389 3514 
Q 3225 3759 3012 3873 
Q 2800 3988 2598 4013 
Q 2397 4038 2081 4038 
L 1119 4038 
L 1119 544 
z
" transform="scale(0.015625)"/>
      <path id="ArialUnicodeMS-69" d="M 991 0 
L 428 0 
L 428 3316 
L 991 3316 
L 991 0 
z
M 991 3944 
L 428 3944 
L 428 4581 
L 991 4581 
L 991 3944 
z
" transform="scale(0.015625)"/>
      <path id="ArialUnicodeMS-73" d="M 2278 2388 
Q 2241 2659 2058 2795 
Q 1875 2931 1550 2931 
Q 1228 2931 1029 2822 
Q 831 2713 831 2503 
Q 831 2306 989 2222 
Q 1147 2138 1613 2016 
Q 2138 1881 2398 1778 
Q 2659 1675 2804 1489 
Q 2950 1303 2950 972 
Q 2950 528 2587 225 
Q 2225 -78 1619 -78 
Q 988 -78 633 189 
Q 278 456 197 991 
L 756 1075 
Q 800 728 1014 556 
Q 1228 384 1613 384 
Q 1981 384 2178 539 
Q 2375 694 2375 916 
Q 2375 1066 2284 1156 
Q 2194 1247 2058 1292 
Q 1922 1338 1447 1453 
Q 741 1622 514 1862 
Q 288 2103 288 2438 
Q 288 2853 619 3122 
Q 950 3391 1509 3391 
Q 2103 3391 2433 3158 
Q 2763 2925 2828 2463 
L 2278 2388 
z
" transform="scale(0.015625)"/>
      <path id="ArialUnicodeMS-72" d="M 2216 3213 
L 2022 2694 
Q 1813 2816 1613 2816 
Q 1297 2816 1134 2533 
Q 972 2250 972 1741 
L 972 0 
L 409 0 
L 409 3316 
L 922 3316 
L 922 2816 
L 934 2816 
Q 1203 3391 1638 3391 
Q 1925 3391 2216 3213 
z
" transform="scale(0.015625)"/>
      <path id="ArialUnicodeMS-62" d="M 1006 2944 
Q 1319 3391 1900 3391 
Q 2541 3391 2925 2925 
Q 3309 2459 3309 1709 
Q 3309 844 2879 383 
Q 2450 -78 1875 -78 
Q 1291 -78 966 416 
L 953 416 
L 953 0 
L 428 0 
L 428 4581 
L 991 4581 
L 991 2944 
L 1006 2944 
z
M 1831 384 
Q 2222 384 2476 720 
Q 2731 1056 2731 1663 
Q 2731 2247 2497 2589 
Q 2263 2931 1850 2931 
Q 1444 2931 1195 2578 
Q 947 2225 947 1684 
Q 947 1156 1050 932 
Q 1153 709 1361 546 
Q 1569 384 1831 384 
z
" transform="scale(0.015625)"/>
     </defs>
     <use xlink:href="#ArialUnicodeMS-4c"/>
     <use xlink:href="#ArialUnicodeMS-52" x="55.615234"/>
     <use xlink:href="#ArialUnicodeMS-45" x="127.832031"/>
     <use xlink:href="#ArialUnicodeMS-46" x="194.53125"/>
     <use xlink:href="#ArialUnicodeMS-20" x="255.615234"/>
     <use xlink:href="#ArialUnicodeMS-53" x="283.398438"/>
     <use xlink:href="#ArialUnicodeMS-74" x="350.097656"/>
     <use xlink:href="#ArialUnicodeMS-61" x="377.880859"/>
     <use xlink:href="#ArialUnicodeMS-67" x="433.496094"/>
     <use xlink:href="#ArialUnicodeMS-65" x="489.111328"/>
     <use xlink:href="#ArialUnicodeMS-20" x="544.726562"/>
     <use xlink:href="#ArialUnicodeMS-44" x="572.509766"/>
     <use xlink:href="#ArialUnicodeMS-69" x="644.726562"/>
     <use xlink:href="#ArialUnicodeMS-73" x="666.943359"/>
     <use xlink:href="#ArialUnicodeMS-74" x="716.943359"/>
     <use xlink:href="#ArialUnicodeMS-72" x="744.726562"/>
     <use xlink:href="#ArialUnicodeMS-69" x="778.027344"/>
     <use xlink:href="#ArialUnicodeMS-62" x="800.244141"/>
     <use xlink:href="#ArialUnicodeMS-75" x="855.859375"/>
     <use xlink:href="#ArialUnicodeMS-74" x="911.474609"/>
     <use xlink:href="#ArialUnicodeMS-69" x="939.257812"/>
     <use xlink:href="#ArialUnicodeMS-6f" x="961.474609"/>
     <use xlink:href="#ArialUnicodeMS-6e" x="1017.089844"/>
    </g>
   </g>
  </g>
 </g>
 <defs>
  <clipPath id="p8e52d8b29c">
   <rect x="45.895938" y="20.479688" width="449.35" height="276.34375"/>
  </clipPath>
 </defs>
</svg>
