<?xml version="1.0" encoding="utf-8" standalone="no"?>
<!DOCTYPE svg PUBLIC "-//W3C//DTD SVG 1.1//EN"
  "http://www.w3.org/Graphics/SVG/1.1/DTD/svg11.dtd">
<svg xmlns:xlink="http://www.w3.org/1999/xlink" width="502.465pt" height="332.534687pt" viewBox="0 0 502.465 332.534687" xmlns="http://www.w3.org/2000/svg" version="1.1">
 <metadata>
  <rdf:RDF xmlns:dc="http://purl.org/dc/elements/1.1/" xmlns:cc="http://creativecommons.org/ns#" xmlns:rdf="http://www.w3.org/1999/02/22-rdf-syntax-ns#">
   <cc:Work>
    <dc:type rdf:resource="http://purl.org/dc/dcmitype/StillImage"/>
    <dc:date>2026-04-06T08:38:47.421147</dc:date>
    <dc:format>image/svg+xml</dc:format>
    <dc:creator>
     <cc:Agent>
      <dc:title>Matplotlib v3.7.5, https://matplotlib.org/</dc:title>
     </cc:Agent>
    </dc:creator>
   </cc:Work>
  </rdf:RDF>
 </metadata>
 <defs>
  <style type="text/css">*{stroke-linejoin: round; stroke-linecap: butt}</style>
 </defs>
 <g id="figure_1">
  <g id="patch_1">
   <path d="M 0 332.534687 
L 502.465 332.534687 
L 502.465 0 
L 0 0 
z
" style="fill: #ffffff"/>
  </g>
  <g id="axes_1">
   <g id="patch_2">
    <path d="M 40.335 307.865937 
L 495.265 307.865937 
L 495.265 20.479687 
L 40.335 20.479687 
z
" style="fill: #ffffff"/>
   </g>
   <g id="matplotlib.axis_1">
    <g id="xtick_1">
     <g id="line2d_1">
      <defs>
       <path id="mc858dab5c2" d="M 0 0 
L 0 3.5 
" style="stroke: #000000; stroke-width: 0.8"/>
      </defs>
      <g>
       <use xlink:href="#mc858dab5c2" x="116.156667" y="307.865937" style="stroke: #000000; stroke-width: 0.8"/>
      </g>
     </g>
     <g id="text_1">
      <!-- ASR 噪声 (N=8) -->
      <g transform="translate(80.455885 323.234687) scale(0.1 -0.1)">
       <defs>
        <path id="ArialUnicodeMS-41" d="M 4275 0 
L 3591 0 
L 3053 1394 
L 1141 1394 
L 634 0 
L -6 0 
L 1753 4581 
L 2406 4581 
L 4275 0 
z
M 2869 1875 
Q 2306 3363 2234 3564 
Q 2163 3766 2075 4103 
L 2059 4103 
Q 1972 3641 1825 3247 
L 1313 1875 
L 2869 1875 
z
" transform="scale(0.015625)"/>
        <path id="ArialUnicodeMS-53" d="M 3213 3238 
Q 3175 3675 2897 3895 
Q 2619 4116 2100 4116 
Q 1631 4116 1337 3941 
Q 1044 3766 1044 3431 
Q 1044 3134 1270 2989 
Q 1497 2844 2138 2700 
Q 2706 2575 3065 2444 
Q 3425 2313 3681 2036 
Q 3938 1759 3938 1294 
Q 3938 703 3467 312 
Q 2997 -78 2241 -78 
Q 1275 -78 795 353 
Q 316 784 288 1472 
L 863 1522 
Q 903 972 1287 720 
Q 1672 469 2216 469 
Q 2725 469 3039 678 
Q 3353 888 3353 1247 
Q 3353 1622 3025 1794 
Q 2697 1966 1923 2133 
Q 1150 2300 809 2603 
Q 469 2906 469 3391 
Q 469 3941 900 4300 
Q 1331 4659 2075 4659 
Q 2838 4659 3302 4301 
Q 3766 3944 3794 3284 
L 3213 3238 
z
" transform="scale(0.015625)"/>
        <path id="ArialUnicodeMS-52" d="M 4550 0 
L 3788 0 
Q 3103 1081 2937 1328 
Q 2772 1575 2589 1751 
Q 2406 1928 2245 1975 
Q 2084 2022 1819 2022 
L 1119 2022 
L 1119 0 
L 513 0 
L 513 4581 
L 2541 4581 
Q 2956 4581 3237 4528 
Q 3519 4475 3731 4304 
Q 3944 4134 4058 3875 
Q 4172 3616 4172 3328 
Q 4172 2809 3844 2493 
Q 3516 2178 2888 2094 
L 2888 2081 
Q 3347 1878 3750 1247 
L 4550 0 
z
M 1119 2566 
L 2419 2566 
Q 2813 2566 3042 2633 
Q 3272 2700 3409 2894 
Q 3547 3088 3547 3328 
Q 3547 3641 3319 3859 
Q 3091 4078 2566 4078 
L 1119 4078 
L 1119 2566 
z
" transform="scale(0.015625)"/>
        <path id="ArialUnicodeMS-20" transform="scale(0.015625)"/>
        <path id="ArialUnicodeMS-566a" d="M 5081 3669 
L 2631 3669 
L 2631 5069 
L 5081 5069 
L 5081 3669 
z
M 4575 4134 
L 4575 4628 
L 3116 4628 
L 3116 4134 
L 4575 4134 
z
M 1888 947 
L 1403 947 
L 1403 1300 
L 997 1300 
L 997 928 
L 513 928 
L 513 4609 
L 1888 4609 
L 1888 947 
z
M 1403 1784 
L 1403 4141 
L 997 4141 
L 997 1784 
L 1403 1784 
z
M 5594 2022 
L 3994 2022 
L 3994 3456 
L 5594 3456 
L 5594 2022 
z
M 5106 2438 
L 5106 2988 
L 4447 2988 
L 4447 2438 
L 5106 2438 
z
M 6106 306 
L 5784 -128 
Q 4472 363 4116 1131 
L 4116 -447 
L 3622 -447 
L 3622 1131 
Q 3184 294 1888 -178 
L 1544 256 
Q 2719 591 3144 1216 
L 1953 1216 
L 1953 1684 
L 3628 1684 
L 3628 1997 
L 2163 1997 
L 2163 3431 
L 3750 3431 
L 3750 1997 
L 4116 1997 
L 4116 1684 
L 5838 1684 
L 5838 1216 
L 4575 1216 
Q 5100 578 6106 306 
z
M 3297 2438 
L 3297 2988 
L 2619 2988 
L 2619 2438 
L 3297 2438 
z
" transform="scale(0.015625)"/>
        <path id="ArialUnicodeMS-58f0" d="M 5931 4244 
L 3475 4244 
L 3475 3872 
L 5472 3872 
L 5472 3406 
L 997 3406 
L 997 3872 
L 2988 3872 
L 2988 4244 
L 513 4244 
L 513 4709 
L 2988 4709 
L 2988 5356 
L 3475 5356 
L 3475 4709 
L 5931 4709 
L 5931 4244 
z
M 5344 1472 
L 1825 1472 
Q 1794 916 1486 400 
Q 1178 -116 647 -353 
L 300 13 
Q 763 238 1053 667 
Q 1344 1097 1344 1544 
L 1344 3138 
L 5344 3138 
L 5344 1472 
z
M 4856 1941 
L 4856 2669 
L 3603 2669 
L 3603 1941 
L 4856 1941 
z
M 3116 1941 
L 3116 2669 
L 1831 2669 
L 1831 1941 
L 3116 1941 
z
" transform="scale(0.015625)"/>
        <path id="ArialUnicodeMS-28" d="M 1900 -1344 
L 1497 -1344 
Q 978 -681 681 103 
Q 384 888 384 1656 
Q 384 2528 700 3275 
Q 1016 4022 1497 4659 
L 1900 4659 
Q 1344 3747 1155 3059 
Q 966 2372 966 1663 
Q 966 153 1900 -1344 
z
" transform="scale(0.015625)"/>
        <path id="ArialUnicodeMS-4e" d="M 4109 0 
L 3488 0 
L 1094 3597 
L 1081 3597 
L 1081 0 
L 506 0 
L 506 4581 
L 1125 4581 
L 3519 984 
L 3531 984 
L 3531 4581 
L 4109 4581 
L 4109 0 
z
" transform="scale(0.015625)"/>
        <path id="ArialUnicodeMS-3d" d="M 3384 2694 
L 353 2694 
L 353 3219 
L 3384 3219 
L 3384 2694 
z
M 3384 1300 
L 353 1300 
L 353 1825 
L 3384 1825 
L 3384 1300 
z
" transform="scale(0.015625)"/>
        <path id="ArialUnicodeMS-38" d="M 2425 2478 
Q 3284 2203 3284 1306 
Q 3284 716 2862 319 
Q 2441 -78 1778 -78 
Q 1109 -78 689 322 
Q 269 722 269 1325 
Q 269 1759 505 2084 
Q 741 2409 1141 2478 
L 1141 2491 
Q 453 2703 453 3419 
Q 453 3925 815 4264 
Q 1178 4603 1766 4603 
Q 2363 4603 2730 4253 
Q 3097 3903 3097 3406 
Q 3097 2731 2425 2491 
L 2425 2478 
z
M 1778 2700 
Q 2094 2700 2308 2901 
Q 2522 3103 2522 3406 
Q 2522 3716 2305 3928 
Q 2088 4141 1772 4141 
Q 1450 4141 1240 3931 
Q 1031 3722 1031 3438 
Q 1031 3097 1247 2898 
Q 1463 2700 1778 2700 
z
M 1778 384 
Q 2175 384 2440 640 
Q 2706 897 2706 1306 
Q 2706 1716 2432 1978 
Q 2159 2241 1766 2241 
Q 1356 2241 1100 1970 
Q 844 1700 844 1319 
Q 844 922 1108 653 
Q 1372 384 1778 384 
z
" transform="scale(0.015625)"/>
        <path id="ArialUnicodeMS-29" d="M 634 4659 
Q 1153 3997 1450 3212 
Q 1747 2428 1747 1656 
Q 1747 788 1431 41 
Q 1116 -706 634 -1344 
L 231 -1344 
Q 788 -431 977 255 
Q 1166 941 1166 1650 
Q 1166 3163 231 4659 
L 634 4659 
z
" transform="scale(0.015625)"/>
       </defs>
       <use xlink:href="#ArialUnicodeMS-41"/>
       <use xlink:href="#ArialUnicodeMS-53" x="66.699219"/>
       <use xlink:href="#ArialUnicodeMS-52" x="133.398438"/>
       <use xlink:href="#ArialUnicodeMS-20" x="205.615234"/>
       <use xlink:href="#ArialUnicodeMS-566a" x="233.398438"/>
       <use xlink:href="#ArialUnicodeMS-58f0" x="333.398438"/>
       <use xlink:href="#ArialUnicodeMS-20" x="433.398438"/>
       <use xlink:href="#ArialUnicodeMS-28" x="461.181641"/>
       <use xlink:href="#ArialUnicodeMS-4e" x="494.482422"/>
       <use xlink:href="#ArialUnicodeMS-3d" x="566.699219"/>
       <use xlink:href="#ArialUnicodeMS-38" x="625.097656"/>
       <use xlink:href="#ArialUnicodeMS-29" x="680.712891"/>
      </g>
     </g>
    </g>
    <g id="xtick_2">
     <g id="line2d_2">
      <g>
       <use xlink:href="#mc858dab5c2" x="267.8" y="307.865937" style="stroke: #000000; stroke-width: 0.8"/>
      </g>
     </g>
     <g id="text_2">
      <!-- 边界情况 (N=12) -->
      <g transform="translate(230.989062 323.234687) scale(0.1 -0.1)">
       <defs>
        <path id="ArialUnicodeMS-8fb9" d="M 5313 4056 
Q 5284 3438 5206 2703 
Q 5128 1969 5061 1462 
Q 4994 956 4858 825 
Q 4722 694 4592 642 
Q 4463 591 4259 591 
Q 4094 591 3775 616 
L 3603 1166 
Q 3994 1100 4188 1100 
Q 4447 1100 4494 1172 
Q 4541 1244 4655 2023 
Q 4769 2803 4819 3591 
L 3872 3591 
Q 3772 2244 3420 1637 
Q 3069 1031 2419 563 
L 2100 941 
Q 2769 1413 3061 2020 
Q 3353 2628 3384 3591 
L 2075 3591 
L 2075 4056 
L 3384 4056 
L 3384 5269 
L 3872 5269 
L 3872 4056 
L 5313 4056 
z
M 1772 4134 
L 1325 3822 
Q 959 4506 538 4850 
L 909 5147 
Q 1375 4722 1772 4134 
z
M 6009 341 
L 5850 -147 
L 3231 -147 
Q 2241 -147 1434 697 
L 603 -153 
L 213 244 
L 1234 1119 
L 1234 2747 
L 372 2747 
L 372 3213 
L 1691 3213 
L 1691 1106 
Q 1981 750 2398 534 
Q 2816 319 3175 301 
Q 3534 284 4122 284 
Q 4909 284 6009 341 
z
" transform="scale(0.015625)"/>
        <path id="ArialUnicodeMS-754c" d="M 6150 1409 
L 5831 947 
Q 4738 1266 4269 1716 
L 4269 -434 
L 3781 -434 
L 3781 1778 
L 4197 1778 
Q 3847 2100 3706 2450 
L 2797 2450 
Q 2306 1394 641 1013 
L 347 1453 
Q 1628 1694 2272 2450 
L 1306 2450 
L 1306 5006 
L 5166 5006 
L 5166 2450 
L 4238 2450 
Q 4800 1631 6150 1409 
z
M 4678 3988 
L 4678 4544 
L 3481 4544 
L 3481 3988 
L 4678 3988 
z
M 2994 3988 
L 2994 4544 
L 1791 4544 
L 1791 3988 
L 2994 3988 
z
M 4678 2913 
L 4678 3525 
L 3481 3525 
L 3481 2913 
L 4678 2913 
z
M 2994 2913 
L 2994 3525 
L 1791 3525 
L 1791 2913 
L 2994 2913 
z
M 2888 1759 
Q 2903 759 2456 232 
Q 2009 -294 1044 -447 
L 775 6 
Q 1647 94 2026 498 
Q 2406 903 2394 1759 
L 2888 1759 
z
" transform="scale(0.015625)"/>
        <path id="ArialUnicodeMS-60c5" d="M 6009 2944 
L 2291 2944 
L 1978 2828 
Q 1897 3128 1678 3506 
L 1678 -422 
L 1191 -422 
L 1191 5241 
L 1678 5241 
L 1678 3944 
L 1875 4044 
Q 2063 3806 2284 3406 
L 3744 3406 
L 3744 3719 
L 2591 3719 
L 2591 4178 
L 3744 4178 
L 3744 4453 
L 2322 4453 
L 2322 4916 
L 3744 4916 
L 3744 5356 
L 4231 5356 
L 4231 4916 
L 5691 4916 
L 5691 4453 
L 4231 4453 
L 4231 4178 
L 5381 4178 
L 5381 3719 
L 4231 3719 
L 4231 3406 
L 6009 3406 
L 6009 2944 
z
M 1056 3975 
Q 1047 3309 563 2456 
L 122 2688 
Q 616 3441 634 4128 
L 1056 3975 
z
M 5447 197 
Q 5447 -319 4781 -319 
L 4281 -319 
L 4097 141 
Q 4331 128 4469 128 
Q 4816 128 4891 167 
Q 4966 206 4966 594 
L 3078 594 
L 3078 -422 
L 2591 -422 
L 2591 2650 
L 5447 2650 
L 5447 197 
z
M 4959 1888 
L 4959 2188 
L 3078 2188 
L 3078 1888 
L 4959 1888 
z
M 4959 1056 
L 4959 1428 
L 3078 1428 
L 3078 1056 
L 4959 1056 
z
" transform="scale(0.015625)"/>
        <path id="ArialUnicodeMS-51b5" d="M 5972 1100 
Q 5891 500 5722 167 
Q 5553 -166 5147 -166 
L 4556 -166 
Q 4247 -138 4111 51 
Q 3975 241 3975 372 
L 3975 2406 
L 3566 2406 
Q 3566 209 1753 -459 
L 1434 0 
Q 2322 303 2686 861 
Q 3050 1419 3059 2406 
L 2309 2406 
L 2309 4850 
L 5247 4850 
L 5247 2406 
L 4459 2406 
L 4459 525 
Q 4459 300 4691 300 
L 5056 300 
Q 5253 300 5328 448 
Q 5403 597 5459 1325 
L 5972 1100 
z
M 4744 2875 
L 4744 4384 
L 2797 4384 
L 2797 2875 
L 4744 2875 
z
M 1856 3456 
L 1459 3116 
Q 1088 3916 281 4447 
L 622 4781 
Q 1059 4500 1415 4100 
Q 1772 3700 1856 3456 
z
M 1747 2350 
Q 1466 800 647 -172 
L 244 116 
Q 1031 1056 1338 2591 
L 1747 2350 
z
" transform="scale(0.015625)"/>
        <path id="ArialUnicodeMS-31" d="M 2400 0 
L 1838 0 
L 1838 3584 
Q 1416 3184 709 2906 
L 709 3450 
Q 1681 3916 2034 4603 
L 2400 4603 
L 2400 0 
z
" transform="scale(0.015625)"/>
        <path id="ArialUnicodeMS-32" d="M 3231 0 
L 197 0 
Q 197 388 467 784 
Q 738 1181 1478 1778 
Q 1931 2141 2287 2539 
Q 2644 2938 2644 3341 
Q 2644 3688 2398 3914 
Q 2153 4141 1778 4141 
Q 1400 4141 1144 3908 
Q 888 3675 884 3213 
L 306 3278 
Q 359 3922 764 4262 
Q 1169 4603 1791 4603 
Q 2466 4603 2842 4229 
Q 3219 3856 3219 3328 
Q 3219 2888 2901 2436 
Q 2584 1984 1638 1228 
Q 1141 831 978 544 
L 3231 544 
L 3231 0 
z
" transform="scale(0.015625)"/>
       </defs>
       <use xlink:href="#ArialUnicodeMS-8fb9"/>
       <use xlink:href="#ArialUnicodeMS-754c" x="100"/>
       <use xlink:href="#ArialUnicodeMS-60c5" x="200"/>
       <use xlink:href="#ArialUnicodeMS-51b5" x="300"/>
       <use xlink:href="#ArialUnicodeMS-20" x="400"/>
       <use xlink:href="#ArialUnicodeMS-28" x="427.783203"/>
       <use xlink:href="#ArialUnicodeMS-4e" x="461.083984"/>
       <use xlink:href="#ArialUnicodeMS-3d" x="533.300781"/>
       <use xlink:href="#ArialUnicodeMS-31" x="591.699219"/>
       <use xlink:href="#ArialUnicodeMS-32" x="647.314453"/>
       <use xlink:href="#ArialUnicodeMS-29" x="702.929688"/>
      </g>
     </g>
    </g>
    <g id="xtick_3">
     <g id="line2d_3">
      <g>
       <use xlink:href="#mc858dab5c2" x="419.443333" y="307.865937" style="stroke: #000000; stroke-width: 0.8"/>
      </g>
     </g>
     <g id="text_3">
      <!-- 对抗样本 (N=10) -->
      <g transform="translate(382.632396 323.176875) scale(0.1 -0.1)">
       <defs>
        <path id="ArialUnicodeMS-5bf9" d="M 5856 3616 
L 5247 3616 
L 5247 38 
Q 5206 -163 5042 -273 
Q 4878 -384 4806 -384 
L 4103 -384 
L 3944 103 
Q 4438 63 4678 63 
Q 4716 63 4763 134 
L 4763 3616 
L 2988 3616 
L 2988 4084 
L 4763 4084 
L 4763 5306 
L 5247 5306 
L 5247 4084 
L 5856 4084 
L 5856 3616 
z
M 3175 366 
L 2694 153 
Q 2422 1059 2100 1538 
Q 1609 353 525 -384 
L 153 -13 
Q 1288 719 1813 1984 
Q 1306 2706 628 3256 
L 984 3541 
Q 1794 2828 2009 2497 
Q 2341 3403 2381 4116 
L 359 4116 
L 359 4556 
L 2869 4556 
Q 2844 3303 2328 2028 
Q 2866 1222 3175 366 
z
M 4441 1453 
L 3988 1178 
Q 3663 2072 3091 2700 
L 3444 2950 
Q 4084 2334 4441 1453 
z
" transform="scale(0.015625)"/>
        <path id="ArialUnicodeMS-6297" d="M 5813 3916 
L 2553 3916 
L 2553 3525 
L 1850 3525 
L 1850 2419 
L 2606 2688 
L 2606 2203 
L 1850 1919 
L 1850 134 
Q 1822 -138 1656 -269 
Q 1491 -400 1127 -392 
Q 763 -384 628 -391 
L 475 84 
Q 816 56 1028 56 
Q 1344 56 1344 219 
L 1344 1759 
L 513 1459 
L 294 1900 
Q 1194 2188 1344 2247 
L 1344 3525 
L 475 3525 
L 475 3994 
L 1344 3994 
L 1344 5306 
L 1850 5306 
L 1850 3994 
L 2394 3994 
L 2394 4384 
L 3859 4384 
L 3859 5259 
L 4347 5259 
L 4347 4384 
L 5813 4384 
L 5813 3916 
z
M 6138 872 
Q 6000 47 5811 -120 
Q 5622 -288 5281 -288 
Q 4556 -288 4556 269 
L 4556 2625 
L 3450 2625 
L 3450 1722 
Q 3450 913 3167 428 
Q 2884 -56 2297 -359 
L 1966 38 
Q 2453 247 2711 656 
Q 2969 1066 2969 1900 
L 2969 3091 
L 5044 3091 
L 5044 341 
Q 5044 178 5288 178 
Q 5456 178 5522 333 
Q 5588 488 5644 1081 
L 6138 872 
z
" transform="scale(0.015625)"/>
        <path id="ArialUnicodeMS-6837" d="M 2619 2009 
L 2156 1778 
Q 2047 2303 1722 2688 
L 1722 -391 
L 1234 -391 
L 1234 2497 
L 1228 2497 
Q 941 1550 459 1031 
L 109 1356 
Q 925 2313 1178 3634 
L 397 3634 
L 397 4103 
L 1234 4103 
L 1234 5319 
L 1722 5319 
L 1722 4103 
L 2309 4103 
L 2309 3634 
L 1722 3634 
L 1722 3066 
L 1906 3181 
Q 2403 2669 2619 2009 
z
M 5913 1203 
L 4319 1203 
L 4319 -391 
L 3859 -391 
L 3859 1203 
L 2209 1203 
L 2209 1672 
L 3859 1672 
L 3859 2356 
L 2631 2356 
L 2631 2822 
L 3859 2822 
L 3859 3513 
L 2472 3513 
L 2472 3981 
L 3450 3981 
Q 3288 4406 2688 4991 
L 3047 5247 
Q 3613 4788 3916 4172 
L 3622 3988 
L 3622 3981 
L 4494 3981 
L 4494 3988 
L 4153 4166 
Q 4694 4578 4953 5269 
L 5356 5031 
Q 5078 4334 4678 3981 
L 5766 3981 
L 5766 3513 
L 4319 3513 
L 4319 2822 
L 5600 2822 
L 5600 2356 
L 4319 2356 
L 4319 1672 
L 5913 1672 
L 5913 1203 
z
" transform="scale(0.015625)"/>
        <path id="ArialUnicodeMS-672c" d="M 6113 1184 
L 5766 775 
Q 5031 1316 4457 1961 
Q 3884 2606 3444 3922 
L 3444 1613 
L 4678 1613 
L 4678 1147 
L 3444 1147 
L 3444 -428 
L 2956 -428 
L 2956 1147 
L 1728 1147 
L 1728 1613 
L 2950 1613 
L 2950 3872 
Q 2413 2063 659 744 
L 263 1125 
Q 1884 2178 2419 3822 
L 641 3822 
L 641 4288 
L 2956 4288 
L 2956 5294 
L 3444 5294 
L 3444 4288 
L 5728 4288 
L 5728 3822 
L 4019 3822 
Q 4450 2203 6113 1184 
z
" transform="scale(0.015625)"/>
        <path id="ArialUnicodeMS-30" d="M 1778 4603 
Q 3272 4603 3272 2259 
Q 3272 1075 2886 498 
Q 2500 -78 1778 -78 
Q 288 -78 288 2259 
Q 288 3444 673 4023 
Q 1059 4603 1778 4603 
z
M 1778 384 
Q 2231 384 2462 823 
Q 2694 1263 2694 2259 
Q 2694 2953 2592 3351 
Q 2491 3750 2286 3945 
Q 2081 4141 1772 4141 
Q 1319 4141 1091 3694 
Q 863 3247 863 2259 
Q 863 1575 966 1175 
Q 1069 775 1272 579 
Q 1475 384 1778 384 
z
" transform="scale(0.015625)"/>
       </defs>
       <use xlink:href="#ArialUnicodeMS-5bf9"/>
       <use xlink:href="#ArialUnicodeMS-6297" x="100"/>
       <use xlink:href="#ArialUnicodeMS-6837" x="200"/>
       <use xlink:href="#ArialUnicodeMS-672c" x="300"/>
       <use xlink:href="#ArialUnicodeMS-20" x="400"/>
       <use xlink:href="#ArialUnicodeMS-28" x="427.783203"/>
       <use xlink:href="#ArialUnicodeMS-4e" x="461.083984"/>
       <use xlink:href="#ArialUnicodeMS-3d" x="533.300781"/>
       <use xlink:href="#ArialUnicodeMS-31" x="591.699219"/>
       <use xlink:href="#ArialUnicodeMS-30" x="647.314453"/>
       <use xlink:href="#ArialUnicodeMS-29" x="702.929688"/>
      </g>
     </g>
    </g>
   </g>
   <g id="matplotlib.axis_2">
    <g id="ytick_1">
     <g id="line2d_4">
      <path d="M 40.335 307.865937 
L 495.265 307.865937 
" clip-path="url(#p380457cb38)" style="fill: none; stroke: #b0b0b0; stroke-opacity: 0.3; stroke-width: 0.8; stroke-linecap: square"/>
     </g>
     <g id="line2d_5">
      <defs>
       <path id="m5e7e510347" d="M 0 0 
L -3.5 0 
" style="stroke: #000000; stroke-width: 0.8"/>
      </defs>
      <g>
       <use xlink:href="#m5e7e510347" x="40.335" y="307.865937" style="stroke: #000000; stroke-width: 0.8"/>
      </g>
     </g>
     <g id="text_4">
      <!-- 0.0 -->
      <g transform="translate(19.435 311.444844) scale(0.1 -0.1)">
       <defs>
        <path id="ArialUnicodeMS-2e" d="M 1209 0 
L 569 0 
L 569 641 
L 1209 641 
L 1209 0 
z
" transform="scale(0.015625)"/>
       </defs>
       <use xlink:href="#ArialUnicodeMS-30"/>
       <use xlink:href="#ArialUnicodeMS-2e" x="55.615234"/>
       <use xlink:href="#ArialUnicodeMS-30" x="83.398438"/>
      </g>
     </g>
    </g>
    <g id="ytick_2">
     <g id="line2d_6">
      <path d="M 40.335 271.942656 
L 495.265 271.942656 
" clip-path="url(#p380457cb38)" style="fill: none; stroke: #b0b0b0; stroke-opacity: 0.3; stroke-width: 0.8; stroke-linecap: square"/>
     </g>
     <g id="line2d_7">
      <g>
       <use xlink:href="#m5e7e510347" x="40.335" y="271.942656" style="stroke: #000000; stroke-width: 0.8"/>
      </g>
     </g>
     <g id="text_5">
      <!-- 0.5 -->
      <g transform="translate(19.435 275.521562) scale(0.1 -0.1)">
       <defs>
        <path id="ArialUnicodeMS-35" d="M 1013 2753 
Q 1431 3041 1881 3041 
Q 2453 3041 2878 2636 
Q 3303 2231 3303 1556 
Q 3303 875 2872 398 
Q 2441 -78 1741 -78 
Q 1169 -78 750 245 
Q 331 569 269 1203 
L 856 1247 
Q 928 813 1162 598 
Q 1397 384 1741 384 
Q 2169 384 2434 707 
Q 2700 1031 2700 1503 
Q 2700 1984 2428 2262 
Q 2156 2541 1728 2541 
Q 1188 2541 897 2100 
L 366 2163 
L 813 4519 
L 3084 4519 
L 3084 3975 
L 1259 3975 
L 1013 2753 
z
" transform="scale(0.015625)"/>
       </defs>
       <use xlink:href="#ArialUnicodeMS-30"/>
       <use xlink:href="#ArialUnicodeMS-2e" x="55.615234"/>
       <use xlink:href="#ArialUnicodeMS-35" x="83.398438"/>
      </g>
     </g>
    </g>
    <g id="ytick_3">
     <g id="line2d_8">
      <path d="M 40.335 236.019375 
L 495.265 236.019375 
" clip-path="url(#p380457cb38)" style="fill: none; stroke: #b0b0b0; stroke-opacity: 0.3; stroke-width: 0.8; stroke-linecap: square"/>
     </g>
     <g id="line2d_9">
      <g>
       <use xlink:href="#m5e7e510347" x="40.335" y="236.019375" style="stroke: #000000; stroke-width: 0.8"/>
      </g>
     </g>
     <g id="text_6">
      <!-- 1.0 -->
      <g transform="translate(19.435 239.598281) scale(0.1 -0.1)">
       <use xlink:href="#ArialUnicodeMS-31"/>
       <use xlink:href="#ArialUnicodeMS-2e" x="55.615234"/>
       <use xlink:href="#ArialUnicodeMS-30" x="83.398438"/>
      </g>
     </g>
    </g>
    <g id="ytick_4">
     <g id="line2d_10">
      <path d="M 40.335 200.096094 
L 495.265 200.096094 
" clip-path="url(#p380457cb38)" style="fill: none; stroke: #b0b0b0; stroke-opacity: 0.3; stroke-width: 0.8; stroke-linecap: square"/>
     </g>
     <g id="line2d_11">
      <g>
       <use xlink:href="#m5e7e510347" x="40.335" y="200.096094" style="stroke: #000000; stroke-width: 0.8"/>
      </g>
     </g>
     <g id="text_7">
      <!-- 1.5 -->
      <g transform="translate(19.435 203.675) scale(0.1 -0.1)">
       <use xlink:href="#ArialUnicodeMS-31"/>
       <use xlink:href="#ArialUnicodeMS-2e" x="55.615234"/>
       <use xlink:href="#ArialUnicodeMS-35" x="83.398438"/>
      </g>
     </g>
    </g>
    <g id="ytick_5">
     <g id="line2d_12">
      <path d="M 40.335 164.172812 
L 495.265 164.172812 
" clip-path="url(#p380457cb38)" style="fill: none; stroke: #b0b0b0; stroke-opacity: 0.3; stroke-width: 0.8; stroke-linecap: square"/>
     </g>
     <g id="line2d_13">
      <g>
       <use xlink:href="#m5e7e510347" x="40.335" y="164.172812" style="stroke: #000000; stroke-width: 0.8"/>
      </g>
     </g>
     <g id="text_8">
      <!-- 2.0 -->
      <g transform="translate(19.435 167.751719) scale(0.1 -0.1)">
       <use xlink:href="#ArialUnicodeMS-32"/>
       <use xlink:href="#ArialUnicodeMS-2e" x="55.615234"/>
       <use xlink:href="#ArialUnicodeMS-30" x="83.398438"/>
      </g>
     </g>
    </g>
    <g id="ytick_6">
     <g id="line2d_14">
      <path d="M 40.335 128.249531 
L 495.265 128.249531 
" clip-path="url(#p380457cb38)" style="fill: none; stroke: #b0b0b0; stroke-opacity: 0.3; stroke-width: 0.8; stroke-linecap: square"/>
     </g>
     <g id="line2d_15">
      <g>
       <use xlink:href="#m5e7e510347" x="40.335" y="128.249531" style="stroke: #000000; stroke-width: 0.8"/>
      </g>
     </g>
     <g id="text_9">
      <!-- 2.5 -->
      <g transform="translate(19.435 131.828437) scale(0.1 -0.1)">
       <use xlink:href="#ArialUnicodeMS-32"/>
       <use xlink:href="#ArialUnicodeMS-2e" x="55.615234"/>
       <use xlink:href="#ArialUnicodeMS-35" x="83.398438"/>
      </g>
     </g>
    </g>
    <g id="ytick_7">
     <g id="line2d_16">
      <path d="M 40.335 92.32625 
L 495.265 92.32625 
" clip-path="url(#p380457cb38)" style="fill: none; stroke: #b0b0b0; stroke-opacity: 0.3; stroke-width: 0.8; stroke-linecap: square"/>
     </g>
     <g id="line2d_17">
      <g>
       <use xlink:href="#m5e7e510347" x="40.335" y="92.32625" style="stroke: #000000; stroke-width: 0.8"/>
      </g>
     </g>
     <g id="text_10">
      <!-- 3.0 -->
      <g transform="translate(19.435 95.905156) scale(0.1 -0.1)">
       <defs>
        <path id="ArialUnicodeMS-33" d="M 2425 2478 
Q 2850 2397 3067 2067 
Q 3284 1738 3284 1350 
Q 3284 725 2829 323 
Q 2375 -78 1741 -78 
Q 1134 -78 740 275 
Q 347 628 281 1209 
L 844 1288 
Q 928 834 1151 609 
Q 1375 384 1741 384 
Q 2134 384 2407 661 
Q 2681 938 2681 1338 
Q 2681 1722 2432 1975 
Q 2184 2228 1784 2228 
Q 1622 2228 1388 2169 
L 1453 2663 
Q 1678 2663 1809 2684 
Q 1941 2706 2103 2790 
Q 2266 2875 2372 3033 
Q 2478 3191 2478 3425 
Q 2478 3766 2251 3953 
Q 2025 4141 1728 4141 
Q 1388 4141 1173 3925 
Q 959 3709 903 3309 
L 341 3413 
Q 450 4009 823 4306 
Q 1197 4603 1716 4603 
Q 2288 4603 2670 4258 
Q 3053 3913 3053 3413 
Q 3053 2772 2425 2491 
L 2425 2478 
z
" transform="scale(0.015625)"/>
       </defs>
       <use xlink:href="#ArialUnicodeMS-33"/>
       <use xlink:href="#ArialUnicodeMS-2e" x="55.615234"/>
       <use xlink:href="#ArialUnicodeMS-30" x="83.398438"/>
      </g>
     </g>
    </g>
    <g id="ytick_8">
     <g id="line2d_18">
      <path d="M 40.335 56.402969 
L 495.265 56.402969 
" clip-path="url(#p380457cb38)" style="fill: none; stroke: #b0b0b0; stroke-opacity: 0.3; stroke-width: 0.8; stroke-linecap: square"/>
     </g>
     <g id="line2d_19">
      <g>
       <use xlink:href="#m5e7e510347" x="40.335" y="56.402969" style="stroke: #000000; stroke-width: 0.8"/>
      </g>
     </g>
     <g id="text_11">
      <!-- 3.5 -->
      <g transform="translate(19.435 59.981875) scale(0.1 -0.1)">
       <use xlink:href="#ArialUnicodeMS-33"/>
       <use xlink:href="#ArialUnicodeMS-2e" x="55.615234"/>
       <use xlink:href="#ArialUnicodeMS-35" x="83.398438"/>
      </g>
     </g>
    </g>
    <g id="ytick_9">
     <g id="line2d_20">
      <path d="M 40.335 20.479687 
L 495.265 20.479687 
" clip-path="url(#p380457cb38)" style="fill: none; stroke: #b0b0b0; stroke-opacity: 0.3; stroke-width: 0.8; stroke-linecap: square"/>
     </g>
     <g id="line2d_21">
      <g>
       <use xlink:href="#m5e7e510347" x="40.335" y="20.479687" style="stroke: #000000; stroke-width: 0.8"/>
      </g>
     </g>
     <g id="text_12">
      <!-- 4.0 -->
      <g transform="translate(19.435 24.058594) scale(0.1 -0.1)">
       <defs>
        <path id="ArialUnicodeMS-34" d="M 3263 1094 
L 2644 1094 
L 2644 0 
L 2081 0 
L 2081 1094 
L 97 1094 
L 97 1613 
L 2181 4581 
L 2644 4581 
L 2644 1613 
L 3263 1613 
L 3263 1094 
z
M 2081 1613 
L 2081 3681 
L 2069 3681 
L 647 1613 
L 2081 1613 
z
" transform="scale(0.015625)"/>
       </defs>
       <use xlink:href="#ArialUnicodeMS-34"/>
       <use xlink:href="#ArialUnicodeMS-2e" x="55.615234"/>
       <use xlink:href="#ArialUnicodeMS-30" x="83.398438"/>
      </g>
     </g>
    </g>
    <g id="text_13">
     <!-- L0 Score -->
     <g transform="translate(13.642031 182.182656) rotate(-90) scale(0.09 -0.09)">
      <defs>
       <path id="ArialUnicodeMS-4c" d="M 3347 0 
L 481 0 
L 481 4581 
L 1088 4581 
L 1088 544 
L 3347 544 
L 3347 0 
z
" transform="scale(0.015625)"/>
       <path id="ArialUnicodeMS-63" d="M 3144 1147 
Q 3034 513 2643 217 
Q 2253 -78 1759 -78 
Q 1038 -78 644 395 
Q 250 869 250 1650 
Q 250 2297 476 2686 
Q 703 3075 1043 3233 
Q 1384 3391 1759 3391 
Q 2272 3391 2636 3125 
Q 3000 2859 3084 2344 
L 2541 2259 
Q 2456 2594 2267 2762 
Q 2078 2931 1784 2931 
Q 1313 2931 1069 2597 
Q 825 2263 825 1663 
Q 825 1050 1064 717 
Q 1303 384 1753 384 
Q 2116 384 2323 592 
Q 2531 800 2584 1216 
L 3144 1147 
z
" transform="scale(0.015625)"/>
       <path id="ArialUnicodeMS-6f" d="M 1778 3391 
Q 2450 3391 2892 2953 
Q 3334 2516 3334 1709 
Q 3334 731 2856 326 
Q 2378 -78 1778 -78 
Q 1150 -78 687 337 
Q 225 753 225 1656 
Q 225 2531 672 2961 
Q 1119 3391 1778 3391 
z
M 1778 384 
Q 2259 384 2509 740 
Q 2759 1097 2759 1678 
Q 2759 2300 2476 2615 
Q 2194 2931 1778 2931 
Q 1350 2931 1075 2611 
Q 800 2291 800 1656 
Q 800 1025 1079 704 
Q 1359 384 1778 384 
z
" transform="scale(0.015625)"/>
       <path id="ArialUnicodeMS-72" d="M 2216 3213 
L 2022 2694 
Q 1813 2816 1613 2816 
Q 1297 2816 1134 2533 
Q 972 2250 972 1741 
L 972 0 
L 409 0 
L 409 3316 
L 922 3316 
L 922 2816 
L 934 2816 
Q 1203 3391 1638 3391 
Q 1925 3391 2216 3213 
z
" transform="scale(0.015625)"/>
       <path id="ArialUnicodeMS-65" d="M 3309 1516 
L 825 1516 
Q 859 966 1139 675 
Q 1419 384 1838 384 
Q 2159 384 2378 554 
Q 2597 725 2713 1069 
L 3291 997 
Q 3150 478 2775 200 
Q 2400 -78 1838 -78 
Q 1091 -78 670 380 
Q 250 838 250 1631 
Q 250 2416 658 2903 
Q 1066 3391 1806 3391 
Q 2169 3391 2505 3231 
Q 2841 3072 3075 2689 
Q 3309 2306 3309 1516 
z
M 2731 1978 
Q 2697 2484 2417 2707 
Q 2138 2931 1806 2931 
Q 1409 2931 1153 2665 
Q 897 2400 856 1978 
L 2731 1978 
z
" transform="scale(0.015625)"/>
      </defs>
      <use xlink:href="#ArialUnicodeMS-4c"/>
      <use xlink:href="#ArialUnicodeMS-30" x="55.615234"/>
      <use xlink:href="#ArialUnicodeMS-20" x="111.230469"/>
      <use xlink:href="#ArialUnicodeMS-53" x="139.013672"/>
      <use xlink:href="#ArialUnicodeMS-63" x="205.712891"/>
      <use xlink:href="#ArialUnicodeMS-6f" x="255.712891"/>
      <use xlink:href="#ArialUnicodeMS-72" x="311.328125"/>
      <use xlink:href="#ArialUnicodeMS-65" x="344.628906"/>
     </g>
    </g>
   </g>
   <g id="patch_3">
    <path d="M 93.410167 95.379729 
L 138.903167 95.379729 
L 138.903167 92.32625 
L 93.410167 92.32625 
L 93.410167 95.379729 
z
" clip-path="url(#p380457cb38)" style="fill: #0ea5e9; opacity: 0.6; stroke: #000000; stroke-linejoin: miter"/>
   </g>
   <g id="line2d_22">
    <path d="M 116.156667 95.379729 
L 116.156667 95.379729 
" clip-path="url(#p380457cb38)" style="fill: none; stroke: #000000; stroke-width: 1.5; stroke-linecap: square"/>
   </g>
   <g id="line2d_23">
    <path d="M 116.156667 92.32625 
L 116.156667 92.32625 
" clip-path="url(#p380457cb38)" style="fill: none; stroke: #000000; stroke-width: 1.5; stroke-linecap: square"/>
   </g>
   <g id="line2d_24">
    <path d="M 104.783417 95.379729 
L 127.529917 95.379729 
" clip-path="url(#p380457cb38)" style="fill: none; stroke: #000000; stroke-width: 1.5; stroke-linecap: square"/>
   </g>
   <g id="line2d_25">
    <path d="M 104.783417 92.32625 
L 127.529917 92.32625 
" clip-path="url(#p380457cb38)" style="fill: none; stroke: #000000; stroke-width: 1.5; stroke-linecap: square"/>
   </g>
   <g id="line2d_26">
    <defs>
     <path id="m569cdd9c09" d="M 0 3 
C 0.795609 3 1.55874 2.683901 2.12132 2.12132 
C 2.683901 1.55874 3 0.795609 3 0 
C 3 -0.795609 2.683901 -1.55874 2.12132 -2.12132 
C 1.55874 -2.683901 0.795609 -3 0 -3 
C -0.795609 -3 -1.55874 -2.683901 -2.12132 -2.12132 
C -2.683901 -1.55874 -3 -0.795609 -3 0 
C -3 0.795609 -2.683901 1.55874 -2.12132 2.12132 
C -1.55874 2.683901 -0.795609 3 0 3 
z
" style="stroke: #000000"/>
    </defs>
    <g clip-path="url(#p380457cb38)">
     <use xlink:href="#m569cdd9c09" x="116.156667" y="104.540166" style="fill-opacity: 0; stroke: #000000"/>
     <use xlink:href="#m569cdd9c09" x="116.156667" y="104.540166" style="fill-opacity: 0; stroke: #000000"/>
     <use xlink:href="#m569cdd9c09" x="116.156667" y="86.578525" style="fill-opacity: 0; stroke: #000000"/>
    </g>
   </g>
   <g id="patch_4">
    <path d="M 245.0535 231.708581 
L 290.5465 231.708581 
L 290.5465 116.035616 
L 245.0535 116.035616 
L 245.0535 231.708581 
z
" clip-path="url(#p380457cb38)" style="fill: #0ea5e9; opacity: 0.6; stroke: #000000; stroke-linejoin: miter"/>
   </g>
   <g id="line2d_27">
    <path d="M 267.8 231.708581 
L 267.8 307.865937 
" clip-path="url(#p380457cb38)" style="fill: none; stroke: #000000; stroke-width: 1.5; stroke-linecap: square"/>
   </g>
   <g id="line2d_28">
    <path d="M 267.8 116.035616 
L 267.8 68.616884 
" clip-path="url(#p380457cb38)" style="fill: none; stroke: #000000; stroke-width: 1.5; stroke-linecap: square"/>
   </g>
   <g id="line2d_29">
    <path d="M 256.42675 307.865937 
L 279.17325 307.865937 
" clip-path="url(#p380457cb38)" style="fill: none; stroke: #000000; stroke-width: 1.5; stroke-linecap: square"/>
   </g>
   <g id="line2d_30">
    <path d="M 256.42675 68.616884 
L 279.17325 68.616884 
" clip-path="url(#p380457cb38)" style="fill: none; stroke: #000000; stroke-width: 1.5; stroke-linecap: square"/>
   </g>
   <g id="line2d_31"/>
   <g id="patch_5">
    <path d="M 396.696833 122.501806 
L 442.189833 122.501806 
L 442.189833 113.34137 
L 396.696833 113.34137 
L 396.696833 122.501806 
z
" clip-path="url(#p380457cb38)" style="fill: #0ea5e9; opacity: 0.6; stroke: #000000; stroke-linejoin: miter"/>
   </g>
   <g id="line2d_32">
    <path d="M 419.443333 122.501806 
L 419.443333 133.997256 
" clip-path="url(#p380457cb38)" style="fill: none; stroke: #000000; stroke-width: 1.5; stroke-linecap: square"/>
   </g>
   <g id="line2d_33">
    <path d="M 419.443333 113.34137 
L 419.443333 104.540166 
" clip-path="url(#p380457cb38)" style="fill: none; stroke: #000000; stroke-width: 1.5; stroke-linecap: square"/>
   </g>
   <g id="line2d_34">
    <path d="M 408.070083 133.997256 
L 430.816583 133.997256 
" clip-path="url(#p380457cb38)" style="fill: none; stroke: #000000; stroke-width: 1.5; stroke-linecap: square"/>
   </g>
   <g id="line2d_35">
    <path d="M 408.070083 104.540166 
L 430.816583 104.540166 
" clip-path="url(#p380457cb38)" style="fill: none; stroke: #000000; stroke-width: 1.5; stroke-linecap: square"/>
   </g>
   <g id="line2d_36">
    <g clip-path="url(#p380457cb38)">
     <use xlink:href="#m569cdd9c09" x="419.443333" y="140.463447" style="fill-opacity: 0; stroke: #000000"/>
     <use xlink:href="#m569cdd9c09" x="419.443333" y="98.073975" style="fill-opacity: 0; stroke: #000000"/>
    </g>
   </g>
   <g id="line2d_37">
    <path d="M 93.410167 92.32625 
L 138.903167 92.32625 
" clip-path="url(#p380457cb38)" style="fill: none; stroke: #ff0000; stroke-width: 2; stroke-linecap: square"/>
   </g>
   <g id="line2d_38">
    <path d="M 245.0535 134.356489 
L 290.5465 134.356489 
" clip-path="url(#p380457cb38)" style="fill: none; stroke: #ff0000; stroke-width: 2; stroke-linecap: square"/>
   </g>
   <g id="line2d_39">
    <path d="M 396.696833 122.501806 
L 442.189833 122.501806 
" clip-path="url(#p380457cb38)" style="fill: none; stroke: #ff0000; stroke-width: 2; stroke-linecap: square"/>
   </g>
   <g id="patch_6">
    <path d="M 40.335 307.865937 
L 40.335 20.479687 
" style="fill: none; stroke: #000000; stroke-width: 0.8; stroke-linejoin: miter; stroke-linecap: square"/>
   </g>
   <g id="patch_7">
    <path d="M 495.265 307.865937 
L 495.265 20.479687 
" style="fill: none; stroke: #000000; stroke-width: 0.8; stroke-linejoin: miter; stroke-linecap: square"/>
   </g>
   <g id="patch_8">
    <path d="M 40.335 307.865937 
L 495.265 307.865937 
" style="fill: none; stroke: #000000; stroke-width: 0.8; stroke-linejoin: miter; stroke-linecap: square"/>
   </g>
   <g id="patch_9">
    <path d="M 40.335 20.479687 
L 495.265 20.479687 
" style="fill: none; stroke: #000000; stroke-width: 0.8; stroke-linejoin: miter; stroke-linecap: square"/>
   </g>
   <g id="text_14">
    <!-- μ=2.97 -->
    <g transform="translate(103.822917 87.476607) scale(0.08 -0.08)">
     <defs>
      <path id="ArialUnicodeMS-3bc" d="M 3116 0 
L 2613 0 
L 2613 488 
L 2597 488 
Q 2394 206 2186 64 
Q 1978 -78 1716 -78 
Q 1503 -78 1300 33 
Q 1097 144 984 319 
L 984 -1275 
L 422 -1275 
L 422 3316 
L 984 3316 
L 984 1338 
Q 984 878 1136 643 
Q 1288 409 1672 409 
Q 2050 409 2301 668 
Q 2553 928 2553 1428 
L 2553 3316 
L 3116 3316 
L 3116 0 
z
" transform="scale(0.015625)"/>
      <path id="ArialUnicodeMS-39" d="M 2713 2156 
Q 2547 1888 2258 1722 
Q 1969 1556 1631 1556 
Q 1066 1556 670 1970 
Q 275 2384 275 3053 
Q 275 3734 678 4168 
Q 1081 4603 1716 4603 
Q 2353 4603 2818 4106 
Q 3284 3609 3284 2388 
Q 3284 1147 2859 534 
Q 2434 -78 1644 -78 
Q 1128 -78 781 205 
Q 434 488 359 1063 
L 897 1106 
Q 1025 384 1656 384 
Q 2175 384 2450 857 
Q 2725 1331 2725 2156 
L 2713 2156 
z
M 1766 2047 
Q 2178 2047 2420 2339 
Q 2663 2631 2663 3078 
Q 2663 3531 2414 3836 
Q 2166 4141 1778 4141 
Q 1388 4141 1119 3817 
Q 850 3494 850 3034 
Q 850 2600 1114 2323 
Q 1378 2047 1766 2047 
z
" transform="scale(0.015625)"/>
      <path id="ArialUnicodeMS-37" d="M 3272 4084 
Q 2597 3344 2103 2253 
Q 1609 1163 1522 0 
L 947 0 
Q 969 934 1408 2051 
Q 1847 3169 2547 3975 
L 306 3975 
L 306 4519 
L 3272 4519 
L 3272 4084 
z
" transform="scale(0.015625)"/>
     </defs>
     <use xlink:href="#ArialUnicodeMS-3bc"/>
     <use xlink:href="#ArialUnicodeMS-3d" x="55.322266"/>
     <use xlink:href="#ArialUnicodeMS-32" x="113.720703"/>
     <use xlink:href="#ArialUnicodeMS-2e" x="169.335938"/>
     <use xlink:href="#ArialUnicodeMS-39" x="197.119141"/>
     <use xlink:href="#ArialUnicodeMS-37" x="252.734375"/>
    </g>
   </g>
   <g id="text_15">
    <!-- μ=1.94 -->
    <g transform="translate(255.46625 161.538439) scale(0.08 -0.08)">
     <use xlink:href="#ArialUnicodeMS-3bc"/>
     <use xlink:href="#ArialUnicodeMS-3d" x="55.322266"/>
     <use xlink:href="#ArialUnicodeMS-31" x="113.720703"/>
     <use xlink:href="#ArialUnicodeMS-2e" x="169.335938"/>
     <use xlink:href="#ArialUnicodeMS-39" x="197.119141"/>
     <use xlink:href="#ArialUnicodeMS-34" x="252.734375"/>
    </g>
   </g>
   <g id="text_16">
    <!-- μ=2.61 -->
    <g transform="translate(407.109583 112.80252) scale(0.08 -0.08)">
     <defs>
      <path id="ArialUnicodeMS-36" d="M 838 2363 
Q 1225 2969 1941 2969 
Q 2503 2969 2897 2553 
Q 3291 2138 3291 1491 
Q 3291 838 2898 380 
Q 2506 -78 1856 -78 
Q 1197 -78 733 409 
Q 269 897 269 2144 
Q 269 3369 689 3986 
Q 1109 4603 1906 4603 
Q 2422 4603 2778 4315 
Q 3134 4028 3213 3463 
L 2650 3413 
Q 2497 4141 1875 4141 
Q 1444 4141 1134 3712 
Q 825 3284 825 2363 
L 838 2363 
z
M 1844 384 
Q 2231 384 2472 696 
Q 2713 1009 2713 1453 
Q 2713 1897 2472 2187 
Q 2231 2478 1825 2478 
Q 1453 2478 1184 2204 
Q 916 1931 916 1484 
Q 916 1028 1180 706 
Q 1444 384 1844 384 
z
" transform="scale(0.015625)"/>
     </defs>
     <use xlink:href="#ArialUnicodeMS-3bc"/>
     <use xlink:href="#ArialUnicodeMS-3d" x="55.322266"/>
     <use xlink:href="#ArialUnicodeMS-32" x="113.720703"/>
     <use xlink:href="#ArialUnicodeMS-2e" x="169.335938"/>
     <use xlink:href="#ArialUnicodeMS-36" x="197.119141"/>
     <use xlink:href="#ArialUnicodeMS-31" x="252.734375"/>
    </g>
   </g>
   <g id="text_17">
    <!-- Robustness by Noise Category -->
    <g transform="translate(198.880469 14.479687) scale(0.1 -0.1)">
     <defs>
      <path id="ArialUnicodeMS-62" d="M 1006 2944 
Q 1319 3391 1900 3391 
Q 2541 3391 2925 2925 
Q 3309 2459 3309 1709 
Q 3309 844 2879 383 
Q 2450 -78 1875 -78 
Q 1291 -78 966 416 
L 953 416 
L 953 0 
L 428 0 
L 428 4581 
L 991 4581 
L 991 2944 
L 1006 2944 
z
M 1831 384 
Q 2222 384 2476 720 
Q 2731 1056 2731 1663 
Q 2731 2247 2497 2589 
Q 2263 2931 1850 2931 
Q 1444 2931 1195 2578 
Q 947 2225 947 1684 
Q 947 1156 1050 932 
Q 1153 709 1361 546 
Q 1569 384 1831 384 
z
" transform="scale(0.015625)"/>
      <path id="ArialUnicodeMS-75" d="M 3116 0 
L 2613 0 
L 2613 488 
L 2597 488 
Q 2216 -78 1556 -78 
Q 1209 -78 914 83 
Q 619 244 520 526 
Q 422 809 422 1259 
L 422 3316 
L 984 3316 
L 984 1478 
Q 984 1038 1026 847 
Q 1069 656 1247 532 
Q 1425 409 1672 409 
Q 1991 409 2272 629 
Q 2553 850 2553 1544 
L 2553 3316 
L 3116 3316 
L 3116 0 
z
" transform="scale(0.015625)"/>
      <path id="ArialUnicodeMS-73" d="M 2278 2388 
Q 2241 2659 2058 2795 
Q 1875 2931 1550 2931 
Q 1228 2931 1029 2822 
Q 831 2713 831 2503 
Q 831 2306 989 2222 
Q 1147 2138 1613 2016 
Q 2138 1881 2398 1778 
Q 2659 1675 2804 1489 
Q 2950 1303 2950 972 
Q 2950 528 2587 225 
Q 2225 -78 1619 -78 
Q 988 -78 633 189 
Q 278 456 197 991 
L 756 1075 
Q 800 728 1014 556 
Q 1228 384 1613 384 
Q 1981 384 2178 539 
Q 2375 694 2375 916 
Q 2375 1066 2284 1156 
Q 2194 1247 2058 1292 
Q 1922 1338 1447 1453 
Q 741 1622 514 1862 
Q 288 2103 288 2438 
Q 288 2853 619 3122 
Q 950 3391 1509 3391 
Q 2103 3391 2433 3158 
Q 2763 2925 2828 2463 
L 2278 2388 
z
" transform="scale(0.015625)"/>
      <path id="ArialUnicodeMS-74" d="M 1722 6 
Q 1472 -44 1300 -44 
Q 931 -44 762 86 
Q 594 216 556 416 
Q 519 616 519 972 
L 519 2881 
L 109 2881 
L 109 3316 
L 519 3316 
L 519 4141 
L 1081 4481 
L 1081 3316 
L 1644 3316 
L 1644 2881 
L 1081 2881 
L 1081 941 
Q 1081 691 1132 586 
Q 1184 481 1394 481 
Q 1516 481 1644 506 
L 1722 6 
z
" transform="scale(0.015625)"/>
      <path id="ArialUnicodeMS-6e" d="M 3138 0 
L 2572 0 
L 2572 2016 
Q 2572 2525 2389 2715 
Q 2206 2906 1881 2906 
Q 1631 2906 1407 2784 
Q 1184 2663 1090 2441 
Q 997 2219 997 1813 
L 997 0 
L 434 0 
L 434 3316 
L 941 3316 
L 941 2847 
L 953 2847 
Q 1131 3119 1392 3255 
Q 1653 3391 1997 3391 
Q 2259 3391 2515 3297 
Q 2772 3203 2917 3015 
Q 3063 2828 3100 2615 
Q 3138 2403 3138 2041 
L 3138 0 
z
" transform="scale(0.015625)"/>
      <path id="ArialUnicodeMS-79" d="M 3150 3316 
L 1881 -56 
Q 1878 -63 1875 -78 
Q 1694 -641 1451 -992 
Q 1209 -1344 763 -1344 
Q 613 -1344 397 -1281 
L 341 -750 
Q 503 -800 659 -800 
Q 972 -800 1092 -628 
Q 1213 -456 1363 -6 
L 103 3316 
L 709 3316 
L 1491 1144 
Q 1559 944 1638 628 
L 1650 628 
Q 1728 991 1850 1319 
L 2578 3316 
L 3150 3316 
z
" transform="scale(0.015625)"/>
      <path id="ArialUnicodeMS-69" d="M 991 0 
L 428 0 
L 428 3316 
L 991 3316 
L 991 0 
z
M 991 3944 
L 428 3944 
L 428 4581 
L 991 4581 
L 991 3944 
z
" transform="scale(0.015625)"/>
      <path id="ArialUnicodeMS-43" d="M 4372 1453 
Q 4172 681 3673 301 
Q 3175 -78 2478 -78 
Q 1353 -78 839 626 
Q 325 1331 325 2322 
Q 325 3419 929 4039 
Q 1534 4659 2484 4659 
Q 3153 4659 3628 4318 
Q 4103 3978 4294 3322 
L 3700 3181 
Q 3550 3659 3244 3900 
Q 2938 4141 2478 4141 
Q 1728 4141 1340 3648 
Q 953 3156 953 2328 
Q 953 1372 1361 906 
Q 1769 441 2425 441 
Q 2963 441 3298 731 
Q 3634 1022 3769 1606 
L 4372 1453 
z
" transform="scale(0.015625)"/>
      <path id="ArialUnicodeMS-61" d="M 3303 0 
L 2713 0 
Q 2631 156 2597 409 
Q 2031 -78 1375 -78 
Q 850 -78 547 184 
Q 244 447 244 878 
Q 244 1291 536 1558 
Q 828 1825 1550 1913 
L 2075 1991 
Q 2369 2038 2559 2106 
Q 2559 2359 2543 2464 
Q 2528 2569 2451 2681 
Q 2375 2794 2206 2862 
Q 2038 2931 1753 2931 
Q 1391 2931 1180 2797 
Q 969 2663 891 2297 
L 341 2369 
Q 431 2878 806 3134 
Q 1181 3391 1838 3391 
Q 2434 3391 2714 3214 
Q 2994 3038 3058 2788 
Q 3122 2538 3122 2144 
L 3122 1388 
Q 3122 697 3148 461 
Q 3175 225 3303 0 
z
M 2559 1459 
L 2559 1663 
Q 2119 1516 1481 1430 
Q 844 1344 844 891 
Q 844 663 1016 514 
Q 1188 366 1509 366 
Q 1925 366 2242 614 
Q 2559 863 2559 1459 
z
" transform="scale(0.015625)"/>
      <path id="ArialUnicodeMS-67" d="M 3144 447 
Q 3144 -259 3003 -607 
Q 2863 -956 2503 -1150 
Q 2144 -1344 1644 -1344 
Q 1081 -1344 706 -1094 
Q 331 -844 331 -275 
L 878 -359 
Q 909 -622 1098 -753 
Q 1288 -884 1638 -884 
Q 2075 -884 2278 -706 
Q 2481 -528 2526 -272 
Q 2572 -16 2572 434 
Q 2206 0 1650 0 
Q 1003 0 611 478 
Q 219 956 219 1684 
Q 219 2416 600 2903 
Q 981 3391 1656 3391 
Q 2244 3391 2613 2919 
L 2625 2919 
L 2625 3316 
L 3144 3316 
L 3144 447 
z
M 1703 459 
Q 2063 459 2341 745 
Q 2619 1031 2619 1703 
Q 2619 2297 2353 2614 
Q 2088 2931 1697 2931 
Q 1297 2931 1045 2606 
Q 794 2281 794 1716 
Q 794 1063 1058 761 
Q 1322 459 1703 459 
z
" transform="scale(0.015625)"/>
     </defs>
     <use xlink:href="#ArialUnicodeMS-52"/>
     <use xlink:href="#ArialUnicodeMS-6f" x="72.216797"/>
     <use xlink:href="#ArialUnicodeMS-62" x="127.832031"/>
     <use xlink:href="#ArialUnicodeMS-75" x="183.447266"/>
     <use xlink:href="#ArialUnicodeMS-73" x="239.0625"/>
     <use xlink:href="#ArialUnicodeMS-74" x="289.0625"/>
     <use xlink:href="#ArialUnicodeMS-6e" x="316.845703"/>
     <use xlink:href="#ArialUnicodeMS-65" x="372.460938"/>
     <use xlink:href="#ArialUnicodeMS-73" x="428.076172"/>
     <use xlink:href="#ArialUnicodeMS-73" x="478.076172"/>
     <use xlink:href="#ArialUnicodeMS-20" x="528.076172"/>
     <use xlink:href="#ArialUnicodeMS-62" x="555.859375"/>
     <use xlink:href="#ArialUnicodeMS-79" x="611.474609"/>
     <use xlink:href="#ArialUnicodeMS-20" x="661.474609"/>
     <use xlink:href="#ArialUnicodeMS-4e" x="689.257812"/>
     <use xlink:href="#ArialUnicodeMS-6f" x="761.474609"/>
     <use xlink:href="#ArialUnicodeMS-69" x="817.089844"/>
     <use xlink:href="#ArialUnicodeMS-73" x="839.306641"/>
     <use xlink:href="#ArialUnicodeMS-65" x="889.306641"/>
     <use xlink:href="#ArialUnicodeMS-20" x="944.921875"/>
     <use xlink:href="#ArialUnicodeMS-43" x="972.705078"/>
     <use xlink:href="#ArialUnicodeMS-61" x="1044.921875"/>
     <use xlink:href="#ArialUnicodeMS-74" x="1100.537109"/>
     <use xlink:href="#ArialUnicodeMS-65" x="1128.320312"/>
     <use xlink:href="#ArialUnicodeMS-67" x="1183.935547"/>
     <use xlink:href="#ArialUnicodeMS-6f" x="1239.550781"/>
     <use xlink:href="#ArialUnicodeMS-72" x="1295.166016"/>
     <use xlink:href="#ArialUnicodeMS-79" x="1328.466797"/>
    </g>
   </g>
  </g>
 </g>
 <defs>
  <clipPath id="p380457cb38">
   <rect x="40.335" y="20.479687" width="454.93" height="287.38625"/>
  </clipPath>
 </defs>
</svg>
