<?xml version="1.0" encoding="utf-8" standalone="no"?>
<!DOCTYPE svg PUBLIC "-//W3C//DTD SVG 1.1//EN"
  "http://www.w3.org/Graphics/SVG/1.1/DTD/svg11.dtd">
<svg xmlns:xlink="http://www.w3.org/1999/xlink" width="418.752pt" height="332.597812pt" viewBox="0 0 418.752 332.597812" xmlns="http://www.w3.org/2000/svg" version="1.1">
 <metadata>
  <rdf:RDF xmlns:dc="http://purl.org/dc/elements/1.1/" xmlns:cc="http://creativecommons.org/ns#" xmlns:rdf="http://www.w3.org/1999/02/22-rdf-syntax-ns#">
   <cc:Work>
    <dc:type rdf:resource="http://purl.org/dc/dcmitype/StillImage"/>
    <dc:date>2026-04-06T08:38:47.537801</dc:date>
    <dc:format>image/svg+xml</dc:format>
    <dc:creator>
     <cc:Agent>
      <dc:title>Matplotlib v3.7.5, https://matplotlib.org/</dc:title>
     </cc:Agent>
    </dc:creator>
   </cc:Work>
  </rdf:RDF>
 </metadata>
 <defs>
  <style type="text/css">*{stroke-linejoin: round; stroke-linecap: butt}</style>
 </defs>
 <g id="figure_1">
  <g id="patch_1">
   <path d="M 0 332.597812 
L 418.752 332.597812 
L 418.752 0 
L 0 0 
z
" style="fill: #ffffff"/>
  </g>
  <g id="axes_1">
   <g id="patch_2">
    <path d="M 328.24 179.877812 
C 328.24 160.768301 324.475843 141.844606 317.16295 124.189719 
C 309.850056 106.534833 299.130644 90.492099 285.618179 76.979634 
C 272.105714 63.467169 256.062979 52.747756 238.408093 45.434863 
C 220.753207 38.12197 201.829511 34.357812 182.72 34.357812 
C 163.610489 34.357812 144.686793 38.12197 127.031907 45.434863 
C 109.377021 52.747756 93.334286 63.467169 79.821821 76.979634 
C 66.309356 90.492099 55.589944 106.534833 48.27705 124.189719 
C 40.964157 141.844606 37.2 160.768301 37.2 179.877812 
C 37.2 198.987324 40.964157 217.911019 48.27705 235.565906 
C 55.589944 253.220792 66.309356 269.263526 79.821821 282.775991 
C 93.334286 296.288456 109.377021 307.007869 127.031907 314.320762 
C 144.686793 321.633655 163.610489 325.397812 182.72 325.397812 
C 201.829511 325.397812 220.753207 321.633655 238.408093 314.320762 
C 256.062979 307.007869 272.105714 296.288456 285.618179 282.775991 
C 299.130644 269.263526 309.850056 253.220792 317.16295 235.565906 
C 324.475843 217.911019 328.24 198.987324 328.24 179.877812 
M 182.72 179.877812 
C 182.72 179.877812 182.72 179.877812 182.72 179.877812 
C 182.72 179.877812 182.72 179.877812 182.72 179.877812 
C 182.72 179.877812 182.72 179.877812 182.72 179.877812 
C 182.72 179.877812 182.72 179.877812 182.72 179.877812 
C 182.72 179.877812 182.72 179.877812 182.72 179.877812 
C 182.72 179.877812 182.72 179.877812 182.72 179.877812 
C 182.72 179.877812 182.72 179.877812 182.72 179.877812 
C 182.72 179.877812 182.72 179.877812 182.72 179.877812 
C 182.72 179.877812 182.72 179.877812 182.72 179.877812 
C 182.72 179.877812 182.72 179.877812 182.72 179.877812 
C 182.72 179.877812 182.72 179.877812 182.72 179.877812 
C 182.72 179.877812 182.72 179.877812 182.72 179.877812 
C 182.72 179.877812 182.72 179.877812 182.72 179.877812 
C 182.72 179.877812 182.72 179.877812 182.72 179.877812 
C 182.72 179.877812 182.72 179.877812 182.72 179.877812 
C 182.72 179.877812 182.72 179.877812 182.72 179.877812 
z
" style="fill: #ffffff"/>
   </g>
   <g id="patch_3">
    <path d="M 265.787667 179.877812 
L 217.887333 118.966204 
L 136.941833 100.587702 
L 93.589 179.877812 
L 133.000667 265.994224 
L 232.136167 265.469124 
z
" clip-path="url(#p07782a11d8)" style="fill: #0ea5e9; opacity: 0.25; stroke: #0ea5e9; stroke-linejoin: miter"/>
   </g>
   <g id="matplotlib.axis_1">
    <g id="xtick_1">
     <g id="line2d_1">
      <path d="M 182.72 179.877812 
L 328.24 179.877812 
" clip-path="url(#p07782a11d8)" style="fill: none; stroke: #b0b0b0; stroke-width: 0.8; stroke-linecap: square"/>
     </g>
     <g id="text_1">
      <!-- 情感表达 -->
      <g transform="translate(326.24 181.944062) scale(0.08 -0.08)">
       <defs>
        <path id="ArialUnicodeMS-60c5" d="M 6009 2944 
L 2291 2944 
L 1978 2828 
Q 1897 3128 1678 3506 
L 1678 -422 
L 1191 -422 
L 1191 5241 
L 1678 5241 
L 1678 3944 
L 1875 4044 
Q 2063 3806 2284 3406 
L 3744 3406 
L 3744 3719 
L 2591 3719 
L 2591 4178 
L 3744 4178 
L 3744 4453 
L 2322 4453 
L 2322 4916 
L 3744 4916 
L 3744 5356 
L 4231 5356 
L 4231 4916 
L 5691 4916 
L 5691 4453 
L 4231 4453 
L 4231 4178 
L 5381 4178 
L 5381 3719 
L 4231 3719 
L 4231 3406 
L 6009 3406 
L 6009 2944 
z
M 1056 3975 
Q 1047 3309 563 2456 
L 122 2688 
Q 616 3441 634 4128 
L 1056 3975 
z
M 5447 197 
Q 5447 -319 4781 -319 
L 4281 -319 
L 4097 141 
Q 4331 128 4469 128 
Q 4816 128 4891 167 
Q 4966 206 4966 594 
L 3078 594 
L 3078 -422 
L 2591 -422 
L 2591 2650 
L 5447 2650 
L 5447 197 
z
M 4959 1888 
L 4959 2188 
L 3078 2188 
L 3078 1888 
L 4959 1888 
z
M 4959 1056 
L 4959 1428 
L 3078 1428 
L 3078 1056 
L 4959 1056 
z
" transform="scale(0.015625)"/>
        <path id="ArialUnicodeMS-611f" d="M 5947 2253 
Q 5866 1247 5409 1247 
Q 5106 1247 4622 1797 
Q 4253 1400 3909 1197 
L 3494 1478 
Q 3956 1709 4331 2203 
Q 3959 2875 3794 4103 
L 1428 4103 
L 1428 2938 
Q 1428 1766 878 1234 
L 313 1422 
Q 947 1881 947 2778 
L 947 4569 
L 3744 4569 
L 3700 5306 
L 4191 5306 
L 4231 4569 
L 4825 4569 
Q 4678 4769 4441 4959 
L 4903 5141 
Q 5156 4934 5319 4569 
L 5797 4569 
L 5797 4103 
L 4275 4103 
Q 4422 3078 4647 2675 
Q 4963 3291 5013 3956 
L 5472 3781 
Q 5347 2975 4922 2209 
Q 5241 1788 5353 1788 
Q 5438 1788 5488 2120 
Q 5538 2453 5538 2606 
L 5947 2253 
z
M 3828 3322 
L 1528 3322 
L 1528 3788 
L 3828 3788 
L 3828 3322 
z
M 3731 1644 
L 1691 1644 
L 1691 3053 
L 3731 3053 
L 3731 1644 
z
M 3244 2113 
L 3244 2584 
L 2175 2584 
L 2175 2113 
L 3244 2113 
z
M 3872 775 
L 3481 494 
Q 3228 931 2553 1275 
L 2925 1575 
Q 3531 1309 3872 775 
z
M 4709 709 
Q 4581 113 4426 -35 
Q 4272 -184 4056 -184 
L 2584 -184 
Q 2359 -184 2162 -29 
Q 1966 125 1966 331 
L 1966 1222 
L 2472 1222 
L 2472 475 
Q 2472 281 2700 281 
L 3994 281 
Q 4078 281 4134 359 
Q 4191 438 4250 850 
L 4709 709 
z
M 1856 897 
Q 1347 194 603 -103 
L 300 313 
Q 956 519 1503 1203 
L 1856 897 
z
M 6088 166 
L 5650 -97 
Q 5338 484 4634 909 
L 5050 1184 
Q 5719 825 6088 166 
z
" transform="scale(0.015625)"/>
        <path id="ArialUnicodeMS-8868" d="M 6100 0 
L 5741 -397 
Q 3781 450 3419 2278 
L 2875 2278 
Q 2713 2009 2388 1716 
L 2388 269 
L 3794 616 
L 3794 103 
L 1300 -481 
L 1038 -6 
L 1900 184 
L 1900 1375 
Q 1200 941 594 744 
L 331 1178 
Q 1559 1547 2253 2278 
L 609 2278 
L 609 2747 
L 2975 2747 
L 2975 3272 
L 1288 3272 
L 1288 3738 
L 2975 3738 
L 2975 4225 
L 909 4225 
L 909 4691 
L 2975 4691 
L 2975 5344 
L 3481 5344 
L 3481 4691 
L 5516 4691 
L 5516 4225 
L 3481 4225 
L 3481 3738 
L 5153 3738 
L 5153 3272 
L 3481 3272 
L 3481 2747 
L 5813 2747 
L 5813 2278 
L 3909 2278 
Q 4053 1725 4250 1388 
Q 4725 1638 5247 2150 
L 5613 1806 
Q 5209 1406 4519 1025 
Q 4991 475 6100 0 
z
" transform="scale(0.015625)"/>
        <path id="ArialUnicodeMS-8fbe" d="M 5741 3525 
L 4078 3525 
Q 4009 1356 2522 641 
L 2169 1013 
Q 3006 1384 3301 2117 
Q 3597 2850 3597 3525 
L 1953 3525 
L 1953 3963 
L 3591 3963 
L 3591 5281 
L 4078 5281 
L 4078 3963 
L 5741 3963 
L 5741 3525 
z
M 1759 3938 
L 1344 3659 
Q 1013 4366 500 4806 
L 856 5069 
Q 1388 4638 1759 3938 
z
M 6016 306 
L 5825 -219 
L 3291 -219 
Q 2891 -219 2608 -147 
Q 2325 -75 2144 39 
Q 1963 153 1809 309 
L 1516 616 
L 550 -225 
L 197 128 
L 1269 991 
L 1269 2681 
L 313 2681 
L 313 3116 
L 1753 3116 
L 1753 997 
Q 2069 653 2403 459 
Q 2738 266 3244 253 
L 4319 219 
Q 4534 219 4722 231 
L 6016 306 
z
M 5778 928 
L 5331 634 
Q 4972 1647 4091 2578 
L 4434 2853 
Q 5281 2053 5778 928 
z
" transform="scale(0.015625)"/>
       </defs>
       <use xlink:href="#ArialUnicodeMS-60c5"/>
       <use xlink:href="#ArialUnicodeMS-611f" x="100"/>
       <use xlink:href="#ArialUnicodeMS-8868" x="200"/>
       <use xlink:href="#ArialUnicodeMS-8fbe" x="300"/>
      </g>
     </g>
    </g>
    <g id="xtick_2">
     <g id="line2d_2">
      <path d="M 182.72 179.877812 
L 255.48 53.853796 
" clip-path="url(#p07782a11d8)" style="fill: none; stroke: #b0b0b0; stroke-width: 0.8; stroke-linecap: square"/>
     </g>
     <g id="text_2">
      <!-- 叙事连贯 -->
      <g transform="translate(246.48 43.79569) scale(0.08 -0.08)">
       <defs>
        <path id="ArialUnicodeMS-53d9" d="M 3169 2041 
L 2150 2041 
L 2150 13 
Q 2150 -397 1753 -397 
L 1159 -397 
L 978 116 
L 1588 84 
Q 1663 84 1663 141 
L 1663 2041 
L 409 2041 
L 409 2509 
L 1663 2509 
L 1663 3122 
L 863 3122 
L 863 3334 
Q 791 3275 453 3091 
L 172 3519 
Q 1478 4206 1716 5350 
L 2138 5147 
Q 2119 5000 2069 4863 
Q 2778 4475 3078 4019 
L 2681 3700 
Q 2338 4144 1888 4453 
Q 1550 3875 1153 3591 
L 2925 3591 
L 2925 3122 
L 2150 3122 
L 2150 2509 
L 3169 2509 
L 3169 2041 
z
M 6028 -50 
L 5684 -403 
Q 5119 25 4500 806 
Q 3919 25 3213 -391 
L 2888 -25 
Q 3784 525 4213 1275 
Q 3584 2316 3334 4206 
L 3059 4206 
L 3059 4672 
L 5478 4672 
Q 5381 2438 4769 1288 
Q 5425 403 6028 -50 
z
M 4959 4206 
L 3803 4219 
Q 4031 2575 4469 1819 
Q 4903 3056 4959 4206 
z
M 3559 763 
L 3181 366 
Q 2981 991 2259 1528 
L 2559 1850 
Q 3209 1456 3559 763 
z
M 1556 1588 
Q 1197 697 500 275 
L 103 609 
Q 775 1006 1203 1838 
L 1556 1588 
z
" transform="scale(0.015625)"/>
        <path id="ArialUnicodeMS-4e8b" d="M 6081 1288 
L 5484 1288 
L 5484 469 
L 3456 469 
L 3463 213 
Q 3472 -94 3333 -239 
Q 3194 -384 2803 -397 
L 2156 -416 
L 1972 78 
Q 2491 31 2716 31 
Q 2850 31 2900 84 
Q 2950 138 2950 275 
L 2950 469 
L 984 469 
L 984 909 
L 2950 909 
L 2963 1288 
L 384 1288 
L 384 1728 
L 2956 1728 
L 2956 2059 
L 984 2059 
L 984 2503 
L 2956 2503 
L 2956 2809 
L 1125 2822 
L 1125 4084 
L 2956 4084 
L 2956 4372 
L 422 4372 
L 422 4813 
L 2956 4813 
L 2956 5288 
L 3463 5288 
L 3463 4813 
L 6016 4813 
L 6016 4372 
L 3463 4372 
L 3463 4078 
L 5269 4091 
L 5269 2809 
L 3463 2809 
L 3463 2503 
L 5484 2503 
L 5484 1728 
L 6081 1728 
L 6081 1288 
z
M 4781 3250 
L 4781 3641 
L 3463 3641 
L 3463 3250 
L 4781 3250 
z
M 2956 3250 
L 2956 3641 
L 1613 3641 
L 1613 3250 
L 2956 3250 
z
M 4978 1728 
L 4978 2059 
L 3444 2059 
L 3444 1728 
L 4978 1728 
z
M 4978 909 
L 4978 1288 
L 3444 1288 
L 3456 909 
L 4978 909 
z
" transform="scale(0.015625)"/>
        <path id="ArialUnicodeMS-8fde" d="M 5831 1441 
L 4141 1441 
L 4141 347 
L 3653 347 
L 3653 1441 
L 1906 1441 
L 1906 1906 
L 3653 1906 
L 3653 2534 
L 2350 2534 
L 2350 2925 
Q 2703 3741 2772 3963 
L 1972 3963 
L 1972 4428 
L 2925 4428 
Q 3063 4859 3109 5184 
L 3578 4984 
L 3413 4428 
L 5588 4428 
L 5588 3963 
L 3256 3963 
Q 3038 3353 2881 3003 
L 3653 3003 
L 3653 3713 
L 4141 3713 
L 4141 3003 
L 5344 3003 
L 5344 2534 
L 4141 2534 
L 4141 1906 
L 5831 1906 
L 5831 1441 
z
M 1791 3916 
L 1394 3634 
Q 1006 4297 513 4678 
L 878 4991 
Q 1434 4556 1791 3916 
z
M 6041 225 
L 5766 -281 
L 3109 -281 
Q 2653 -281 2143 -82 
Q 1634 116 1325 459 
Q 884 41 544 -225 
L 219 122 
Q 972 738 1094 850 
L 1094 2656 
L 359 2656 
L 359 3122 
L 1581 3122 
L 1581 800 
Q 2206 184 3272 184 
L 5381 184 
Q 5522 184 6041 225 
z
" transform="scale(0.015625)"/>
        <path id="ArialUnicodeMS-8d2f" d="M 5850 3853 
L 4738 3853 
Q 4738 3750 4708 3478 
Q 4678 3206 4672 3047 
L 1338 3047 
L 1388 3853 
L 300 3853 
L 300 4294 
L 1422 4294 
Q 1463 4616 1478 5063 
L 4813 5063 
Q 4800 4738 4763 4294 
L 5850 4294 
L 5850 3853 
z
M 4306 4622 
L 3372 4622 
L 3353 4300 
L 4288 4288 
L 4306 4622 
z
M 2894 4622 
L 1925 4622 
Q 1888 4353 1888 4294 
L 2881 4294 
L 2894 4622 
z
M 4250 3853 
L 3334 3853 
Q 3347 3619 3322 3488 
L 4219 3488 
L 4250 3853 
z
M 2859 3853 
L 1863 3853 
Q 1850 3638 1850 3488 
L 2841 3488 
L 2859 3853 
z
M 4844 750 
L 4359 750 
L 4359 2350 
L 1784 2350 
L 1784 622 
L 1331 622 
L 1331 2791 
L 4844 2791 
L 4844 750 
z
M 3291 2059 
Q 3275 794 2506 278 
Q 1738 -238 544 -359 
Q 472 -231 275 72 
Q 1953 303 2387 772 
Q 2822 1241 2822 2163 
L 3291 2059 
z
M 5478 -72 
L 5166 -441 
Q 4350 322 3109 684 
L 3384 1063 
Q 4700 644 5478 -72 
z
" transform="scale(0.015625)"/>
       </defs>
       <use xlink:href="#ArialUnicodeMS-53d9"/>
       <use xlink:href="#ArialUnicodeMS-4e8b" x="100"/>
       <use xlink:href="#ArialUnicodeMS-8fde" x="200"/>
       <use xlink:href="#ArialUnicodeMS-8d2f" x="300"/>
      </g>
     </g>
    </g>
    <g id="xtick_3">
     <g id="line2d_3">
      <path d="M 182.72 179.877812 
L 109.96 53.853796 
" clip-path="url(#p07782a11d8)" style="fill: none; stroke: #b0b0b0; stroke-width: 0.8; stroke-linecap: square"/>
     </g>
     <g id="text_3">
      <!-- 细节丰富 -->
      <g transform="translate(86.96 43.79569) scale(0.08 -0.08)">
       <defs>
        <path id="ArialUnicodeMS-7ec6" d="M 2591 3609 
Q 1956 2322 1241 1663 
L 1253 1650 
L 2547 1984 
L 2547 1538 
Q 1609 1306 716 1031 
L 488 1459 
Q 1113 2088 1394 2522 
Q 991 2428 703 2328 
L 459 2772 
Q 919 3513 1503 5013 
L 1941 4813 
Q 1381 3509 1044 2913 
Q 1181 2931 1716 3047 
Q 1872 3278 2144 3816 
L 2591 3609 
z
M 5728 -366 
L 5241 -366 
L 5241 72 
L 3256 72 
L 3256 -366 
L 2772 -366 
L 2772 4872 
L 5728 4872 
L 5728 -366 
z
M 5241 2753 
L 5241 4403 
L 4494 4403 
L 4494 2753 
L 5241 2753 
z
M 4006 2753 
L 4006 4403 
L 3256 4403 
L 3256 2753 
L 4006 2753 
z
M 5241 538 
L 5241 2284 
L 4494 2284 
L 4494 538 
L 5241 538 
z
M 4006 538 
L 4006 2284 
L 3256 2284 
L 3256 538 
L 4006 538 
z
M 2528 513 
L 622 -191 
L 384 250 
L 2528 984 
L 2528 513 
z
" transform="scale(0.015625)"/>
        <path id="ArialUnicodeMS-8282" d="M 5831 4128 
L 4256 4128 
L 4256 3384 
L 3769 3384 
L 3769 4128 
L 2431 4128 
L 2431 3384 
L 1947 3384 
L 1947 4128 
L 391 4128 
L 403 4588 
L 1947 4588 
L 1947 5319 
L 2431 5319 
L 2431 4588 
L 3769 4588 
L 3769 5319 
L 4256 5319 
L 4256 4588 
L 5831 4588 
L 5831 4128 
z
M 5113 3272 
Q 5050 1375 4948 1004 
Q 4847 634 4456 634 
Q 4238 634 3781 703 
L 3647 1234 
Q 4203 1056 4341 1056 
Q 4466 1056 4511 1322 
Q 4556 1588 4622 2809 
L 2834 2809 
L 2834 -366 
L 2350 -366 
L 2350 2809 
L 756 2809 
L 756 3272 
L 5113 3272 
z
" transform="scale(0.015625)"/>
        <path id="ArialUnicodeMS-4e30" d="M 5931 1288 
L 3444 1288 
L 3444 -391 
L 2931 -391 
L 2931 1288 
L 469 1288 
L 469 1759 
L 2931 1759 
L 2931 2644 
L 813 2644 
L 813 3116 
L 2931 3116 
L 2931 3956 
Q 1853 3819 941 3794 
L 703 4300 
Q 1747 4294 2925 4441 
L 2925 5325 
L 3438 5325 
L 3438 4513 
Q 4594 4728 5388 5081 
Q 5456 4981 5625 4672 
Q 4594 4206 3438 4031 
L 3438 3116 
L 5556 3116 
L 5556 2644 
L 3438 2644 
L 3438 1759 
L 5931 1759 
L 5931 1288 
z
" transform="scale(0.015625)"/>
        <path id="ArialUnicodeMS-5bcc" d="M 5759 3841 
L 5275 3841 
L 5275 4359 
L 1172 4359 
L 1172 3816 
L 684 3816 
L 684 4825 
L 2931 4825 
L 2931 5344 
L 3469 5344 
L 3469 4825 
L 5759 4825 
L 5759 3841 
z
M 5113 3681 
L 1338 3681 
L 1338 4147 
L 5113 4147 
L 5113 3681 
z
M 4863 2241 
L 1594 2241 
L 1594 3444 
L 4863 3444 
L 4863 2241 
z
M 4378 2681 
L 4378 3003 
L 2081 3003 
L 2081 2681 
L 4378 2681 
z
M 5375 -391 
L 4891 -391 
L 4891 -84 
L 1581 -84 
L 1581 -428 
L 1094 -428 
L 1094 1984 
L 5375 1984 
L 5375 -391 
z
M 4891 1178 
L 4891 1516 
L 3469 1516 
L 3469 1178 
L 4891 1178 
z
M 2981 1178 
L 2981 1516 
L 1581 1516 
L 1581 1178 
L 2981 1178 
z
M 4891 384 
L 4891 738 
L 3469 738 
L 3469 384 
L 4891 384 
z
M 2981 384 
L 2981 738 
L 1581 738 
L 1581 384 
L 2981 384 
z
" transform="scale(0.015625)"/>
       </defs>
       <use xlink:href="#ArialUnicodeMS-7ec6"/>
       <use xlink:href="#ArialUnicodeMS-8282" x="100"/>
       <use xlink:href="#ArialUnicodeMS-4e30" x="200"/>
       <use xlink:href="#ArialUnicodeMS-5bcc" x="300"/>
      </g>
     </g>
    </g>
    <g id="xtick_4">
     <g id="line2d_4">
      <path d="M 182.72 179.877812 
L 37.2 179.877812 
" clip-path="url(#p07782a11d8)" style="fill: none; stroke: #b0b0b0; stroke-width: 0.8; stroke-linecap: square"/>
     </g>
     <g id="text_4">
      <!-- 自我反思 -->
      <g transform="translate(7.2 181.979062) scale(0.08 -0.08)">
       <defs>
        <path id="ArialUnicodeMS-81ea" d="M 5253 -428 
L 4722 -416 
L 4722 97 
L 1791 97 
L 1791 -428 
L 1288 -428 
L 1288 4416 
L 2766 4416 
Q 3081 4791 3425 5459 
L 3878 5216 
Q 3734 4866 3425 4416 
L 5253 4416 
L 5253 -428 
z
M 4722 3188 
L 4722 3950 
L 1791 3950 
L 1791 3188 
L 4722 3188 
z
M 4722 1906 
L 4722 2719 
L 1791 2719 
L 1791 1906 
L 4722 1906 
z
M 4722 581 
L 4722 1441 
L 1791 1441 
L 1791 581 
L 4722 581 
z
" transform="scale(0.015625)"/>
        <path id="ArialUnicodeMS-6211" d="M 5972 941 
Q 5866 -353 5434 -353 
Q 5169 -353 4823 -25 
Q 4478 303 4191 794 
Q 3700 384 2950 -13 
L 2522 347 
Q 3463 797 3969 1275 
Q 3734 1928 3609 2881 
L 2375 2881 
L 2375 1959 
L 3366 2209 
L 3366 1716 
L 2375 1453 
L 2375 128 
Q 2375 -122 2209 -253 
Q 2044 -384 1658 -376 
Q 1272 -369 1113 -378 
L 934 122 
L 1722 103 
Q 1869 103 1869 269 
L 1869 1313 
L 750 1013 
L 391 1478 
Q 1138 1622 1869 1813 
L 1869 2881 
L 556 2881 
L 556 3366 
L 1869 3366 
L 1869 4288 
Q 1425 4144 819 4116 
L 519 4594 
Q 1794 4584 3022 5300 
L 3341 4934 
Q 2622 4509 2375 4409 
L 2375 3366 
L 3566 3366 
Q 3522 4016 3522 4753 
Q 3522 5025 3525 5325 
L 4019 5325 
Q 4019 4134 4078 3366 
L 5778 3366 
L 5778 2881 
L 4122 2881 
Q 4191 2281 4378 1656 
Q 4809 2138 5094 2706 
L 5528 2522 
Q 5138 1759 4569 1172 
Q 4619 1044 4884 651 
Q 5150 259 5253 259 
Q 5391 259 5472 1131 
L 5972 941 
z
M 5691 3975 
L 5281 3622 
Q 4991 4297 4178 4684 
L 4588 5056 
Q 5388 4600 5691 3975 
z
" transform="scale(0.015625)"/>
        <path id="ArialUnicodeMS-53cd" d="M 6028 38 
L 5684 -428 
Q 4250 63 3669 628 
Q 3166 119 1638 -453 
L 1356 -6 
Q 2906 594 3309 953 
Q 2550 1800 2272 2919 
L 1650 2919 
Q 1650 1734 1495 1054 
Q 1341 375 744 -378 
L 325 -97 
Q 894 725 1017 1264 
Q 1141 1803 1141 2994 
L 1141 5056 
L 5388 5056 
L 5388 4563 
L 1650 4563 
L 1650 3397 
L 5159 3397 
Q 4959 1934 4038 959 
Q 4675 438 6028 38 
z
M 4538 2919 
L 2784 2919 
Q 3116 1922 3681 1319 
Q 4288 2028 4538 2919 
z
" transform="scale(0.015625)"/>
        <path id="ArialUnicodeMS-601d" d="M 5119 2181 
L 1222 2181 
L 1222 4991 
L 5119 4991 
L 5119 2181 
z
M 4634 3834 
L 4634 4525 
L 3413 4525 
L 3413 3834 
L 4634 3834 
z
M 2925 3834 
L 2925 4525 
L 1709 4525 
L 1709 3834 
L 2925 3834 
z
M 4634 2650 
L 4634 3366 
L 3413 3366 
L 3413 2650 
L 4634 2650 
z
M 2925 2650 
L 2925 3366 
L 1709 3366 
L 1709 2650 
L 2925 2650 
z
M 3866 1153 
L 3438 872 
Q 3081 1503 2491 1784 
L 2853 2059 
Q 3409 1866 3866 1153 
z
M 5984 428 
L 5550 159 
Q 5141 1003 4494 1394 
L 4872 1684 
Q 5516 1297 5984 428 
z
M 1759 1388 
Q 1497 731 738 78 
L 347 416 
Q 1075 925 1356 1650 
L 1759 1388 
z
M 4697 1006 
Q 4659 369 4417 111 
Q 4175 -147 3872 -147 
L 2516 -147 
Q 1941 -147 1941 384 
L 1941 1588 
L 2425 1588 
L 2425 531 
Q 2425 319 2663 319 
L 3809 319 
Q 4009 319 4107 484 
Q 4206 650 4219 1094 
L 4697 1006 
z
" transform="scale(0.015625)"/>
       </defs>
       <use xlink:href="#ArialUnicodeMS-81ea"/>
       <use xlink:href="#ArialUnicodeMS-6211" x="100"/>
       <use xlink:href="#ArialUnicodeMS-53cd" x="200"/>
       <use xlink:href="#ArialUnicodeMS-601d" x="300"/>
      </g>
     </g>
    </g>
    <g id="xtick_5">
     <g id="line2d_5">
      <path d="M 182.72 179.877812 
L 109.96 305.901829 
" clip-path="url(#p07782a11d8)" style="fill: none; stroke: #b0b0b0; stroke-width: 0.8; stroke-linecap: square"/>
     </g>
     <g id="text_5">
      <!-- 社会连接 -->
      <g transform="translate(86.96 320.092435) scale(0.08 -0.08)">
       <defs>
        <path id="ArialUnicodeMS-793e" d="M 3028 1638 
L 2650 1288 
Q 2166 1872 1888 2047 
L 1888 -441 
L 1381 -441 
L 1381 1984 
Q 1219 1781 653 1344 
L 300 1728 
Q 1397 2528 2016 3566 
L 441 3566 
L 441 4031 
L 1394 4031 
L 1394 5259 
L 1906 5259 
L 1906 4031 
L 2572 4031 
L 2572 3609 
Q 2297 3028 1881 2509 
L 1888 2284 
L 2075 2472 
Q 2469 2281 3028 1638 
z
M 6075 -56 
L 2216 -56 
L 2216 428 
L 3878 428 
L 3878 2713 
L 2497 2713 
L 2497 3181 
L 3878 3181 
L 3878 5228 
L 4384 5228 
L 4384 3181 
L 5838 3181 
L 5838 2713 
L 4384 2713 
L 4384 428 
L 6075 428 
L 6075 -56 
z
" transform="scale(0.015625)"/>
        <path id="ArialUnicodeMS-4f1a" d="M 6106 2503 
L 5778 2059 
Q 5034 2503 4453 3047 
L 4453 2784 
L 1913 2784 
L 1913 3034 
Q 1488 2625 622 2119 
L 325 2528 
Q 2088 3397 3097 5325 
L 3541 5119 
L 3413 4863 
Q 3988 4097 4472 3645 
Q 4956 3194 6106 2503 
z
M 4219 3244 
Q 3678 3713 3156 4441 
Q 2775 3884 2138 3244 
L 4219 3244 
z
M 5625 -72 
L 5222 -359 
Q 4941 38 4891 84 
L 991 -128 
L 838 359 
L 1556 366 
Q 2009 897 2484 1709 
L 878 1709 
L 878 2144 
L 5472 2144 
L 5472 1709 
L 2681 1709 
L 2969 1544 
Q 2484 775 2119 353 
L 4588 469 
Q 4216 844 3884 1056 
L 4269 1288 
Q 5041 794 5625 -72 
z
" transform="scale(0.015625)"/>
        <path id="ArialUnicodeMS-63a5" d="M 2394 2094 
L 1697 1850 
L 1697 147 
Q 1697 -84 1578 -223 
Q 1459 -363 1292 -386 
Q 1125 -409 697 -409 
L 525 50 
Q 669 38 863 38 
Q 1209 38 1209 231 
L 1209 1650 
L 525 1409 
L 275 1888 
L 1209 2163 
L 1209 3572 
L 441 3572 
L 441 4031 
L 1209 4031 
L 1209 5300 
L 1697 5300 
L 1697 4031 
L 2369 4031 
L 2369 3572 
L 1697 3572 
L 1697 2356 
L 2394 2578 
L 2394 2094 
z
M 6081 -6 
L 5741 -397 
Q 5138 78 4397 347 
Q 3681 -184 2222 -453 
L 1900 0 
Q 3375 222 3788 525 
Q 3325 647 2497 750 
Q 2931 1184 3169 1550 
L 2350 1550 
L 2350 2009 
L 3456 2009 
Q 3581 2197 3738 2613 
L 2209 2613 
L 2209 3072 
L 3391 3072 
Q 3234 3597 2766 4019 
L 3138 4184 
L 2381 4184 
L 2381 4647 
L 3803 4647 
L 3803 5288 
L 4288 5288 
L 4288 4647 
L 5838 4647 
L 5838 4184 
L 5050 4184 
L 5416 4013 
Q 5159 3478 4838 3072 
L 6081 3072 
L 6081 2613 
L 3841 2613 
L 4225 2419 
Q 4116 2150 4025 2009 
L 5953 2009 
L 5953 1550 
L 5253 1550 
Q 5163 1266 4728 722 
Q 5403 466 6081 -6 
z
M 4928 4184 
L 3206 4184 
Q 3719 3725 3878 3181 
L 3591 3078 
L 3591 3072 
L 4306 3072 
Q 4647 3528 4928 4184 
z
M 4722 1550 
L 3781 1550 
Q 3541 1206 3444 1075 
L 4250 884 
Q 4575 1144 4722 1550 
z
" transform="scale(0.015625)"/>
       </defs>
       <use xlink:href="#ArialUnicodeMS-793e"/>
       <use xlink:href="#ArialUnicodeMS-4f1a" x="100"/>
       <use xlink:href="#ArialUnicodeMS-8fde" x="200"/>
       <use xlink:href="#ArialUnicodeMS-63a5" x="300"/>
      </g>
     </g>
    </g>
    <g id="xtick_6">
     <g id="line2d_6">
      <path d="M 182.72 179.877812 
L 255.48 305.901829 
" clip-path="url(#p07782a11d8)" style="fill: none; stroke: #b0b0b0; stroke-width: 0.8; stroke-linecap: square"/>
     </g>
     <g id="text_6">
      <!-- 认知活跃 -->
      <g transform="translate(246.48 320.092435) scale(0.08 -0.08)">
       <defs>
        <path id="ArialUnicodeMS-8ba4" d="M 6131 -31 
L 5734 -397 
Q 4778 425 4122 2125 
Q 3663 438 2400 -397 
L 2034 -13 
Q 2647 366 3090 980 
Q 3534 1594 3700 2439 
Q 3866 3284 3853 5288 
L 4341 5288 
Q 4334 4584 4313 4119 
L 4263 3150 
Q 4263 3069 4584 2212 
Q 4906 1356 5306 825 
Q 5706 294 6131 -31 
z
M 2253 4366 
L 1844 4063 
Q 1419 4769 941 5025 
L 1319 5288 
Q 1922 4947 2253 4366 
z
M 2869 928 
L 1484 97 
L 1241 569 
Q 1313 581 1313 744 
L 1313 3109 
L 459 3109 
L 459 3578 
L 1772 3578 
L 1772 872 
L 2869 1416 
L 2869 928 
z
" transform="scale(0.015625)"/>
        <path id="ArialUnicodeMS-77e5" d="M 3803 594 
L 3475 225 
Q 2947 866 2322 1178 
Q 1841 181 744 -469 
L 441 -38 
Q 1378 603 1693 1101 
Q 2009 1600 2075 2247 
L 697 2247 
L 697 2731 
L 2119 2731 
L 2144 3891 
L 1644 3891 
Q 1384 3269 978 2803 
L 538 3066 
Q 1347 3944 1509 5363 
L 1984 5253 
Q 1984 5056 1806 4359 
L 3603 4359 
L 3603 3891 
L 2625 3891 
Q 2625 3144 2584 2731 
L 3688 2731 
L 3688 2247 
L 2566 2247 
Q 2491 1741 2463 1650 
Q 3122 1341 3803 594 
z
M 5831 72 
L 5325 72 
L 5325 556 
L 4319 556 
L 4319 72 
L 3834 72 
L 3834 4728 
L 5831 4728 
L 5831 72 
z
M 5325 1025 
L 5325 4263 
L 4319 4263 
L 4319 1025 
L 5325 1025 
z
" transform="scale(0.015625)"/>
        <path id="ArialUnicodeMS-6d3b" d="M 6028 3028 
L 4219 3028 
L 4219 1953 
L 5528 1953 
L 5528 -428 
L 5044 -428 
L 5044 -19 
L 2900 -19 
L 2900 -447 
L 2413 -447 
L 2413 1953 
L 3731 1953 
L 3731 3028 
L 1925 3028 
L 1925 3488 
L 3731 3488 
L 3731 4341 
Q 3369 4288 2375 4250 
L 2119 4722 
Q 4253 4731 5394 5288 
L 5734 4922 
Q 4781 4484 4219 4391 
L 4219 3488 
L 6028 3488 
L 6028 3028 
z
M 5044 441 
L 5044 1491 
L 2900 1491 
L 2900 441 
L 5044 441 
z
M 2216 4219 
L 1875 3872 
Q 1409 4444 744 4709 
L 1069 5038 
Q 1759 4778 2216 4219 
z
M 1722 2725 
L 1375 2381 
Q 994 2997 275 3291 
L 653 3622 
Q 1403 3247 1722 2725 
z
M 1991 1941 
Q 1625 600 813 -269 
L 422 13 
Q 1250 906 1588 2131 
L 1991 1941 
z
" transform="scale(0.015625)"/>
        <path id="ArialUnicodeMS-8dc3" d="M 6163 -72 
L 5797 -397 
Q 5294 -16 4898 771 
Q 4503 1559 4331 2503 
L 4319 2503 
Q 4106 656 2503 -409 
L 2156 -13 
Q 3628 1000 3853 2638 
L 2463 2638 
L 2463 3103 
L 3891 3103 
Q 3909 4216 3909 4366 
Q 3397 4247 2956 4231 
L 2694 4744 
Q 4109 4700 5259 5325 
L 5466 4934 
Q 4913 4625 4397 4488 
L 4378 3103 
L 5844 3103 
L 5844 2638 
L 4756 2638 
Q 5056 997 6163 -72 
z
M 2638 594 
Q 2166 431 531 -50 
L 250 428 
L 575 494 
L 575 2753 
L 1063 2753 
L 1063 603 
L 1478 716 
L 1478 3238 
L 653 3238 
L 653 5031 
L 2572 5031 
L 2572 3238 
L 1966 3238 
L 1966 2169 
L 2572 2169 
L 2572 1703 
L 1966 1703 
L 1966 878 
Q 2175 931 2638 1075 
L 2638 594 
z
M 2088 3706 
L 2088 4563 
L 1106 4563 
L 1106 3706 
L 2088 3706 
z
" transform="scale(0.015625)"/>
       </defs>
       <use xlink:href="#ArialUnicodeMS-8ba4"/>
       <use xlink:href="#ArialUnicodeMS-77e5" x="100"/>
       <use xlink:href="#ArialUnicodeMS-6d3b" x="200"/>
       <use xlink:href="#ArialUnicodeMS-8dc3" x="300"/>
      </g>
     </g>
    </g>
   </g>
   <g id="matplotlib.axis_2">
    <g id="ytick_1">
     <g id="line2d_7">
      <path d="M 200.91 179.877812 
C 200.91 177.489124 200.43948 175.123662 199.525369 172.916801 
C 198.611257 170.70994 197.27133 168.704598 195.582272 167.01554 
C 193.893214 165.326482 191.887872 163.986555 189.681012 163.072444 
C 187.474151 162.158332 185.108689 161.687812 182.72 161.687812 
C 180.331311 161.687812 177.965849 162.158332 175.758988 163.072444 
C 173.552128 163.986555 171.546786 165.326482 169.857728 167.01554 
C 168.16867 168.704598 166.828743 170.70994 165.914631 172.916801 
C 165.00052 175.123662 164.53 177.489124 164.53 179.877812 
C 164.53 182.266501 165.00052 184.631963 165.914631 186.838824 
C 166.828743 189.045685 168.16867 191.051027 169.857728 192.740085 
C 171.546786 194.429143 173.552128 195.76907 175.758988 196.683181 
C 177.965849 197.597293 180.331311 198.067812 182.72 198.067812 
C 185.108689 198.067812 187.474151 197.597293 189.681012 196.683181 
C 191.887872 195.76907 193.893214 194.429143 195.582272 192.740085 
C 197.27133 191.051027 198.611257 189.045685 199.525369 186.838824 
C 200.43948 184.631963 200.91 182.266501 200.91 179.877812 
" clip-path="url(#p07782a11d8)" style="fill: none; stroke: #b0b0b0; stroke-width: 0.8; stroke-linecap: square"/>
     </g>
     <g id="text_7">
      <!-- 0.5 -->
      <g transform="translate(199.525369 170.924613) scale(0.1 -0.1)">
       <defs>
        <path id="ArialUnicodeMS-30" d="M 1778 4603 
Q 3272 4603 3272 2259 
Q 3272 1075 2886 498 
Q 2500 -78 1778 -78 
Q 288 -78 288 2259 
Q 288 3444 673 4023 
Q 1059 4603 1778 4603 
z
M 1778 384 
Q 2231 384 2462 823 
Q 2694 1263 2694 2259 
Q 2694 2953 2592 3351 
Q 2491 3750 2286 3945 
Q 2081 4141 1772 4141 
Q 1319 4141 1091 3694 
Q 863 3247 863 2259 
Q 863 1575 966 1175 
Q 1069 775 1272 579 
Q 1475 384 1778 384 
z
" transform="scale(0.015625)"/>
        <path id="ArialUnicodeMS-2e" d="M 1209 0 
L 569 0 
L 569 641 
L 1209 641 
L 1209 0 
z
" transform="scale(0.015625)"/>
        <path id="ArialUnicodeMS-35" d="M 1013 2753 
Q 1431 3041 1881 3041 
Q 2453 3041 2878 2636 
Q 3303 2231 3303 1556 
Q 3303 875 2872 398 
Q 2441 -78 1741 -78 
Q 1169 -78 750 245 
Q 331 569 269 1203 
L 856 1247 
Q 928 813 1162 598 
Q 1397 384 1741 384 
Q 2169 384 2434 707 
Q 2700 1031 2700 1503 
Q 2700 1984 2428 2262 
Q 2156 2541 1728 2541 
Q 1188 2541 897 2100 
L 366 2163 
L 813 4519 
L 3084 4519 
L 3084 3975 
L 1259 3975 
L 1013 2753 
z
" transform="scale(0.015625)"/>
       </defs>
       <use xlink:href="#ArialUnicodeMS-30"/>
       <use xlink:href="#ArialUnicodeMS-2e" x="55.615234"/>
       <use xlink:href="#ArialUnicodeMS-35" x="83.398438"/>
      </g>
     </g>
    </g>
    <g id="ytick_2">
     <g id="line2d_8">
      <path d="M 219.1 179.877812 
C 219.1 175.100435 218.158961 170.369511 216.330737 165.955789 
C 214.502514 161.542068 211.822661 157.531384 208.444545 154.153268 
C 205.066428 150.775152 201.055745 148.095298 196.642023 146.267075 
C 192.228302 144.438852 187.497378 143.497812 182.72 143.497812 
C 177.942622 143.497812 173.211698 144.438852 168.797977 146.267075 
C 164.384255 148.095298 160.373572 150.775152 156.995455 154.153268 
C 153.617339 157.531384 150.937486 161.542068 149.109263 165.955789 
C 147.281039 170.369511 146.34 175.100435 146.34 179.877812 
C 146.34 184.65519 147.281039 189.386114 149.109263 193.799836 
C 150.937486 198.213557 153.617339 202.224241 156.995455 205.602357 
C 160.373572 208.980473 164.384255 211.660327 168.797977 213.48855 
C 173.211698 215.316773 177.942622 216.257812 182.72 216.257812 
C 187.497378 216.257812 192.228302 215.316773 196.642023 213.48855 
C 201.055745 211.660327 205.066428 208.980473 208.444545 205.602357 
C 211.822661 202.224241 214.502514 198.213557 216.330737 193.799836 
C 218.158961 189.386114 219.1 184.65519 219.1 179.877812 
" clip-path="url(#p07782a11d8)" style="fill: none; stroke: #b0b0b0; stroke-width: 0.8; stroke-linecap: square"/>
     </g>
     <g id="text_8">
      <!-- 1.0 -->
      <g transform="translate(216.330737 163.963602) scale(0.1 -0.1)">
       <defs>
        <path id="ArialUnicodeMS-31" d="M 2400 0 
L 1838 0 
L 1838 3584 
Q 1416 3184 709 2906 
L 709 3450 
Q 1681 3916 2034 4603 
L 2400 4603 
L 2400 0 
z
" transform="scale(0.015625)"/>
       </defs>
       <use xlink:href="#ArialUnicodeMS-31"/>
       <use xlink:href="#ArialUnicodeMS-2e" x="55.615234"/>
       <use xlink:href="#ArialUnicodeMS-30" x="83.398438"/>
      </g>
     </g>
    </g>
    <g id="ytick_3">
     <g id="line2d_9">
      <path d="M 237.29 179.877812 
C 237.29 172.711746 235.878441 165.61536 233.136106 158.994778 
C 230.393771 152.374195 226.373991 146.35817 221.306817 141.290995 
C 216.239643 136.223821 210.223617 132.204041 203.603035 129.461706 
C 196.982453 126.719371 189.886067 125.307812 182.72 125.307812 
C 175.553933 125.307812 168.457547 126.719371 161.836965 129.461706 
C 155.216383 132.204041 149.200357 136.223821 144.133183 141.290995 
C 139.066009 146.35817 135.046229 152.374195 132.303894 158.994778 
C 129.561559 165.61536 128.15 172.711746 128.15 179.877812 
C 128.15 187.043879 129.561559 194.140265 132.303894 200.760847 
C 135.046229 207.38143 139.066009 213.397455 144.133183 218.46463 
C 149.200357 223.531804 155.216383 227.551584 161.836965 230.293919 
C 168.457547 233.036254 175.553933 234.447812 182.72 234.447812 
C 189.886067 234.447812 196.982453 233.036254 203.603035 230.293919 
C 210.223617 227.551584 216.239643 223.531804 221.306817 218.46463 
C 226.373991 213.397455 230.393771 207.38143 233.136106 200.760847 
C 235.878441 194.140265 237.29 187.043879 237.29 179.877812 
" clip-path="url(#p07782a11d8)" style="fill: none; stroke: #b0b0b0; stroke-width: 0.8; stroke-linecap: square"/>
     </g>
     <g id="text_9">
      <!-- 1.5 -->
      <g transform="translate(233.136106 157.00259) scale(0.1 -0.1)">
       <use xlink:href="#ArialUnicodeMS-31"/>
       <use xlink:href="#ArialUnicodeMS-2e" x="55.615234"/>
       <use xlink:href="#ArialUnicodeMS-35" x="83.398438"/>
      </g>
     </g>
    </g>
    <g id="ytick_4">
     <g id="line2d_10">
      <path d="M 255.48 179.877812 
C 255.48 170.323057 253.597921 160.861209 249.941475 152.033766 
C 246.285028 143.206323 240.925322 135.184956 234.169089 128.428723 
C 227.412857 121.672491 219.39149 116.312784 210.564047 112.656338 
C 201.736603 108.999891 192.274756 107.117812 182.72 107.117812 
C 173.165244 107.117812 163.703397 108.999891 154.875953 112.656338 
C 146.04851 116.312784 138.027143 121.672491 131.270911 128.428723 
C 124.514678 135.184956 119.154972 143.206323 115.498525 152.033766 
C 111.842079 160.861209 109.96 170.323057 109.96 179.877812 
C 109.96 189.432568 111.842079 198.894416 115.498525 207.721859 
C 119.154972 216.549302 124.514678 224.570669 131.270911 231.326902 
C 138.027143 238.083134 146.04851 243.442841 154.875953 247.099287 
C 163.703397 250.755734 173.165244 252.637812 182.72 252.637812 
C 192.274756 252.637812 201.736603 250.755734 210.564047 247.099287 
C 219.39149 243.442841 227.412857 238.083134 234.169089 231.326902 
C 240.925322 224.570669 246.285028 216.549302 249.941475 207.721859 
C 253.597921 198.894416 255.48 189.432568 255.48 179.877812 
" clip-path="url(#p07782a11d8)" style="fill: none; stroke: #b0b0b0; stroke-width: 0.8; stroke-linecap: square"/>
     </g>
     <g id="text_10">
      <!-- 2.0 -->
      <g transform="translate(249.941475 150.041578) scale(0.1 -0.1)">
       <defs>
        <path id="ArialUnicodeMS-32" d="M 3231 0 
L 197 0 
Q 197 388 467 784 
Q 738 1181 1478 1778 
Q 1931 2141 2287 2539 
Q 2644 2938 2644 3341 
Q 2644 3688 2398 3914 
Q 2153 4141 1778 4141 
Q 1400 4141 1144 3908 
Q 888 3675 884 3213 
L 306 3278 
Q 359 3922 764 4262 
Q 1169 4603 1791 4603 
Q 2466 4603 2842 4229 
Q 3219 3856 3219 3328 
Q 3219 2888 2901 2436 
Q 2584 1984 1638 1228 
Q 1141 831 978 544 
L 3231 544 
L 3231 0 
z
" transform="scale(0.015625)"/>
       </defs>
       <use xlink:href="#ArialUnicodeMS-32"/>
       <use xlink:href="#ArialUnicodeMS-2e" x="55.615234"/>
       <use xlink:href="#ArialUnicodeMS-30" x="83.398438"/>
      </g>
     </g>
    </g>
    <g id="ytick_5">
     <g id="line2d_11">
      <path d="M 273.67 179.877812 
C 273.67 167.934368 271.317402 156.107058 266.746843 145.072754 
C 262.176285 134.03845 255.476652 124.011741 247.031362 115.566451 
C 238.586071 107.12116 228.559362 100.421527 217.525058 95.850969 
C 206.490754 91.280411 194.663445 88.927812 182.72 88.927812 
C 170.776555 88.927812 158.949246 91.280411 147.914942 95.850969 
C 136.880638 100.421527 126.853929 107.12116 118.408638 115.566451 
C 109.963348 124.011741 103.263715 134.03845 98.693157 145.072754 
C 94.122598 156.107058 91.77 167.934368 91.77 179.877812 
C 91.77 191.821257 94.122598 203.648567 98.693157 214.682871 
C 103.263715 225.717175 109.963348 235.743884 118.408638 244.189174 
C 126.853929 252.634465 136.880638 259.334098 147.914942 263.904656 
C 158.949246 268.475214 170.776555 270.827812 182.72 270.827812 
C 194.663445 270.827812 206.490754 268.475214 217.525058 263.904656 
C 228.559362 259.334098 238.586071 252.634465 247.031362 244.189174 
C 255.476652 235.743884 262.176285 225.717175 266.746843 214.682871 
C 271.317402 203.648567 273.67 191.821257 273.67 179.877812 
" clip-path="url(#p07782a11d8)" style="fill: none; stroke: #b0b0b0; stroke-width: 0.8; stroke-linecap: square"/>
     </g>
     <g id="text_11">
      <!-- 2.5 -->
      <g transform="translate(266.746843 143.080567) scale(0.1 -0.1)">
       <use xlink:href="#ArialUnicodeMS-32"/>
       <use xlink:href="#ArialUnicodeMS-2e" x="55.615234"/>
       <use xlink:href="#ArialUnicodeMS-35" x="83.398438"/>
      </g>
     </g>
    </g>
    <g id="ytick_6">
     <g id="line2d_12">
      <path d="M 291.86 179.877812 
C 291.86 165.545679 289.036882 151.352907 283.552212 138.111743 
C 278.067542 124.870578 270.027983 112.838527 259.893634 102.704178 
C 249.759285 92.56983 237.727235 84.53027 224.48607 79.0456 
C 211.244905 73.56093 197.052133 70.737812 182.72 70.737812 
C 168.387867 70.737812 154.195095 73.56093 140.95393 79.0456 
C 127.712765 84.53027 115.680715 92.56983 105.546366 102.704178 
C 95.412017 112.838527 87.372458 124.870578 81.887788 138.111743 
C 76.403118 151.352907 73.58 165.545679 73.58 179.877812 
C 73.58 194.209946 76.403118 208.402718 81.887788 221.643882 
C 87.372458 234.885047 95.412017 246.917098 105.546366 257.051447 
C 115.680715 267.185795 127.712765 275.225355 140.95393 280.710025 
C 154.195095 286.194695 168.387867 289.017812 182.72 289.017812 
C 197.052133 289.017812 211.244905 286.194695 224.48607 280.710025 
C 237.727235 275.225355 249.759285 267.185795 259.893634 257.051447 
C 270.027983 246.917098 278.067542 234.885047 283.552212 221.643882 
C 289.036882 208.402718 291.86 194.209946 291.86 179.877812 
" clip-path="url(#p07782a11d8)" style="fill: none; stroke: #b0b0b0; stroke-width: 0.8; stroke-linecap: square"/>
     </g>
     <g id="text_12">
      <!-- 3.0 -->
      <g transform="translate(283.552212 136.119555) scale(0.1 -0.1)">
       <defs>
        <path id="ArialUnicodeMS-33" d="M 2425 2478 
Q 2850 2397 3067 2067 
Q 3284 1738 3284 1350 
Q 3284 725 2829 323 
Q 2375 -78 1741 -78 
Q 1134 -78 740 275 
Q 347 628 281 1209 
L 844 1288 
Q 928 834 1151 609 
Q 1375 384 1741 384 
Q 2134 384 2407 661 
Q 2681 938 2681 1338 
Q 2681 1722 2432 1975 
Q 2184 2228 1784 2228 
Q 1622 2228 1388 2169 
L 1453 2663 
Q 1678 2663 1809 2684 
Q 1941 2706 2103 2790 
Q 2266 2875 2372 3033 
Q 2478 3191 2478 3425 
Q 2478 3766 2251 3953 
Q 2025 4141 1728 4141 
Q 1388 4141 1173 3925 
Q 959 3709 903 3309 
L 341 3413 
Q 450 4009 823 4306 
Q 1197 4603 1716 4603 
Q 2288 4603 2670 4258 
Q 3053 3913 3053 3413 
Q 3053 2772 2425 2491 
L 2425 2478 
z
" transform="scale(0.015625)"/>
       </defs>
       <use xlink:href="#ArialUnicodeMS-33"/>
       <use xlink:href="#ArialUnicodeMS-2e" x="55.615234"/>
       <use xlink:href="#ArialUnicodeMS-30" x="83.398438"/>
      </g>
     </g>
    </g>
    <g id="ytick_7">
     <g id="line2d_13">
      <path d="M 310.05 179.877812 
C 310.05 163.15699 306.756363 146.598757 300.357581 131.150731 
C 293.958799 115.702705 284.579313 101.665313 272.755906 89.841906 
C 260.9325 78.018499 246.895107 68.639013 231.447081 62.240232 
C 215.999056 55.84145 199.440822 52.547812 182.72 52.547812 
C 165.999178 52.547812 149.440944 55.84145 133.992919 62.240232 
C 118.544893 68.639013 104.5075 78.018499 92.684094 89.841906 
C 80.860687 101.665313 71.481201 115.702705 65.082419 131.150731 
C 58.683637 146.598757 55.39 163.15699 55.39 179.877812 
C 55.39 196.598635 58.683637 213.156868 65.082419 228.604894 
C 71.481201 244.05292 80.860687 258.090312 92.684094 269.913719 
C 104.5075 281.737126 118.544893 291.116612 133.992919 297.515393 
C 149.440944 303.914175 165.999178 307.207812 182.72 307.207812 
C 199.440822 307.207812 215.999056 303.914175 231.447081 297.515393 
C 246.895107 291.116612 260.9325 281.737126 272.755906 269.913719 
C 284.579313 258.090312 293.958799 244.05292 300.357581 228.604894 
C 306.756363 213.156868 310.05 196.598635 310.05 179.877812 
" clip-path="url(#p07782a11d8)" style="fill: none; stroke: #b0b0b0; stroke-width: 0.8; stroke-linecap: square"/>
     </g>
     <g id="text_13">
      <!-- 3.5 -->
      <g transform="translate(300.357581 129.158544) scale(0.1 -0.1)">
       <use xlink:href="#ArialUnicodeMS-33"/>
       <use xlink:href="#ArialUnicodeMS-2e" x="55.615234"/>
       <use xlink:href="#ArialUnicodeMS-35" x="83.398438"/>
      </g>
     </g>
    </g>
    <g id="ytick_8">
     <g id="line2d_14">
      <path d="M 328.24 179.877812 
C 328.24 160.768301 324.475843 141.844606 317.16295 124.189719 
C 309.850056 106.534833 299.130644 90.492099 285.618179 76.979634 
C 272.105714 63.467169 256.062979 52.747756 238.408093 45.434863 
C 220.753207 38.12197 201.829511 34.357812 182.72 34.357812 
C 163.610489 34.357812 144.686793 38.12197 127.031907 45.434863 
C 109.377021 52.747756 93.334286 63.467169 79.821821 76.979634 
C 66.309356 90.492099 55.589944 106.534833 48.27705 124.189719 
C 40.964157 141.844606 37.2 160.768301 37.2 179.877812 
C 37.2 198.987324 40.964157 217.911019 48.27705 235.565906 
C 55.589944 253.220792 66.309356 269.263526 79.821821 282.775991 
C 93.334286 296.288456 109.377021 307.007869 127.031907 314.320762 
C 144.686793 321.633655 163.610489 325.397812 182.72 325.397812 
C 201.829511 325.397812 220.753207 321.633655 238.408093 314.320762 
C 256.062979 307.007869 272.105714 296.288456 285.618179 282.775991 
C 299.130644 269.263526 309.850056 253.220792 317.16295 235.565906 
C 324.475843 217.911019 328.24 198.987324 328.24 179.877812 
" clip-path="url(#p07782a11d8)" style="fill: none; stroke: #b0b0b0; stroke-width: 0.8; stroke-linecap: square"/>
     </g>
     <g id="text_14">
      <!-- 4.0 -->
      <g transform="translate(317.16295 122.197532) scale(0.1 -0.1)">
       <defs>
        <path id="ArialUnicodeMS-34" d="M 3263 1094 
L 2644 1094 
L 2644 0 
L 2081 0 
L 2081 1094 
L 97 1094 
L 97 1613 
L 2181 4581 
L 2644 4581 
L 2644 1613 
L 3263 1613 
L 3263 1094 
z
M 2081 1613 
L 2081 3681 
L 2069 3681 
L 647 1613 
L 2081 1613 
z
" transform="scale(0.015625)"/>
       </defs>
       <use xlink:href="#ArialUnicodeMS-34"/>
       <use xlink:href="#ArialUnicodeMS-2e" x="55.615234"/>
       <use xlink:href="#ArialUnicodeMS-30" x="83.398438"/>
      </g>
     </g>
    </g>
   </g>
   <g id="line2d_15">
    <path d="M 265.787667 179.877812 
L 217.887333 118.966204 
L 136.941833 100.587702 
L 93.589 179.877812 
L 133.000667 265.994224 
L 232.136167 265.469124 
L 265.787667 179.877812 
" clip-path="url(#p07782a11d8)" style="fill: none; stroke: #0ea5e9; stroke-width: 2; stroke-linecap: square"/>
    <defs>
     <path id="m6fb431afef" d="M 0 3 
C 0.795609 3 1.55874 2.683901 2.12132 2.12132 
C 2.683901 1.55874 3 0.795609 3 0 
C 3 -0.795609 2.683901 -1.55874 2.12132 -2.12132 
C 1.55874 -2.683901 0.795609 -3 0 -3 
C -0.795609 -3 -1.55874 -2.683901 -2.12132 -2.12132 
C -2.683901 -1.55874 -3 -0.795609 -3 0 
C -3 0.795609 -2.683901 1.55874 -2.12132 2.12132 
C -1.55874 2.683901 -0.795609 3 0 3 
z
" style="stroke: #0ea5e9"/>
    </defs>
    <g clip-path="url(#p07782a11d8)">
     <use xlink:href="#m6fb431afef" x="265.787667" y="179.877812" style="fill: #0ea5e9; stroke: #0ea5e9"/>
     <use xlink:href="#m6fb431afef" x="217.887333" y="118.966204" style="fill: #0ea5e9; stroke: #0ea5e9"/>
     <use xlink:href="#m6fb431afef" x="136.941833" y="100.587702" style="fill: #0ea5e9; stroke: #0ea5e9"/>
     <use xlink:href="#m6fb431afef" x="93.589" y="179.877812" style="fill: #0ea5e9; stroke: #0ea5e9"/>
     <use xlink:href="#m6fb431afef" x="133.000667" y="265.994224" style="fill: #0ea5e9; stroke: #0ea5e9"/>
     <use xlink:href="#m6fb431afef" x="232.136167" y="265.469124" style="fill: #0ea5e9; stroke: #0ea5e9"/>
     <use xlink:href="#m6fb431afef" x="265.787667" y="179.877812" style="fill: #0ea5e9; stroke: #0ea5e9"/>
    </g>
   </g>
   <g id="patch_4">
    <path d="M 328.24 179.877812 
C 328.24 160.768301 324.475843 141.844606 317.16295 124.189719 
C 309.850056 106.534833 299.130644 90.492099 285.618179 76.979634 
C 272.105714 63.467169 256.062979 52.747756 238.408093 45.434863 
C 220.753207 38.12197 201.829511 34.357812 182.72 34.357812 
C 163.610489 34.357812 144.686793 38.12197 127.031907 45.434863 
C 109.377021 52.747756 93.334286 63.467169 79.821821 76.979634 
C 66.309356 90.492099 55.589944 106.534833 48.27705 124.189719 
C 40.964157 141.844606 37.2 160.768301 37.2 179.877812 
C 37.2 198.987324 40.964157 217.911019 48.27705 235.565906 
C 55.589944 253.220792 66.309356 269.263526 79.821821 282.775991 
C 93.334286 296.288456 109.377021 307.007869 127.031907 314.320762 
C 144.686793 321.633655 163.610489 325.397812 182.72 325.397812 
C 201.829511 325.397812 220.753207 321.633655 238.408093 314.320762 
C 256.062979 307.007869 272.105714 296.288456 285.618179 282.775991 
C 299.130644 269.263526 309.850056 253.220792 317.16295 235.565906 
C 324.475843 217.911019 328.24 198.987324 328.24 179.877812 
" style="fill: none; stroke: #000000; stroke-width: 0.8; stroke-linejoin: miter; stroke-linecap: square"/>
   </g>
   <g id="text_15">
    <!-- Six-Dimension Score Profile -->
    <g transform="translate(120.478594 14.357812) scale(0.1 -0.1)">
     <defs>
      <path id="ArialUnicodeMS-53" d="M 3213 3238 
Q 3175 3675 2897 3895 
Q 2619 4116 2100 4116 
Q 1631 4116 1337 3941 
Q 1044 3766 1044 3431 
Q 1044 3134 1270 2989 
Q 1497 2844 2138 2700 
Q 2706 2575 3065 2444 
Q 3425 2313 3681 2036 
Q 3938 1759 3938 1294 
Q 3938 703 3467 312 
Q 2997 -78 2241 -78 
Q 1275 -78 795 353 
Q 316 784 288 1472 
L 863 1522 
Q 903 972 1287 720 
Q 1672 469 2216 469 
Q 2725 469 3039 678 
Q 3353 888 3353 1247 
Q 3353 1622 3025 1794 
Q 2697 1966 1923 2133 
Q 1150 2300 809 2603 
Q 469 2906 469 3391 
Q 469 3941 900 4300 
Q 1331 4659 2075 4659 
Q 2838 4659 3302 4301 
Q 3766 3944 3794 3284 
L 3213 3238 
z
" transform="scale(0.015625)"/>
      <path id="ArialUnicodeMS-69" d="M 991 0 
L 428 0 
L 428 3316 
L 991 3316 
L 991 0 
z
M 991 3944 
L 428 3944 
L 428 4581 
L 991 4581 
L 991 3944 
z
" transform="scale(0.015625)"/>
      <path id="ArialUnicodeMS-78" d="M 3156 0 
L 2463 0 
L 1600 1313 
L 728 0 
L 44 0 
L 1259 1728 
L 141 3316 
L 838 3316 
Q 1519 2288 1581 2169 
L 2394 3316 
L 3066 3316 
L 1919 1759 
L 3156 0 
z
" transform="scale(0.015625)"/>
      <path id="ArialUnicodeMS-2d" d="M 1925 1375 
L 206 1375 
L 206 1941 
L 1925 1941 
L 1925 1375 
z
" transform="scale(0.015625)"/>
      <path id="ArialUnicodeMS-44" d="M 513 4581 
L 2094 4581 
Q 2509 4581 2809 4539 
Q 3109 4497 3382 4333 
Q 3656 4169 3861 3881 
Q 4066 3594 4183 3220 
Q 4300 2847 4300 2316 
Q 4300 1303 3819 651 
Q 3338 0 2163 0 
L 513 0 
L 513 4581 
z
M 1119 544 
L 2100 544 
Q 2400 544 2636 581 
Q 2872 619 3114 784 
Q 3356 950 3515 1328 
Q 3675 1706 3675 2328 
Q 3675 2672 3614 2970 
Q 3553 3269 3389 3514 
Q 3225 3759 3012 3873 
Q 2800 3988 2598 4013 
Q 2397 4038 2081 4038 
L 1119 4038 
L 1119 544 
z
" transform="scale(0.015625)"/>
      <path id="ArialUnicodeMS-6d" d="M 4922 0 
L 4359 0 
L 4359 2094 
Q 4359 2325 4328 2489 
Q 4297 2653 4167 2779 
Q 4038 2906 3763 2906 
Q 3431 2906 3190 2675 
Q 2950 2444 2950 1925 
L 2950 0 
L 2388 0 
L 2388 2156 
Q 2388 2588 2236 2747 
Q 2084 2906 1806 2906 
Q 1444 2906 1211 2656 
Q 978 2406 978 1722 
L 978 0 
L 416 0 
L 416 3316 
L 922 3316 
L 922 2853 
L 934 2853 
Q 1272 3391 1925 3391 
Q 2291 3391 2527 3245 
Q 2763 3100 2869 2809 
Q 3238 3391 3891 3391 
Q 4406 3391 4664 3112 
Q 4922 2834 4922 2278 
L 4922 0 
z
" transform="scale(0.015625)"/>
      <path id="ArialUnicodeMS-65" d="M 3309 1516 
L 825 1516 
Q 859 966 1139 675 
Q 1419 384 1838 384 
Q 2159 384 2378 554 
Q 2597 725 2713 1069 
L 3291 997 
Q 3150 478 2775 200 
Q 2400 -78 1838 -78 
Q 1091 -78 670 380 
Q 250 838 250 1631 
Q 250 2416 658 2903 
Q 1066 3391 1806 3391 
Q 2169 3391 2505 3231 
Q 2841 3072 3075 2689 
Q 3309 2306 3309 1516 
z
M 2731 1978 
Q 2697 2484 2417 2707 
Q 2138 2931 1806 2931 
Q 1409 2931 1153 2665 
Q 897 2400 856 1978 
L 2731 1978 
z
" transform="scale(0.015625)"/>
      <path id="ArialUnicodeMS-6e" d="M 3138 0 
L 2572 0 
L 2572 2016 
Q 2572 2525 2389 2715 
Q 2206 2906 1881 2906 
Q 1631 2906 1407 2784 
Q 1184 2663 1090 2441 
Q 997 2219 997 1813 
L 997 0 
L 434 0 
L 434 3316 
L 941 3316 
L 941 2847 
L 953 2847 
Q 1131 3119 1392 3255 
Q 1653 3391 1997 3391 
Q 2259 3391 2515 3297 
Q 2772 3203 2917 3015 
Q 3063 2828 3100 2615 
Q 3138 2403 3138 2041 
L 3138 0 
z
" transform="scale(0.015625)"/>
      <path id="ArialUnicodeMS-73" d="M 2278 2388 
Q 2241 2659 2058 2795 
Q 1875 2931 1550 2931 
Q 1228 2931 1029 2822 
Q 831 2713 831 2503 
Q 831 2306 989 2222 
Q 1147 2138 1613 2016 
Q 2138 1881 2398 1778 
Q 2659 1675 2804 1489 
Q 2950 1303 2950 972 
Q 2950 528 2587 225 
Q 2225 -78 1619 -78 
Q 988 -78 633 189 
Q 278 456 197 991 
L 756 1075 
Q 800 728 1014 556 
Q 1228 384 1613 384 
Q 1981 384 2178 539 
Q 2375 694 2375 916 
Q 2375 1066 2284 1156 
Q 2194 1247 2058 1292 
Q 1922 1338 1447 1453 
Q 741 1622 514 1862 
Q 288 2103 288 2438 
Q 288 2853 619 3122 
Q 950 3391 1509 3391 
Q 2103 3391 2433 3158 
Q 2763 2925 2828 2463 
L 2278 2388 
z
" transform="scale(0.015625)"/>
      <path id="ArialUnicodeMS-6f" d="M 1778 3391 
Q 2450 3391 2892 2953 
Q 3334 2516 3334 1709 
Q 3334 731 2856 326 
Q 2378 -78 1778 -78 
Q 1150 -78 687 337 
Q 225 753 225 1656 
Q 225 2531 672 2961 
Q 1119 3391 1778 3391 
z
M 1778 384 
Q 2259 384 2509 740 
Q 2759 1097 2759 1678 
Q 2759 2300 2476 2615 
Q 2194 2931 1778 2931 
Q 1350 2931 1075 2611 
Q 800 2291 800 1656 
Q 800 1025 1079 704 
Q 1359 384 1778 384 
z
" transform="scale(0.015625)"/>
      <path id="ArialUnicodeMS-20" transform="scale(0.015625)"/>
      <path id="ArialUnicodeMS-63" d="M 3144 1147 
Q 3034 513 2643 217 
Q 2253 -78 1759 -78 
Q 1038 -78 644 395 
Q 250 869 250 1650 
Q 250 2297 476 2686 
Q 703 3075 1043 3233 
Q 1384 3391 1759 3391 
Q 2272 3391 2636 3125 
Q 3000 2859 3084 2344 
L 2541 2259 
Q 2456 2594 2267 2762 
Q 2078 2931 1784 2931 
Q 1313 2931 1069 2597 
Q 825 2263 825 1663 
Q 825 1050 1064 717 
Q 1303 384 1753 384 
Q 2116 384 2323 592 
Q 2531 800 2584 1216 
L 3144 1147 
z
" transform="scale(0.015625)"/>
      <path id="ArialUnicodeMS-72" d="M 2216 3213 
L 2022 2694 
Q 1813 2816 1613 2816 
Q 1297 2816 1134 2533 
Q 972 2250 972 1741 
L 972 0 
L 409 0 
L 409 3316 
L 922 3316 
L 922 2816 
L 934 2816 
Q 1203 3391 1638 3391 
Q 1925 3391 2216 3213 
z
" transform="scale(0.015625)"/>
      <path id="ArialUnicodeMS-50" d="M 494 4581 
L 2222 4581 
Q 2631 4581 2926 4540 
Q 3222 4500 3475 4329 
Q 3728 4159 3858 3867 
Q 3988 3575 3988 3256 
Q 3988 2622 3580 2239 
Q 3172 1856 2272 1856 
L 1100 1856 
L 1100 0 
L 494 0 
L 494 4581 
z
M 1100 2400 
L 2278 2400 
Q 3359 2400 3359 3238 
Q 3359 3513 3218 3723 
Q 3078 3934 2873 3986 
Q 2669 4038 2266 4038 
L 1100 4038 
L 1100 2400 
z
" transform="scale(0.015625)"/>
      <path id="ArialUnicodeMS-66" d="M 1991 4603 
L 1906 4109 
Q 1738 4141 1575 4141 
Q 1372 4141 1242 4055 
Q 1113 3969 1113 3628 
L 1113 3316 
L 1753 3316 
L 1753 2881 
L 1113 2881 
L 1113 0 
L 550 0 
L 550 2881 
L 50 2881 
L 50 3316 
L 550 3316 
L 550 3675 
Q 550 3925 597 4128 
Q 644 4331 845 4495 
Q 1047 4659 1466 4659 
Q 1716 4659 1991 4603 
z
" transform="scale(0.015625)"/>
      <path id="ArialUnicodeMS-6c" d="M 991 0 
L 428 0 
L 428 4581 
L 991 4581 
L 991 0 
z
" transform="scale(0.015625)"/>
     </defs>
     <use xlink:href="#ArialUnicodeMS-53"/>
     <use xlink:href="#ArialUnicodeMS-69" x="66.699219"/>
     <use xlink:href="#ArialUnicodeMS-78" x="88.916016"/>
     <use xlink:href="#ArialUnicodeMS-2d" x="138.916016"/>
     <use xlink:href="#ArialUnicodeMS-44" x="172.216797"/>
     <use xlink:href="#ArialUnicodeMS-69" x="244.433594"/>
     <use xlink:href="#ArialUnicodeMS-6d" x="266.650391"/>
     <use xlink:href="#ArialUnicodeMS-65" x="349.951172"/>
     <use xlink:href="#ArialUnicodeMS-6e" x="405.566406"/>
     <use xlink:href="#ArialUnicodeMS-73" x="461.181641"/>
     <use xlink:href="#ArialUnicodeMS-69" x="511.181641"/>
     <use xlink:href="#ArialUnicodeMS-6f" x="533.398438"/>
     <use xlink:href="#ArialUnicodeMS-6e" x="589.013672"/>
     <use xlink:href="#ArialUnicodeMS-20" x="644.628906"/>
     <use xlink:href="#ArialUnicodeMS-53" x="672.412109"/>
     <use xlink:href="#ArialUnicodeMS-63" x="739.111328"/>
     <use xlink:href="#ArialUnicodeMS-6f" x="789.111328"/>
     <use xlink:href="#ArialUnicodeMS-72" x="844.726562"/>
     <use xlink:href="#ArialUnicodeMS-65" x="878.027344"/>
     <use xlink:href="#ArialUnicodeMS-20" x="933.642578"/>
     <use xlink:href="#ArialUnicodeMS-50" x="961.425781"/>
     <use xlink:href="#ArialUnicodeMS-72" x="1028.125"/>
     <use xlink:href="#ArialUnicodeMS-6f" x="1061.425781"/>
     <use xlink:href="#ArialUnicodeMS-66" x="1117.041016"/>
     <use xlink:href="#ArialUnicodeMS-69" x="1144.824219"/>
     <use xlink:href="#ArialUnicodeMS-6c" x="1167.041016"/>
     <use xlink:href="#ArialUnicodeMS-65" x="1189.257812"/>
    </g>
   </g>
   <g id="legend_1">
    <g id="patch_5">
     <path d="M 341.222 22.973812 
L 409.952 22.973812 
Q 411.552 22.973812 411.552 21.373812 
L 411.552 10.853812 
Q 411.552 9.253812 409.952 9.253812 
L 341.222 9.253812 
Q 339.622 9.253812 339.622 10.853812 
L 339.622 21.373812 
Q 339.622 22.973812 341.222 22.973812 
z
" style="fill: #ffffff; opacity: 0.8; stroke: #cccccc; stroke-linejoin: miter"/>
    </g>
    <g id="line2d_16">
     <path d="M 342.822 15.380062 
L 350.822 15.380062 
L 358.822 15.380062 
" style="fill: none; stroke: #0ea5e9; stroke-width: 2; stroke-linecap: square"/>
     <g>
      <use xlink:href="#m6fb431afef" x="350.822" y="15.380062" style="fill: #0ea5e9; stroke: #0ea5e9"/>
     </g>
    </g>
    <g id="text_16">
     <!-- Mean Score -->
     <g transform="translate(365.222 18.180062) scale(0.08 -0.08)">
      <defs>
       <path id="ArialUnicodeMS-4d" d="M 4844 0 
L 4269 0 
L 4269 3834 
L 4256 3834 
L 2938 0 
L 2394 0 
L 1081 3897 
L 1063 3897 
L 1063 0 
L 488 0 
L 488 4581 
L 1394 4581 
L 2478 1338 
Q 2659 797 2688 659 
L 2700 659 
Q 2784 925 2944 1394 
L 4038 4581 
L 4844 4581 
L 4844 0 
z
" transform="scale(0.015625)"/>
       <path id="ArialUnicodeMS-61" d="M 3303 0 
L 2713 0 
Q 2631 156 2597 409 
Q 2031 -78 1375 -78 
Q 850 -78 547 184 
Q 244 447 244 878 
Q 244 1291 536 1558 
Q 828 1825 1550 1913 
L 2075 1991 
Q 2369 2038 2559 2106 
Q 2559 2359 2543 2464 
Q 2528 2569 2451 2681 
Q 2375 2794 2206 2862 
Q 2038 2931 1753 2931 
Q 1391 2931 1180 2797 
Q 969 2663 891 2297 
L 341 2369 
Q 431 2878 806 3134 
Q 1181 3391 1838 3391 
Q 2434 3391 2714 3214 
Q 2994 3038 3058 2788 
Q 3122 2538 3122 2144 
L 3122 1388 
Q 3122 697 3148 461 
Q 3175 225 3303 0 
z
M 2559 1459 
L 2559 1663 
Q 2119 1516 1481 1430 
Q 844 1344 844 891 
Q 844 663 1016 514 
Q 1188 366 1509 366 
Q 1925 366 2242 614 
Q 2559 863 2559 1459 
z
" transform="scale(0.015625)"/>
      </defs>
      <use xlink:href="#ArialUnicodeMS-4d"/>
      <use xlink:href="#ArialUnicodeMS-65" x="83.300781"/>
      <use xlink:href="#ArialUnicodeMS-61" x="138.916016"/>
      <use xlink:href="#ArialUnicodeMS-6e" x="194.53125"/>
      <use xlink:href="#ArialUnicodeMS-20" x="250.146484"/>
      <use xlink:href="#ArialUnicodeMS-53" x="277.929688"/>
      <use xlink:href="#ArialUnicodeMS-63" x="344.628906"/>
      <use xlink:href="#ArialUnicodeMS-6f" x="394.628906"/>
      <use xlink:href="#ArialUnicodeMS-72" x="450.244141"/>
      <use xlink:href="#ArialUnicodeMS-65" x="483.544922"/>
     </g>
    </g>
   </g>
  </g>
 </g>
 <defs>
  <clipPath id="p07782a11d8">
   <path d="M 328.24 179.877812 
C 328.24 160.768301 324.475843 141.844606 317.16295 124.189719 
C 309.850056 106.534833 299.130644 90.492099 285.618179 76.979634 
C 272.105714 63.467169 256.062979 52.747756 238.408093 45.434863 
C 220.753207 38.12197 201.829511 34.357812 182.72 34.357812 
C 163.610489 34.357812 144.686793 38.12197 127.031907 45.434863 
C 109.377021 52.747756 93.334286 63.467169 79.821821 76.979634 
C 66.309356 90.492099 55.589944 106.534833 48.27705 124.189719 
C 40.964157 141.844606 37.2 160.768301 37.2 179.877812 
C 37.2 198.987324 40.964157 217.911019 48.27705 235.565906 
C 55.589944 253.220792 66.309356 269.263526 79.821821 282.775991 
C 93.334286 296.288456 109.377021 307.007869 127.031907 314.320762 
C 144.686793 321.633655 163.610489 325.397812 182.72 325.397812 
C 201.829511 325.397812 220.753207 321.633655 238.408093 314.320762 
C 256.062979 307.007869 272.105714 296.288456 285.618179 282.775991 
C 299.130644 269.263526 309.850056 253.220792 317.16295 235.565906 
C 324.475843 217.911019 328.24 198.987324 328.24 179.877812 
M 182.72 179.877812 
C 182.72 179.877812 182.72 179.877812 182.72 179.877812 
C 182.72 179.877812 182.72 179.877812 182.72 179.877812 
C 182.72 179.877812 182.72 179.877812 182.72 179.877812 
C 182.72 179.877812 182.72 179.877812 182.72 179.877812 
C 182.72 179.877812 182.72 179.877812 182.72 179.877812 
C 182.72 179.877812 182.72 179.877812 182.72 179.877812 
C 182.72 179.877812 182.72 179.877812 182.72 179.877812 
C 182.72 179.877812 182.72 179.877812 182.72 179.877812 
C 182.72 179.877812 182.72 179.877812 182.72 179.877812 
C 182.72 179.877812 182.72 179.877812 182.72 179.877812 
C 182.72 179.877812 182.72 179.877812 182.72 179.877812 
C 182.72 179.877812 182.72 179.877812 182.72 179.877812 
C 182.72 179.877812 182.72 179.877812 182.72 179.877812 
C 182.72 179.877812 182.72 179.877812 182.72 179.877812 
C 182.72 179.877812 182.72 179.877812 182.72 179.877812 
C 182.72 179.877812 182.72 179.877812 182.72 179.877812 
z
"/>
  </clipPath>
 </defs>
</svg>
