<?xml version="1.0" encoding="utf-8" standalone="no"?>
<!DOCTYPE svg PUBLIC "-//W3C//DTD SVG 1.1//EN"
  "http://www.w3.org/Graphics/SVG/1.1/DTD/svg11.dtd">
<svg xmlns:xlink="http://www.w3.org/1999/xlink" width="501.431704pt" height="331.715156pt" viewBox="0 0 501.431704 331.715156" xmlns="http://www.w3.org/2000/svg" version="1.1">
 <metadata>
  <rdf:RDF xmlns:dc="http://purl.org/dc/elements/1.1/" xmlns:cc="http://creativecommons.org/ns#" xmlns:rdf="http://www.w3.org/1999/02/22-rdf-syntax-ns#">
   <cc:Work>
    <dc:type rdf:resource="http://purl.org/dc/dcmitype/StillImage"/>
    <dc:date>2026-04-06T10:15:10.750546</dc:date>
    <dc:format>image/svg+xml</dc:format>
    <dc:creator>
     <cc:Agent>
      <dc:title>Matplotlib v3.7.5, https://matplotlib.org/</dc:title>
     </cc:Agent>
    </dc:creator>
   </cc:Work>
  </rdf:RDF>
 </metadata>
 <defs>
  <style type="text/css">*{stroke-linejoin: round; stroke-linecap: butt}</style>
 </defs>
 <g id="figure_1">
  <g id="patch_1">
   <path d="M 0 331.715156 
L 501.431704 331.715156 
L 501.431704 0 
L 0 0 
z
" style="fill: #ffffff"/>
  </g>
  <g id="axes_1">
   <g id="patch_2">
    <path d="M 46.102656 295.923437 
L 467.010111 295.923437 
L 467.010111 20.479687 
L 46.102656 20.479687 
z
" style="fill: #ffffff"/>
   </g>
   <g id="PathCollection_1">
    <path d="M 447.877954 39.123582 
C 449.501984 39.123582 451.059718 38.478348 452.208081 37.329985 
C 453.356444 36.181622 454.001678 34.623889 454.001678 32.999858 
C 454.001678 31.375827 453.356444 29.818094 452.208081 28.669731 
C 451.059718 27.521368 449.501984 26.876134 447.877954 26.876134 
C 446.253923 26.876134 444.69619 27.521368 443.547827 28.669731 
C 442.399464 29.818094 441.754229 31.375827 441.754229 32.999858 
C 441.754229 34.623889 442.399464 36.181622 443.547827 37.329985 
C 444.69619 38.478348 446.253923 39.123582 447.877954 39.123582 
z
" clip-path="url(#pb958b72777)" style="fill: #0ea5e9; fill-opacity: 0.7; stroke: #000000; stroke-opacity: 0.7"/>
    <path d="M 65.234813 163.201563 
C 66.560829 163.201563 67.832713 162.674731 68.770347 161.737096 
C 69.707982 160.799462 70.234813 159.527578 70.234813 158.201563 
C 70.234813 156.875547 69.707982 155.603663 68.770347 154.666029 
C 67.832713 153.728394 66.560829 153.201563 65.234813 153.201563 
C 63.908798 153.201563 62.636914 153.728394 61.699279 154.666029 
C 60.761645 155.603663 60.234813 156.875547 60.234813 158.201563 
C 60.234813 159.527578 60.761645 160.799462 61.699279 161.737096 
C 62.636914 162.674731 63.908798 163.201563 65.234813 163.201563 
z
" clip-path="url(#pb958b72777)" style="fill: #94a3b8; fill-opacity: 0.7; stroke: #000000; stroke-opacity: 0.7"/>
    <path d="M 256.556384 121.467661 
C 257.882399 121.467661 259.154283 120.940829 260.091917 120.003195 
C 261.029552 119.06556 261.556384 117.793676 261.556384 116.467661 
C 261.556384 115.141645 261.029552 113.869762 260.091917 112.932127 
C 259.154283 111.994493 257.882399 111.467661 256.556384 111.467661 
C 255.230368 111.467661 253.958484 111.994493 253.02085 112.932127 
C 252.083215 113.869762 251.556384 115.141645 251.556384 116.467661 
C 251.556384 117.793676 252.083215 119.06556 253.02085 120.003195 
C 253.958484 120.940829 255.230368 121.467661 256.556384 121.467661 
z
" clip-path="url(#pb958b72777)" style="fill: #94a3b8; fill-opacity: 0.7; stroke: #000000; stroke-opacity: 0.7"/>
    <path d="M 65.234813 288.403267 
C 66.560829 288.403267 67.832713 287.876436 68.770347 286.938801 
C 69.707982 286.001166 70.234813 284.729283 70.234813 283.403267 
C 70.234813 282.077252 69.707982 280.805368 68.770347 279.867733 
C 67.832713 278.930099 66.560829 278.403267 65.234813 278.403267 
C 63.908798 278.403267 62.636914 278.930099 61.699279 279.867733 
C 60.761645 280.805368 60.234813 282.077252 60.234813 283.403267 
C 60.234813 284.729283 60.761645 286.001166 61.699279 286.938801 
C 62.636914 287.876436 63.908798 288.403267 65.234813 288.403267 
z
" clip-path="url(#pb958b72777)" style="fill: #94a3b8; fill-opacity: 0.7; stroke: #000000; stroke-opacity: 0.7"/>
   </g>
   <g id="matplotlib.axis_1">
    <g id="xtick_1">
     <g id="line2d_1">
      <path d="M 65.234813 295.923437 
L 65.234813 20.479687 
" clip-path="url(#pb958b72777)" style="fill: none; stroke: #b0b0b0; stroke-opacity: 0.3; stroke-width: 0.8; stroke-linecap: square"/>
     </g>
     <g id="line2d_2">
      <defs>
       <path id="m25ce9fdbba" d="M 0 0 
L 0 3.5 
" style="stroke: #000000; stroke-width: 0.8"/>
      </defs>
      <g>
       <use xlink:href="#m25ce9fdbba" x="65.234813" y="295.923437" style="stroke: #000000; stroke-width: 0.8"/>
      </g>
     </g>
     <g id="text_1">
      <!-- $\mathdefault{10^{-3}}$ -->
      <g transform="translate(55.484813 310.08125) scale(0.1 -0.1)">
       <defs>
        <path id="ArialUnicodeMS-31" d="M 2400 0 
L 1838 0 
L 1838 3584 
Q 1416 3184 709 2906 
L 709 3450 
Q 1681 3916 2034 4603 
L 2400 4603 
L 2400 0 
z
" transform="scale(0.015625)"/>
        <path id="ArialUnicodeMS-30" d="M 1778 4603 
Q 3272 4603 3272 2259 
Q 3272 1075 2886 498 
Q 2500 -78 1778 -78 
Q 288 -78 288 2259 
Q 288 3444 673 4023 
Q 1059 4603 1778 4603 
z
M 1778 384 
Q 2231 384 2462 823 
Q 2694 1263 2694 2259 
Q 2694 2953 2592 3351 
Q 2491 3750 2286 3945 
Q 2081 4141 1772 4141 
Q 1319 4141 1091 3694 
Q 863 3247 863 2259 
Q 863 1575 966 1175 
Q 1069 775 1272 579 
Q 1475 384 1778 384 
z
" transform="scale(0.015625)"/>
        <path id="ArialUnicodeMS-2212" d="M 3384 1997 
L 353 1997 
L 353 2522 
L 3384 2522 
L 3384 1997 
z
" transform="scale(0.015625)"/>
        <path id="ArialUnicodeMS-33" d="M 2425 2478 
Q 2850 2397 3067 2067 
Q 3284 1738 3284 1350 
Q 3284 725 2829 323 
Q 2375 -78 1741 -78 
Q 1134 -78 740 275 
Q 347 628 281 1209 
L 844 1288 
Q 928 834 1151 609 
Q 1375 384 1741 384 
Q 2134 384 2407 661 
Q 2681 938 2681 1338 
Q 2681 1722 2432 1975 
Q 2184 2228 1784 2228 
Q 1622 2228 1388 2169 
L 1453 2663 
Q 1678 2663 1809 2684 
Q 1941 2706 2103 2790 
Q 2266 2875 2372 3033 
Q 2478 3191 2478 3425 
Q 2478 3766 2251 3953 
Q 2025 4141 1728 4141 
Q 1388 4141 1173 3925 
Q 959 3709 903 3309 
L 341 3413 
Q 450 4009 823 4306 
Q 1197 4603 1716 4603 
Q 2288 4603 2670 4258 
Q 3053 3913 3053 3413 
Q 3053 2772 2425 2491 
L 2425 2478 
z
" transform="scale(0.015625)"/>
       </defs>
       <use xlink:href="#ArialUnicodeMS-31" transform="translate(0 0.385938)"/>
       <use xlink:href="#ArialUnicodeMS-30" transform="translate(55.615234 0.385938)"/>
       <use xlink:href="#ArialUnicodeMS-2212" transform="translate(112.137187 36.654688) scale(0.7)"/>
       <use xlink:href="#ArialUnicodeMS-33" transform="translate(153.016094 36.654688) scale(0.7)"/>
      </g>
     </g>
    </g>
    <g id="xtick_2">
     <g id="line2d_3">
      <defs>
       <path id="mea057bb39c" d="M 0 0 
L 0 2 
" style="stroke: #000000; stroke-width: 0.6"/>
      </defs>
      <g>
       <use xlink:href="#mea057bb39c" x="256.556384" y="295.923437" style="stroke: #000000; stroke-width: 0.6"/>
      </g>
     </g>
     <g id="text_2">
      <!-- $\mathdefault{2\times10^{-3}}$ -->
      <g transform="translate(239.156384 308.48125) scale(0.1 -0.1)">
       <defs>
        <path id="ArialUnicodeMS-32" d="M 3231 0 
L 197 0 
Q 197 388 467 784 
Q 738 1181 1478 1778 
Q 1931 2141 2287 2539 
Q 2644 2938 2644 3341 
Q 2644 3688 2398 3914 
Q 2153 4141 1778 4141 
Q 1400 4141 1144 3908 
Q 888 3675 884 3213 
L 306 3278 
Q 359 3922 764 4262 
Q 1169 4603 1791 4603 
Q 2466 4603 2842 4229 
Q 3219 3856 3219 3328 
Q 3219 2888 2901 2436 
Q 2584 1984 1638 1228 
Q 1141 831 978 544 
L 3231 544 
L 3231 0 
z
" transform="scale(0.015625)"/>
        <path id="ArialUnicodeMS-d7" d="M 3231 1288 
L 2853 903 
L 1869 1888 
L 884 903 
L 506 1281 
L 1491 2259 
L 513 3244 
L 891 3628 
L 1875 2644 
L 2853 3622 
L 3225 3244 
L 2253 2266 
L 3231 1288 
z
" transform="scale(0.015625)"/>
       </defs>
       <use xlink:href="#ArialUnicodeMS-32" transform="translate(0 0.385938)"/>
       <use xlink:href="#ArialUnicodeMS-d7" transform="translate(75.097656 0.385938)"/>
       <use xlink:href="#ArialUnicodeMS-31" transform="translate(152.978516 0.385938)"/>
       <use xlink:href="#ArialUnicodeMS-30" transform="translate(208.59375 0.385938)"/>
       <use xlink:href="#ArialUnicodeMS-2212" transform="translate(265.115703 36.654688) scale(0.7)"/>
       <use xlink:href="#ArialUnicodeMS-33" transform="translate(305.994609 36.654688) scale(0.7)"/>
      </g>
     </g>
    </g>
    <g id="xtick_3">
     <g id="line2d_4">
      <g>
       <use xlink:href="#mea057bb39c" x="368.472328" y="295.923437" style="stroke: #000000; stroke-width: 0.6"/>
      </g>
     </g>
     <g id="text_3">
      <!-- $\mathdefault{3\times10^{-3}}$ -->
      <g transform="translate(351.072328 308.48125) scale(0.1 -0.1)">
       <use xlink:href="#ArialUnicodeMS-33" transform="translate(0 0.385938)"/>
       <use xlink:href="#ArialUnicodeMS-d7" transform="translate(75.097656 0.385938)"/>
       <use xlink:href="#ArialUnicodeMS-31" transform="translate(152.978516 0.385938)"/>
       <use xlink:href="#ArialUnicodeMS-30" transform="translate(208.59375 0.385938)"/>
       <use xlink:href="#ArialUnicodeMS-2212" transform="translate(265.115703 36.654688) scale(0.7)"/>
       <use xlink:href="#ArialUnicodeMS-33" transform="translate(305.994609 36.654688) scale(0.7)"/>
      </g>
     </g>
    </g>
    <g id="xtick_4">
     <g id="line2d_5">
      <g>
       <use xlink:href="#mea057bb39c" x="447.877954" y="295.923437" style="stroke: #000000; stroke-width: 0.6"/>
      </g>
     </g>
     <g id="text_4">
      <!-- $\mathdefault{4\times10^{-3}}$ -->
      <g transform="translate(430.477954 308.48125) scale(0.1 -0.1)">
       <defs>
        <path id="ArialUnicodeMS-34" d="M 3263 1094 
L 2644 1094 
L 2644 0 
L 2081 0 
L 2081 1094 
L 97 1094 
L 97 1613 
L 2181 4581 
L 2644 4581 
L 2644 1613 
L 3263 1613 
L 3263 1094 
z
M 2081 1613 
L 2081 3681 
L 2069 3681 
L 647 1613 
L 2081 1613 
z
" transform="scale(0.015625)"/>
       </defs>
       <use xlink:href="#ArialUnicodeMS-34" transform="translate(0 0.385938)"/>
       <use xlink:href="#ArialUnicodeMS-d7" transform="translate(75.097656 0.385938)"/>
       <use xlink:href="#ArialUnicodeMS-31" transform="translate(152.978516 0.385938)"/>
       <use xlink:href="#ArialUnicodeMS-30" transform="translate(208.59375 0.385938)"/>
       <use xlink:href="#ArialUnicodeMS-2212" transform="translate(265.115703 36.654688) scale(0.7)"/>
       <use xlink:href="#ArialUnicodeMS-33" transform="translate(305.994609 36.654688) scale(0.7)"/>
      </g>
     </g>
    </g>
    <g id="text_5">
     <!-- Cost per Evaluation (CNY ¥) -->
     <g transform="translate(199.786071 322.625156) scale(0.09 -0.09)">
      <defs>
       <path id="ArialUnicodeMS-43" d="M 4372 1453 
Q 4172 681 3673 301 
Q 3175 -78 2478 -78 
Q 1353 -78 839 626 
Q 325 1331 325 2322 
Q 325 3419 929 4039 
Q 1534 4659 2484 4659 
Q 3153 4659 3628 4318 
Q 4103 3978 4294 3322 
L 3700 3181 
Q 3550 3659 3244 3900 
Q 2938 4141 2478 4141 
Q 1728 4141 1340 3648 
Q 953 3156 953 2328 
Q 953 1372 1361 906 
Q 1769 441 2425 441 
Q 2963 441 3298 731 
Q 3634 1022 3769 1606 
L 4372 1453 
z
" transform="scale(0.015625)"/>
       <path id="ArialUnicodeMS-6f" d="M 1778 3391 
Q 2450 3391 2892 2953 
Q 3334 2516 3334 1709 
Q 3334 731 2856 326 
Q 2378 -78 1778 -78 
Q 1150 -78 687 337 
Q 225 753 225 1656 
Q 225 2531 672 2961 
Q 1119 3391 1778 3391 
z
M 1778 384 
Q 2259 384 2509 740 
Q 2759 1097 2759 1678 
Q 2759 2300 2476 2615 
Q 2194 2931 1778 2931 
Q 1350 2931 1075 2611 
Q 800 2291 800 1656 
Q 800 1025 1079 704 
Q 1359 384 1778 384 
z
" transform="scale(0.015625)"/>
       <path id="ArialUnicodeMS-73" d="M 2278 2388 
Q 2241 2659 2058 2795 
Q 1875 2931 1550 2931 
Q 1228 2931 1029 2822 
Q 831 2713 831 2503 
Q 831 2306 989 2222 
Q 1147 2138 1613 2016 
Q 2138 1881 2398 1778 
Q 2659 1675 2804 1489 
Q 2950 1303 2950 972 
Q 2950 528 2587 225 
Q 2225 -78 1619 -78 
Q 988 -78 633 189 
Q 278 456 197 991 
L 756 1075 
Q 800 728 1014 556 
Q 1228 384 1613 384 
Q 1981 384 2178 539 
Q 2375 694 2375 916 
Q 2375 1066 2284 1156 
Q 2194 1247 2058 1292 
Q 1922 1338 1447 1453 
Q 741 1622 514 1862 
Q 288 2103 288 2438 
Q 288 2853 619 3122 
Q 950 3391 1509 3391 
Q 2103 3391 2433 3158 
Q 2763 2925 2828 2463 
L 2278 2388 
z
" transform="scale(0.015625)"/>
       <path id="ArialUnicodeMS-74" d="M 1722 6 
Q 1472 -44 1300 -44 
Q 931 -44 762 86 
Q 594 216 556 416 
Q 519 616 519 972 
L 519 2881 
L 109 2881 
L 109 3316 
L 519 3316 
L 519 4141 
L 1081 4481 
L 1081 3316 
L 1644 3316 
L 1644 2881 
L 1081 2881 
L 1081 941 
Q 1081 691 1132 586 
Q 1184 481 1394 481 
Q 1516 481 1644 506 
L 1722 6 
z
" transform="scale(0.015625)"/>
       <path id="ArialUnicodeMS-20" transform="scale(0.015625)"/>
       <path id="ArialUnicodeMS-70" d="M 959 2888 
Q 1275 3391 1906 3391 
Q 2559 3391 2937 2917 
Q 3316 2444 3316 1684 
Q 3316 875 2897 398 
Q 2478 -78 1869 -78 
Q 1334 -78 1013 347 
L 997 347 
L 997 -1275 
L 434 -1275 
L 434 3316 
L 947 3316 
L 947 2888 
L 959 2888 
z
M 1831 384 
Q 2225 384 2483 711 
Q 2741 1038 2741 1684 
Q 2741 2294 2492 2622 
Q 2244 2950 1856 2950 
Q 1456 2950 1198 2584 
Q 941 2219 941 1638 
Q 941 1022 1187 703 
Q 1434 384 1831 384 
z
" transform="scale(0.015625)"/>
       <path id="ArialUnicodeMS-65" d="M 3309 1516 
L 825 1516 
Q 859 966 1139 675 
Q 1419 384 1838 384 
Q 2159 384 2378 554 
Q 2597 725 2713 1069 
L 3291 997 
Q 3150 478 2775 200 
Q 2400 -78 1838 -78 
Q 1091 -78 670 380 
Q 250 838 250 1631 
Q 250 2416 658 2903 
Q 1066 3391 1806 3391 
Q 2169 3391 2505 3231 
Q 2841 3072 3075 2689 
Q 3309 2306 3309 1516 
z
M 2731 1978 
Q 2697 2484 2417 2707 
Q 2138 2931 1806 2931 
Q 1409 2931 1153 2665 
Q 897 2400 856 1978 
L 2731 1978 
z
" transform="scale(0.015625)"/>
       <path id="ArialUnicodeMS-72" d="M 2216 3213 
L 2022 2694 
Q 1813 2816 1613 2816 
Q 1297 2816 1134 2533 
Q 972 2250 972 1741 
L 972 0 
L 409 0 
L 409 3316 
L 922 3316 
L 922 2816 
L 934 2816 
Q 1203 3391 1638 3391 
Q 1925 3391 2216 3213 
z
" transform="scale(0.015625)"/>
       <path id="ArialUnicodeMS-45" d="M 3928 0 
L 506 0 
L 506 4581 
L 3822 4581 
L 3822 4038 
L 1113 4038 
L 1113 2638 
L 3647 2638 
L 3647 2094 
L 1113 2094 
L 1113 544 
L 3928 544 
L 3928 0 
z
" transform="scale(0.015625)"/>
       <path id="ArialUnicodeMS-76" d="M 3122 3316 
L 1869 0 
L 1344 0 
L 84 3316 
L 678 3316 
L 1363 1397 
Q 1556 853 1594 659 
L 1606 659 
Q 1656 859 1778 1197 
L 2547 3316 
L 3122 3316 
z
" transform="scale(0.015625)"/>
       <path id="ArialUnicodeMS-61" d="M 3303 0 
L 2713 0 
Q 2631 156 2597 409 
Q 2031 -78 1375 -78 
Q 850 -78 547 184 
Q 244 447 244 878 
Q 244 1291 536 1558 
Q 828 1825 1550 1913 
L 2075 1991 
Q 2369 2038 2559 2106 
Q 2559 2359 2543 2464 
Q 2528 2569 2451 2681 
Q 2375 2794 2206 2862 
Q 2038 2931 1753 2931 
Q 1391 2931 1180 2797 
Q 969 2663 891 2297 
L 341 2369 
Q 431 2878 806 3134 
Q 1181 3391 1838 3391 
Q 2434 3391 2714 3214 
Q 2994 3038 3058 2788 
Q 3122 2538 3122 2144 
L 3122 1388 
Q 3122 697 3148 461 
Q 3175 225 3303 0 
z
M 2559 1459 
L 2559 1663 
Q 2119 1516 1481 1430 
Q 844 1344 844 891 
Q 844 663 1016 514 
Q 1188 366 1509 366 
Q 1925 366 2242 614 
Q 2559 863 2559 1459 
z
" transform="scale(0.015625)"/>
       <path id="ArialUnicodeMS-6c" d="M 991 0 
L 428 0 
L 428 4581 
L 991 4581 
L 991 0 
z
" transform="scale(0.015625)"/>
       <path id="ArialUnicodeMS-75" d="M 3116 0 
L 2613 0 
L 2613 488 
L 2597 488 
Q 2216 -78 1556 -78 
Q 1209 -78 914 83 
Q 619 244 520 526 
Q 422 809 422 1259 
L 422 3316 
L 984 3316 
L 984 1478 
Q 984 1038 1026 847 
Q 1069 656 1247 532 
Q 1425 409 1672 409 
Q 1991 409 2272 629 
Q 2553 850 2553 1544 
L 2553 3316 
L 3116 3316 
L 3116 0 
z
" transform="scale(0.015625)"/>
       <path id="ArialUnicodeMS-69" d="M 991 0 
L 428 0 
L 428 3316 
L 991 3316 
L 991 0 
z
M 991 3944 
L 428 3944 
L 428 4581 
L 991 4581 
L 991 3944 
z
" transform="scale(0.015625)"/>
       <path id="ArialUnicodeMS-6e" d="M 3138 0 
L 2572 0 
L 2572 2016 
Q 2572 2525 2389 2715 
Q 2206 2906 1881 2906 
Q 1631 2906 1407 2784 
Q 1184 2663 1090 2441 
Q 997 2219 997 1813 
L 997 0 
L 434 0 
L 434 3316 
L 941 3316 
L 941 2847 
L 953 2847 
Q 1131 3119 1392 3255 
Q 1653 3391 1997 3391 
Q 2259 3391 2515 3297 
Q 2772 3203 2917 3015 
Q 3063 2828 3100 2615 
Q 3138 2403 3138 2041 
L 3138 0 
z
" transform="scale(0.015625)"/>
       <path id="ArialUnicodeMS-28" d="M 1900 -1344 
L 1497 -1344 
Q 978 -681 681 103 
Q 384 888 384 1656 
Q 384 2528 700 3275 
Q 1016 4022 1497 4659 
L 1900 4659 
Q 1344 3747 1155 3059 
Q 966 2372 966 1663 
Q 966 153 1900 -1344 
z
" transform="scale(0.015625)"/>
       <path id="ArialUnicodeMS-4e" d="M 4109 0 
L 3488 0 
L 1094 3597 
L 1081 3597 
L 1081 0 
L 506 0 
L 506 4581 
L 1125 4581 
L 3519 984 
L 3531 984 
L 3531 4581 
L 4109 4581 
L 4109 0 
z
" transform="scale(0.015625)"/>
       <path id="ArialUnicodeMS-59" d="M 4231 4581 
L 2406 1941 
L 2406 0 
L 1797 0 
L 1797 1941 
L 31 4581 
L 769 4581 
L 1775 3041 
Q 1928 2806 2138 2425 
Q 2269 2681 3525 4581 
L 4231 4581 
z
" transform="scale(0.015625)"/>
       <path id="ArialUnicodeMS-a5" d="M 3553 4581 
L 2363 2491 
L 3353 2491 
L 3353 2053 
L 2069 2053 
L 2069 1491 
L 3353 1491 
L 3353 1056 
L 2069 1056 
L 2069 0 
L 1503 0 
L 1503 1056 
L 206 1056 
L 206 1491 
L 1503 1491 
L 1503 2053 
L 206 2053 
L 206 2491 
L 1203 2491 
L 6 4581 
L 634 4581 
L 1569 2913 
Q 1697 2688 1772 2491 
Q 1828 2625 2094 3116 
L 2888 4581 
L 3553 4581 
z
" transform="scale(0.015625)"/>
       <path id="ArialUnicodeMS-29" d="M 634 4659 
Q 1153 3997 1450 3212 
Q 1747 2428 1747 1656 
Q 1747 788 1431 41 
Q 1116 -706 634 -1344 
L 231 -1344 
Q 788 -431 977 255 
Q 1166 941 1166 1650 
Q 1166 3163 231 4659 
L 634 4659 
z
" transform="scale(0.015625)"/>
      </defs>
      <use xlink:href="#ArialUnicodeMS-43"/>
      <use xlink:href="#ArialUnicodeMS-6f" x="72.216797"/>
      <use xlink:href="#ArialUnicodeMS-73" x="127.832031"/>
      <use xlink:href="#ArialUnicodeMS-74" x="177.832031"/>
      <use xlink:href="#ArialUnicodeMS-20" x="205.615234"/>
      <use xlink:href="#ArialUnicodeMS-70" x="233.398438"/>
      <use xlink:href="#ArialUnicodeMS-65" x="289.013672"/>
      <use xlink:href="#ArialUnicodeMS-72" x="344.628906"/>
      <use xlink:href="#ArialUnicodeMS-20" x="377.929688"/>
      <use xlink:href="#ArialUnicodeMS-45" x="405.712891"/>
      <use xlink:href="#ArialUnicodeMS-76" x="472.412109"/>
      <use xlink:href="#ArialUnicodeMS-61" x="522.412109"/>
      <use xlink:href="#ArialUnicodeMS-6c" x="578.027344"/>
      <use xlink:href="#ArialUnicodeMS-75" x="600.244141"/>
      <use xlink:href="#ArialUnicodeMS-61" x="655.859375"/>
      <use xlink:href="#ArialUnicodeMS-74" x="711.474609"/>
      <use xlink:href="#ArialUnicodeMS-69" x="739.257812"/>
      <use xlink:href="#ArialUnicodeMS-6f" x="761.474609"/>
      <use xlink:href="#ArialUnicodeMS-6e" x="817.089844"/>
      <use xlink:href="#ArialUnicodeMS-20" x="872.705078"/>
      <use xlink:href="#ArialUnicodeMS-28" x="900.488281"/>
      <use xlink:href="#ArialUnicodeMS-43" x="933.789062"/>
      <use xlink:href="#ArialUnicodeMS-4e" x="1006.005859"/>
      <use xlink:href="#ArialUnicodeMS-59" x="1078.222656"/>
      <use xlink:href="#ArialUnicodeMS-20" x="1144.921875"/>
      <use xlink:href="#ArialUnicodeMS-a5" x="1172.705078"/>
      <use xlink:href="#ArialUnicodeMS-29" x="1228.320312"/>
     </g>
    </g>
   </g>
   <g id="matplotlib.axis_2">
    <g id="ytick_1">
     <g id="line2d_6">
      <path d="M 46.102656 283.403267 
L 467.010111 283.403267 
" clip-path="url(#pb958b72777)" style="fill: none; stroke: #b0b0b0; stroke-opacity: 0.3; stroke-width: 0.8; stroke-linecap: square"/>
     </g>
     <g id="line2d_7">
      <defs>
       <path id="mb4724c5b15" d="M 0 0 
L -3.5 0 
" style="stroke: #000000; stroke-width: 0.8"/>
      </defs>
      <g>
       <use xlink:href="#mb4724c5b15" x="46.102656" y="283.403267" style="stroke: #000000; stroke-width: 0.8"/>
      </g>
     </g>
     <g id="text_6">
      <!-- 0.72 -->
      <g transform="translate(19.641719 286.982173) scale(0.1 -0.1)">
       <defs>
        <path id="ArialUnicodeMS-2e" d="M 1209 0 
L 569 0 
L 569 641 
L 1209 641 
L 1209 0 
z
" transform="scale(0.015625)"/>
        <path id="ArialUnicodeMS-37" d="M 3272 4084 
Q 2597 3344 2103 2253 
Q 1609 1163 1522 0 
L 947 0 
Q 969 934 1408 2051 
Q 1847 3169 2547 3975 
L 306 3975 
L 306 4519 
L 3272 4519 
L 3272 4084 
z
" transform="scale(0.015625)"/>
       </defs>
       <use xlink:href="#ArialUnicodeMS-30"/>
       <use xlink:href="#ArialUnicodeMS-2e" x="55.615234"/>
       <use xlink:href="#ArialUnicodeMS-37" x="83.398438"/>
       <use xlink:href="#ArialUnicodeMS-32" x="139.013672"/>
      </g>
     </g>
    </g>
    <g id="ytick_2">
     <g id="line2d_8">
      <path d="M 46.102656 241.669366 
L 467.010111 241.669366 
" clip-path="url(#pb958b72777)" style="fill: none; stroke: #b0b0b0; stroke-opacity: 0.3; stroke-width: 0.8; stroke-linecap: square"/>
     </g>
     <g id="line2d_9">
      <g>
       <use xlink:href="#mb4724c5b15" x="46.102656" y="241.669366" style="stroke: #000000; stroke-width: 0.8"/>
      </g>
     </g>
     <g id="text_7">
      <!-- 0.73 -->
      <g transform="translate(19.641719 245.248272) scale(0.1 -0.1)">
       <use xlink:href="#ArialUnicodeMS-30"/>
       <use xlink:href="#ArialUnicodeMS-2e" x="55.615234"/>
       <use xlink:href="#ArialUnicodeMS-37" x="83.398438"/>
       <use xlink:href="#ArialUnicodeMS-33" x="139.013672"/>
      </g>
     </g>
    </g>
    <g id="ytick_3">
     <g id="line2d_10">
      <path d="M 46.102656 199.935464 
L 467.010111 199.935464 
" clip-path="url(#pb958b72777)" style="fill: none; stroke: #b0b0b0; stroke-opacity: 0.3; stroke-width: 0.8; stroke-linecap: square"/>
     </g>
     <g id="line2d_11">
      <g>
       <use xlink:href="#mb4724c5b15" x="46.102656" y="199.935464" style="stroke: #000000; stroke-width: 0.8"/>
      </g>
     </g>
     <g id="text_8">
      <!-- 0.74 -->
      <g transform="translate(19.641719 203.51437) scale(0.1 -0.1)">
       <use xlink:href="#ArialUnicodeMS-30"/>
       <use xlink:href="#ArialUnicodeMS-2e" x="55.615234"/>
       <use xlink:href="#ArialUnicodeMS-37" x="83.398438"/>
       <use xlink:href="#ArialUnicodeMS-34" x="139.013672"/>
      </g>
     </g>
    </g>
    <g id="ytick_4">
     <g id="line2d_12">
      <path d="M 46.102656 158.201562 
L 467.010111 158.201562 
" clip-path="url(#pb958b72777)" style="fill: none; stroke: #b0b0b0; stroke-opacity: 0.3; stroke-width: 0.8; stroke-linecap: square"/>
     </g>
     <g id="line2d_13">
      <g>
       <use xlink:href="#mb4724c5b15" x="46.102656" y="158.201562" style="stroke: #000000; stroke-width: 0.8"/>
      </g>
     </g>
     <g id="text_9">
      <!-- 0.75 -->
      <g transform="translate(19.641719 161.780469) scale(0.1 -0.1)">
       <defs>
        <path id="ArialUnicodeMS-35" d="M 1013 2753 
Q 1431 3041 1881 3041 
Q 2453 3041 2878 2636 
Q 3303 2231 3303 1556 
Q 3303 875 2872 398 
Q 2441 -78 1741 -78 
Q 1169 -78 750 245 
Q 331 569 269 1203 
L 856 1247 
Q 928 813 1162 598 
Q 1397 384 1741 384 
Q 2169 384 2434 707 
Q 2700 1031 2700 1503 
Q 2700 1984 2428 2262 
Q 2156 2541 1728 2541 
Q 1188 2541 897 2100 
L 366 2163 
L 813 4519 
L 3084 4519 
L 3084 3975 
L 1259 3975 
L 1013 2753 
z
" transform="scale(0.015625)"/>
       </defs>
       <use xlink:href="#ArialUnicodeMS-30"/>
       <use xlink:href="#ArialUnicodeMS-2e" x="55.615234"/>
       <use xlink:href="#ArialUnicodeMS-37" x="83.398438"/>
       <use xlink:href="#ArialUnicodeMS-35" x="139.013672"/>
      </g>
     </g>
    </g>
    <g id="ytick_5">
     <g id="line2d_14">
      <path d="M 46.102656 116.467661 
L 467.010111 116.467661 
" clip-path="url(#pb958b72777)" style="fill: none; stroke: #b0b0b0; stroke-opacity: 0.3; stroke-width: 0.8; stroke-linecap: square"/>
     </g>
     <g id="line2d_15">
      <g>
       <use xlink:href="#mb4724c5b15" x="46.102656" y="116.467661" style="stroke: #000000; stroke-width: 0.8"/>
      </g>
     </g>
     <g id="text_10">
      <!-- 0.76 -->
      <g transform="translate(19.641719 120.046567) scale(0.1 -0.1)">
       <defs>
        <path id="ArialUnicodeMS-36" d="M 838 2363 
Q 1225 2969 1941 2969 
Q 2503 2969 2897 2553 
Q 3291 2138 3291 1491 
Q 3291 838 2898 380 
Q 2506 -78 1856 -78 
Q 1197 -78 733 409 
Q 269 897 269 2144 
Q 269 3369 689 3986 
Q 1109 4603 1906 4603 
Q 2422 4603 2778 4315 
Q 3134 4028 3213 3463 
L 2650 3413 
Q 2497 4141 1875 4141 
Q 1444 4141 1134 3712 
Q 825 3284 825 2363 
L 838 2363 
z
M 1844 384 
Q 2231 384 2472 696 
Q 2713 1009 2713 1453 
Q 2713 1897 2472 2187 
Q 2231 2478 1825 2478 
Q 1453 2478 1184 2204 
Q 916 1931 916 1484 
Q 916 1028 1180 706 
Q 1444 384 1844 384 
z
" transform="scale(0.015625)"/>
       </defs>
       <use xlink:href="#ArialUnicodeMS-30"/>
       <use xlink:href="#ArialUnicodeMS-2e" x="55.615234"/>
       <use xlink:href="#ArialUnicodeMS-37" x="83.398438"/>
       <use xlink:href="#ArialUnicodeMS-36" x="139.013672"/>
      </g>
     </g>
    </g>
    <g id="ytick_6">
     <g id="line2d_16">
      <path d="M 46.102656 74.733759 
L 467.010111 74.733759 
" clip-path="url(#pb958b72777)" style="fill: none; stroke: #b0b0b0; stroke-opacity: 0.3; stroke-width: 0.8; stroke-linecap: square"/>
     </g>
     <g id="line2d_17">
      <g>
       <use xlink:href="#mb4724c5b15" x="46.102656" y="74.733759" style="stroke: #000000; stroke-width: 0.8"/>
      </g>
     </g>
     <g id="text_11">
      <!-- 0.77 -->
      <g transform="translate(19.641719 78.312666) scale(0.1 -0.1)">
       <use xlink:href="#ArialUnicodeMS-30"/>
       <use xlink:href="#ArialUnicodeMS-2e" x="55.615234"/>
       <use xlink:href="#ArialUnicodeMS-37" x="83.398438"/>
       <use xlink:href="#ArialUnicodeMS-37" x="139.013672"/>
      </g>
     </g>
    </g>
    <g id="ytick_7">
     <g id="line2d_18">
      <path d="M 46.102656 32.999858 
L 467.010111 32.999858 
" clip-path="url(#pb958b72777)" style="fill: none; stroke: #b0b0b0; stroke-opacity: 0.3; stroke-width: 0.8; stroke-linecap: square"/>
     </g>
     <g id="line2d_19">
      <g>
       <use xlink:href="#mb4724c5b15" x="46.102656" y="32.999858" style="stroke: #000000; stroke-width: 0.8"/>
      </g>
     </g>
     <g id="text_12">
      <!-- 0.78 -->
      <g transform="translate(19.641719 36.578764) scale(0.1 -0.1)">
       <defs>
        <path id="ArialUnicodeMS-38" d="M 2425 2478 
Q 3284 2203 3284 1306 
Q 3284 716 2862 319 
Q 2441 -78 1778 -78 
Q 1109 -78 689 322 
Q 269 722 269 1325 
Q 269 1759 505 2084 
Q 741 2409 1141 2478 
L 1141 2491 
Q 453 2703 453 3419 
Q 453 3925 815 4264 
Q 1178 4603 1766 4603 
Q 2363 4603 2730 4253 
Q 3097 3903 3097 3406 
Q 3097 2731 2425 2491 
L 2425 2478 
z
M 1778 2700 
Q 2094 2700 2308 2901 
Q 2522 3103 2522 3406 
Q 2522 3716 2305 3928 
Q 2088 4141 1772 4141 
Q 1450 4141 1240 3931 
Q 1031 3722 1031 3438 
Q 1031 3097 1247 2898 
Q 1463 2700 1778 2700 
z
M 1778 384 
Q 2175 384 2440 640 
Q 2706 897 2706 1306 
Q 2706 1716 2432 1978 
Q 2159 2241 1766 2241 
Q 1356 2241 1100 1970 
Q 844 1700 844 1319 
Q 844 922 1108 653 
Q 1372 384 1778 384 
z
" transform="scale(0.015625)"/>
       </defs>
       <use xlink:href="#ArialUnicodeMS-30"/>
       <use xlink:href="#ArialUnicodeMS-2e" x="55.615234"/>
       <use xlink:href="#ArialUnicodeMS-37" x="83.398438"/>
       <use xlink:href="#ArialUnicodeMS-38" x="139.013672"/>
      </g>
     </g>
    </g>
    <g id="text_13">
     <!-- Inter-Rater Reliability (ICC) -->
     <g transform="translate(13.751719 212.21) rotate(-90) scale(0.09 -0.09)">
      <defs>
       <path id="ArialUnicodeMS-49" d="M 1197 0 
L 588 0 
L 588 4581 
L 1197 4581 
L 1197 0 
z
" transform="scale(0.015625)"/>
       <path id="ArialUnicodeMS-2d" d="M 1925 1375 
L 206 1375 
L 206 1941 
L 1925 1941 
L 1925 1375 
z
" transform="scale(0.015625)"/>
       <path id="ArialUnicodeMS-52" d="M 4550 0 
L 3788 0 
Q 3103 1081 2937 1328 
Q 2772 1575 2589 1751 
Q 2406 1928 2245 1975 
Q 2084 2022 1819 2022 
L 1119 2022 
L 1119 0 
L 513 0 
L 513 4581 
L 2541 4581 
Q 2956 4581 3237 4528 
Q 3519 4475 3731 4304 
Q 3944 4134 4058 3875 
Q 4172 3616 4172 3328 
Q 4172 2809 3844 2493 
Q 3516 2178 2888 2094 
L 2888 2081 
Q 3347 1878 3750 1247 
L 4550 0 
z
M 1119 2566 
L 2419 2566 
Q 2813 2566 3042 2633 
Q 3272 2700 3409 2894 
Q 3547 3088 3547 3328 
Q 3547 3641 3319 3859 
Q 3091 4078 2566 4078 
L 1119 4078 
L 1119 2566 
z
" transform="scale(0.015625)"/>
       <path id="ArialUnicodeMS-62" d="M 1006 2944 
Q 1319 3391 1900 3391 
Q 2541 3391 2925 2925 
Q 3309 2459 3309 1709 
Q 3309 844 2879 383 
Q 2450 -78 1875 -78 
Q 1291 -78 966 416 
L 953 416 
L 953 0 
L 428 0 
L 428 4581 
L 991 4581 
L 991 2944 
L 1006 2944 
z
M 1831 384 
Q 2222 384 2476 720 
Q 2731 1056 2731 1663 
Q 2731 2247 2497 2589 
Q 2263 2931 1850 2931 
Q 1444 2931 1195 2578 
Q 947 2225 947 1684 
Q 947 1156 1050 932 
Q 1153 709 1361 546 
Q 1569 384 1831 384 
z
" transform="scale(0.015625)"/>
       <path id="ArialUnicodeMS-79" d="M 3150 3316 
L 1881 -56 
Q 1878 -63 1875 -78 
Q 1694 -641 1451 -992 
Q 1209 -1344 763 -1344 
Q 613 -1344 397 -1281 
L 341 -750 
Q 503 -800 659 -800 
Q 972 -800 1092 -628 
Q 1213 -456 1363 -6 
L 103 3316 
L 709 3316 
L 1491 1144 
Q 1559 944 1638 628 
L 1650 628 
Q 1728 991 1850 1319 
L 2578 3316 
L 3150 3316 
z
" transform="scale(0.015625)"/>
      </defs>
      <use xlink:href="#ArialUnicodeMS-49"/>
      <use xlink:href="#ArialUnicodeMS-6e" x="27.783203"/>
      <use xlink:href="#ArialUnicodeMS-74" x="83.398438"/>
      <use xlink:href="#ArialUnicodeMS-65" x="111.181641"/>
      <use xlink:href="#ArialUnicodeMS-72" x="166.796875"/>
      <use xlink:href="#ArialUnicodeMS-2d" x="200.097656"/>
      <use xlink:href="#ArialUnicodeMS-52" x="233.398438"/>
      <use xlink:href="#ArialUnicodeMS-61" x="305.615234"/>
      <use xlink:href="#ArialUnicodeMS-74" x="361.230469"/>
      <use xlink:href="#ArialUnicodeMS-65" x="389.013672"/>
      <use xlink:href="#ArialUnicodeMS-72" x="444.628906"/>
      <use xlink:href="#ArialUnicodeMS-20" x="477.929688"/>
      <use xlink:href="#ArialUnicodeMS-52" x="505.712891"/>
      <use xlink:href="#ArialUnicodeMS-65" x="577.929688"/>
      <use xlink:href="#ArialUnicodeMS-6c" x="633.544922"/>
      <use xlink:href="#ArialUnicodeMS-69" x="655.761719"/>
      <use xlink:href="#ArialUnicodeMS-61" x="677.978516"/>
      <use xlink:href="#ArialUnicodeMS-62" x="733.59375"/>
      <use xlink:href="#ArialUnicodeMS-69" x="789.208984"/>
      <use xlink:href="#ArialUnicodeMS-6c" x="811.425781"/>
      <use xlink:href="#ArialUnicodeMS-69" x="833.642578"/>
      <use xlink:href="#ArialUnicodeMS-74" x="855.859375"/>
      <use xlink:href="#ArialUnicodeMS-79" x="883.642578"/>
      <use xlink:href="#ArialUnicodeMS-20" x="933.642578"/>
      <use xlink:href="#ArialUnicodeMS-28" x="961.425781"/>
      <use xlink:href="#ArialUnicodeMS-49" x="994.726562"/>
      <use xlink:href="#ArialUnicodeMS-43" x="1022.509766"/>
      <use xlink:href="#ArialUnicodeMS-43" x="1094.726562"/>
      <use xlink:href="#ArialUnicodeMS-29" x="1166.943359"/>
     </g>
    </g>
   </g>
   <g id="patch_3">
    <path d="M 46.102656 295.923438 
L 46.102656 20.479687 
" style="fill: none; stroke: #000000; stroke-width: 0.8; stroke-linejoin: miter; stroke-linecap: square"/>
   </g>
   <g id="patch_4">
    <path d="M 467.010111 295.923438 
L 467.010111 20.479687 
" style="fill: none; stroke: #000000; stroke-width: 0.8; stroke-linejoin: miter; stroke-linecap: square"/>
   </g>
   <g id="patch_5">
    <path d="M 46.102656 295.923437 
L 467.010111 295.923437 
" style="fill: none; stroke: #000000; stroke-width: 0.8; stroke-linejoin: miter; stroke-linecap: square"/>
   </g>
   <g id="patch_6">
    <path d="M 46.102656 20.479687 
L 467.010111 20.479687 
" style="fill: none; stroke: #000000; stroke-width: 0.8; stroke-linejoin: miter; stroke-linecap: square"/>
   </g>
   <g id="text_14">
    <!-- Qwen-Plus -->
    <g transform="translate(452.877954 27.999858) scale(0.08 -0.08)">
     <defs>
      <path id="ArialUnicodeMS-51" d="M 4769 63 
L 4588 -359 
Q 4056 -156 3609 206 
Q 3091 -78 2484 -78 
Q 1525 -78 912 586 
Q 300 1250 300 2291 
Q 300 3322 894 3990 
Q 1488 4659 2497 4659 
Q 3456 4659 4070 4006 
Q 4684 3353 4684 2297 
Q 4684 1166 3994 494 
Q 4381 216 4769 63 
z
M 3519 825 
Q 4056 1322 4056 2291 
Q 4056 3156 3623 3648 
Q 3191 4141 2497 4141 
Q 1803 4141 1365 3669 
Q 928 3197 928 2291 
Q 928 1403 1365 922 
Q 1803 441 2497 441 
Q 2838 441 3109 563 
Q 2806 756 2509 825 
L 2656 1269 
Q 3216 1109 3519 825 
z
" transform="scale(0.015625)"/>
      <path id="ArialUnicodeMS-77" d="M 4588 3316 
L 3547 0 
L 2963 0 
L 2438 1991 
Q 2434 1991 2371 2259 
Q 2309 2528 2309 2553 
L 2297 2553 
L 1638 0 
L 1050 0 
L 31 3316 
L 616 3316 
L 1338 691 
L 1450 1138 
L 2041 3316 
L 2619 3316 
L 3066 1578 
Q 3253 859 3272 763 
L 3284 763 
L 4038 3316 
L 4588 3316 
z
" transform="scale(0.015625)"/>
      <path id="ArialUnicodeMS-50" d="M 494 4581 
L 2222 4581 
Q 2631 4581 2926 4540 
Q 3222 4500 3475 4329 
Q 3728 4159 3858 3867 
Q 3988 3575 3988 3256 
Q 3988 2622 3580 2239 
Q 3172 1856 2272 1856 
L 1100 1856 
L 1100 0 
L 494 0 
L 494 4581 
z
M 1100 2400 
L 2278 2400 
Q 3359 2400 3359 3238 
Q 3359 3513 3218 3723 
Q 3078 3934 2873 3986 
Q 2669 4038 2266 4038 
L 1100 4038 
L 1100 2400 
z
" transform="scale(0.015625)"/>
     </defs>
     <use xlink:href="#ArialUnicodeMS-51"/>
     <use xlink:href="#ArialUnicodeMS-77" x="77.783203"/>
     <use xlink:href="#ArialUnicodeMS-65" x="150"/>
     <use xlink:href="#ArialUnicodeMS-6e" x="205.615234"/>
     <use xlink:href="#ArialUnicodeMS-2d" x="261.230469"/>
     <use xlink:href="#ArialUnicodeMS-50" x="294.53125"/>
     <use xlink:href="#ArialUnicodeMS-6c" x="361.230469"/>
     <use xlink:href="#ArialUnicodeMS-75" x="383.447266"/>
     <use xlink:href="#ArialUnicodeMS-73" x="439.0625"/>
    </g>
   </g>
   <g id="text_15">
    <!-- GPT-4o-mini -->
    <g transform="translate(70.234813 153.201563) scale(0.08 -0.08)">
     <defs>
      <path id="ArialUnicodeMS-47" d="M 4569 641 
Q 3703 -78 2675 -78 
Q 1622 -78 976 564 
Q 331 1206 331 2272 
Q 331 2922 595 3483 
Q 859 4044 1373 4351 
Q 1888 4659 2631 4659 
Q 3403 4659 3870 4320 
Q 4338 3981 4500 3303 
L 3956 3150 
Q 3828 3644 3497 3892 
Q 3166 4141 2631 4141 
Q 1803 4141 1381 3634 
Q 959 3128 959 2309 
Q 959 1697 1164 1290 
Q 1369 884 1770 676 
Q 2172 469 2644 469 
Q 3363 469 3981 941 
L 3981 1791 
L 2631 1791 
L 2631 2338 
L 4569 2338 
L 4569 641 
z
" transform="scale(0.015625)"/>
      <path id="ArialUnicodeMS-54" d="M 3769 4038 
L 2253 4038 
L 2253 0 
L 1644 0 
L 1644 4038 
L 141 4038 
L 141 4581 
L 3769 4581 
L 3769 4038 
z
" transform="scale(0.015625)"/>
      <path id="ArialUnicodeMS-6d" d="M 4922 0 
L 4359 0 
L 4359 2094 
Q 4359 2325 4328 2489 
Q 4297 2653 4167 2779 
Q 4038 2906 3763 2906 
Q 3431 2906 3190 2675 
Q 2950 2444 2950 1925 
L 2950 0 
L 2388 0 
L 2388 2156 
Q 2388 2588 2236 2747 
Q 2084 2906 1806 2906 
Q 1444 2906 1211 2656 
Q 978 2406 978 1722 
L 978 0 
L 416 0 
L 416 3316 
L 922 3316 
L 922 2853 
L 934 2853 
Q 1272 3391 1925 3391 
Q 2291 3391 2527 3245 
Q 2763 3100 2869 2809 
Q 3238 3391 3891 3391 
Q 4406 3391 4664 3112 
Q 4922 2834 4922 2278 
L 4922 0 
z
" transform="scale(0.015625)"/>
     </defs>
     <use xlink:href="#ArialUnicodeMS-47"/>
     <use xlink:href="#ArialUnicodeMS-50" x="77.783203"/>
     <use xlink:href="#ArialUnicodeMS-54" x="144.482422"/>
     <use xlink:href="#ArialUnicodeMS-2d" x="205.566406"/>
     <use xlink:href="#ArialUnicodeMS-34" x="238.867188"/>
     <use xlink:href="#ArialUnicodeMS-6f" x="294.482422"/>
     <use xlink:href="#ArialUnicodeMS-2d" x="350.097656"/>
     <use xlink:href="#ArialUnicodeMS-6d" x="383.398438"/>
     <use xlink:href="#ArialUnicodeMS-69" x="466.699219"/>
     <use xlink:href="#ArialUnicodeMS-6e" x="488.916016"/>
     <use xlink:href="#ArialUnicodeMS-69" x="544.53125"/>
    </g>
   </g>
   <g id="text_16">
    <!-- Claude-3-Haiku -->
    <g transform="translate(261.556384 111.467661) scale(0.08 -0.08)">
     <defs>
      <path id="ArialUnicodeMS-64" d="M 3109 0 
L 2584 0 
L 2584 422 
L 2572 422 
Q 2269 -78 1656 -78 
Q 1047 -78 639 405 
Q 231 888 231 1656 
Q 231 2459 615 2925 
Q 1000 3391 1631 3391 
Q 2225 3391 2534 2938 
L 2547 2938 
L 2547 4581 
L 3109 4581 
L 3109 0 
z
M 1716 384 
Q 2084 384 2340 687 
Q 2597 991 2597 1606 
Q 2597 2213 2362 2572 
Q 2128 2931 1691 2931 
Q 1253 2931 1029 2579 
Q 806 2228 806 1656 
Q 806 1244 926 958 
Q 1047 672 1262 528 
Q 1478 384 1716 384 
z
" transform="scale(0.015625)"/>
      <path id="ArialUnicodeMS-48" d="M 4109 0 
L 3500 0 
L 3500 2156 
L 1119 2156 
L 1119 0 
L 513 0 
L 513 4581 
L 1119 4581 
L 1119 2700 
L 3500 2700 
L 3500 4581 
L 4109 4581 
L 4109 0 
z
" transform="scale(0.015625)"/>
      <path id="ArialUnicodeMS-6b" d="M 3175 0 
L 2484 0 
L 1381 1697 
L 984 1319 
L 984 0 
L 422 0 
L 422 4581 
L 984 4581 
L 984 1972 
L 2316 3316 
L 3047 3316 
L 1778 2088 
L 3175 0 
z
" transform="scale(0.015625)"/>
     </defs>
     <use xlink:href="#ArialUnicodeMS-43"/>
     <use xlink:href="#ArialUnicodeMS-6c" x="72.216797"/>
     <use xlink:href="#ArialUnicodeMS-61" x="94.433594"/>
     <use xlink:href="#ArialUnicodeMS-75" x="150.048828"/>
     <use xlink:href="#ArialUnicodeMS-64" x="205.664062"/>
     <use xlink:href="#ArialUnicodeMS-65" x="261.279297"/>
     <use xlink:href="#ArialUnicodeMS-2d" x="316.894531"/>
     <use xlink:href="#ArialUnicodeMS-33" x="350.195312"/>
     <use xlink:href="#ArialUnicodeMS-2d" x="405.810547"/>
     <use xlink:href="#ArialUnicodeMS-48" x="439.111328"/>
     <use xlink:href="#ArialUnicodeMS-61" x="511.328125"/>
     <use xlink:href="#ArialUnicodeMS-69" x="566.943359"/>
     <use xlink:href="#ArialUnicodeMS-6b" x="589.160156"/>
     <use xlink:href="#ArialUnicodeMS-75" x="639.160156"/>
    </g>
   </g>
   <g id="text_17">
    <!-- GLM-4-Flash -->
    <g transform="translate(70.234813 278.403267) scale(0.08 -0.08)">
     <defs>
      <path id="ArialUnicodeMS-4c" d="M 3347 0 
L 481 0 
L 481 4581 
L 1088 4581 
L 1088 544 
L 3347 544 
L 3347 0 
z
" transform="scale(0.015625)"/>
      <path id="ArialUnicodeMS-4d" d="M 4844 0 
L 4269 0 
L 4269 3834 
L 4256 3834 
L 2938 0 
L 2394 0 
L 1081 3897 
L 1063 3897 
L 1063 0 
L 488 0 
L 488 4581 
L 1394 4581 
L 2478 1338 
Q 2659 797 2688 659 
L 2700 659 
Q 2784 925 2944 1394 
L 4038 4581 
L 4844 4581 
L 4844 0 
z
" transform="scale(0.015625)"/>
      <path id="ArialUnicodeMS-46" d="M 3603 4038 
L 1119 4038 
L 1119 2619 
L 3272 2619 
L 3272 2075 
L 1119 2075 
L 1119 0 
L 513 0 
L 513 4581 
L 3603 4581 
L 3603 4038 
z
" transform="scale(0.015625)"/>
      <path id="ArialUnicodeMS-68" d="M 3138 0 
L 2572 0 
L 2572 2094 
Q 2572 2500 2397 2703 
Q 2222 2906 1875 2906 
Q 1531 2906 1261 2667 
Q 991 2428 991 1813 
L 991 0 
L 428 0 
L 428 4581 
L 991 4581 
L 991 2938 
Q 1391 3391 1991 3391 
Q 2313 3391 2606 3259 
Q 2900 3128 3019 2856 
Q 3138 2584 3138 2100 
L 3138 0 
z
" transform="scale(0.015625)"/>
     </defs>
     <use xlink:href="#ArialUnicodeMS-47"/>
     <use xlink:href="#ArialUnicodeMS-4c" x="77.783203"/>
     <use xlink:href="#ArialUnicodeMS-4d" x="133.398438"/>
     <use xlink:href="#ArialUnicodeMS-2d" x="216.699219"/>
     <use xlink:href="#ArialUnicodeMS-34" x="250"/>
     <use xlink:href="#ArialUnicodeMS-2d" x="305.615234"/>
     <use xlink:href="#ArialUnicodeMS-46" x="338.916016"/>
     <use xlink:href="#ArialUnicodeMS-6c" x="400"/>
     <use xlink:href="#ArialUnicodeMS-61" x="422.216797"/>
     <use xlink:href="#ArialUnicodeMS-73" x="477.832031"/>
     <use xlink:href="#ArialUnicodeMS-68" x="527.832031"/>
    </g>
   </g>
   <g id="text_18">
    <!-- ✅ Selected -->
    <g style="fill: #0ea5e9" transform="translate(452.877954 47.999858) scale(0.08 -0.08)">
     <defs>
      <path id="ArialUnicodeMS-2705" d="M 800 0 
L 800 4800 
L 5600 4800 
L 5600 0 
L 800 0 
z
M 1200 400 
L 5200 400 
L 5200 4400 
L 1200 4400 
L 1200 400 
z
" transform="scale(0.015625)"/>
      <path id="ArialUnicodeMS-53" d="M 3213 3238 
Q 3175 3675 2897 3895 
Q 2619 4116 2100 4116 
Q 1631 4116 1337 3941 
Q 1044 3766 1044 3431 
Q 1044 3134 1270 2989 
Q 1497 2844 2138 2700 
Q 2706 2575 3065 2444 
Q 3425 2313 3681 2036 
Q 3938 1759 3938 1294 
Q 3938 703 3467 312 
Q 2997 -78 2241 -78 
Q 1275 -78 795 353 
Q 316 784 288 1472 
L 863 1522 
Q 903 972 1287 720 
Q 1672 469 2216 469 
Q 2725 469 3039 678 
Q 3353 888 3353 1247 
Q 3353 1622 3025 1794 
Q 2697 1966 1923 2133 
Q 1150 2300 809 2603 
Q 469 2906 469 3391 
Q 469 3941 900 4300 
Q 1331 4659 2075 4659 
Q 2838 4659 3302 4301 
Q 3766 3944 3794 3284 
L 3213 3238 
z
" transform="scale(0.015625)"/>
      <path id="ArialUnicodeMS-63" d="M 3144 1147 
Q 3034 513 2643 217 
Q 2253 -78 1759 -78 
Q 1038 -78 644 395 
Q 250 869 250 1650 
Q 250 2297 476 2686 
Q 703 3075 1043 3233 
Q 1384 3391 1759 3391 
Q 2272 3391 2636 3125 
Q 3000 2859 3084 2344 
L 2541 2259 
Q 2456 2594 2267 2762 
Q 2078 2931 1784 2931 
Q 1313 2931 1069 2597 
Q 825 2263 825 1663 
Q 825 1050 1064 717 
Q 1303 384 1753 384 
Q 2116 384 2323 592 
Q 2531 800 2584 1216 
L 3144 1147 
z
" transform="scale(0.015625)"/>
     </defs>
     <use xlink:href="#ArialUnicodeMS-2705"/>
     <use xlink:href="#ArialUnicodeMS-20" x="100"/>
     <use xlink:href="#ArialUnicodeMS-53" x="127.783203"/>
     <use xlink:href="#ArialUnicodeMS-65" x="194.482422"/>
     <use xlink:href="#ArialUnicodeMS-6c" x="250.097656"/>
     <use xlink:href="#ArialUnicodeMS-65" x="272.314453"/>
     <use xlink:href="#ArialUnicodeMS-63" x="327.929688"/>
     <use xlink:href="#ArialUnicodeMS-74" x="377.929688"/>
     <use xlink:href="#ArialUnicodeMS-65" x="405.712891"/>
     <use xlink:href="#ArialUnicodeMS-64" x="461.328125"/>
    </g>
   </g>
   <g id="text_19">
    <!-- LLM Backend Comparison: Performance vs Cost -->
    <g transform="translate(148.183727 14.479688) scale(0.1 -0.1)">
     <defs>
      <path id="ArialUnicodeMS-42" d="M 3078 2438 
Q 3509 2306 3723 2011 
Q 3938 1716 3938 1331 
Q 3938 947 3744 625 
Q 3550 303 3194 151 
Q 2838 0 2228 0 
L 475 0 
L 475 4581 
L 2194 4581 
Q 3028 4581 3370 4218 
Q 3713 3856 3713 3413 
Q 3713 3113 3555 2858 
Q 3397 2603 3078 2438 
z
M 1081 2663 
L 2075 2663 
Q 2381 2663 2589 2697 
Q 2797 2731 2956 2878 
Q 3116 3025 3116 3334 
Q 3116 3659 2955 3814 
Q 2794 3969 2570 4003 
Q 2347 4038 1997 4038 
L 1081 4038 
L 1081 2663 
z
M 1081 544 
L 2222 544 
Q 2834 544 3071 753 
Q 3309 963 3309 1331 
Q 3309 1703 3056 1911 
Q 2803 2119 2144 2119 
L 1081 2119 
L 1081 544 
z
" transform="scale(0.015625)"/>
      <path id="ArialUnicodeMS-3a" d="M 1216 2675 
L 575 2675 
L 575 3316 
L 1216 3316 
L 1216 2675 
z
M 1216 0 
L 575 0 
L 575 641 
L 1216 641 
L 1216 0 
z
" transform="scale(0.015625)"/>
      <path id="ArialUnicodeMS-66" d="M 1991 4603 
L 1906 4109 
Q 1738 4141 1575 4141 
Q 1372 4141 1242 4055 
Q 1113 3969 1113 3628 
L 1113 3316 
L 1753 3316 
L 1753 2881 
L 1113 2881 
L 1113 0 
L 550 0 
L 550 2881 
L 50 2881 
L 50 3316 
L 550 3316 
L 550 3675 
Q 550 3925 597 4128 
Q 644 4331 845 4495 
Q 1047 4659 1466 4659 
Q 1716 4659 1991 4603 
z
" transform="scale(0.015625)"/>
     </defs>
     <use xlink:href="#ArialUnicodeMS-4c"/>
     <use xlink:href="#ArialUnicodeMS-4c" x="55.615234"/>
     <use xlink:href="#ArialUnicodeMS-4d" x="111.230469"/>
     <use xlink:href="#ArialUnicodeMS-20" x="194.53125"/>
     <use xlink:href="#ArialUnicodeMS-42" x="222.314453"/>
     <use xlink:href="#ArialUnicodeMS-61" x="289.013672"/>
     <use xlink:href="#ArialUnicodeMS-63" x="344.628906"/>
     <use xlink:href="#ArialUnicodeMS-6b" x="394.628906"/>
     <use xlink:href="#ArialUnicodeMS-65" x="444.628906"/>
     <use xlink:href="#ArialUnicodeMS-6e" x="500.244141"/>
     <use xlink:href="#ArialUnicodeMS-64" x="555.859375"/>
     <use xlink:href="#ArialUnicodeMS-20" x="611.474609"/>
     <use xlink:href="#ArialUnicodeMS-43" x="639.257812"/>
     <use xlink:href="#ArialUnicodeMS-6f" x="711.474609"/>
     <use xlink:href="#ArialUnicodeMS-6d" x="767.089844"/>
     <use xlink:href="#ArialUnicodeMS-70" x="850.390625"/>
     <use xlink:href="#ArialUnicodeMS-61" x="906.005859"/>
     <use xlink:href="#ArialUnicodeMS-72" x="961.621094"/>
     <use xlink:href="#ArialUnicodeMS-69" x="994.921875"/>
     <use xlink:href="#ArialUnicodeMS-73" x="1017.138672"/>
     <use xlink:href="#ArialUnicodeMS-6f" x="1067.138672"/>
     <use xlink:href="#ArialUnicodeMS-6e" x="1122.753906"/>
     <use xlink:href="#ArialUnicodeMS-3a" x="1178.369141"/>
     <use xlink:href="#ArialUnicodeMS-20" x="1206.152344"/>
     <use xlink:href="#ArialUnicodeMS-50" x="1233.935547"/>
     <use xlink:href="#ArialUnicodeMS-65" x="1300.634766"/>
     <use xlink:href="#ArialUnicodeMS-72" x="1356.25"/>
     <use xlink:href="#ArialUnicodeMS-66" x="1389.550781"/>
     <use xlink:href="#ArialUnicodeMS-6f" x="1417.333984"/>
     <use xlink:href="#ArialUnicodeMS-72" x="1472.949219"/>
     <use xlink:href="#ArialUnicodeMS-6d" x="1506.25"/>
     <use xlink:href="#ArialUnicodeMS-61" x="1589.550781"/>
     <use xlink:href="#ArialUnicodeMS-6e" x="1645.166016"/>
     <use xlink:href="#ArialUnicodeMS-63" x="1700.78125"/>
     <use xlink:href="#ArialUnicodeMS-65" x="1750.78125"/>
     <use xlink:href="#ArialUnicodeMS-20" x="1806.396484"/>
     <use xlink:href="#ArialUnicodeMS-76" x="1834.179688"/>
     <use xlink:href="#ArialUnicodeMS-73" x="1884.179688"/>
     <use xlink:href="#ArialUnicodeMS-20" x="1934.179688"/>
     <use xlink:href="#ArialUnicodeMS-43" x="1961.962891"/>
     <use xlink:href="#ArialUnicodeMS-6f" x="2034.179688"/>
     <use xlink:href="#ArialUnicodeMS-73" x="2089.794922"/>
     <use xlink:href="#ArialUnicodeMS-74" x="2139.794922"/>
    </g>
   </g>
  </g>
 </g>
 <defs>
  <clipPath id="pb958b72777">
   <rect x="46.102656" y="20.479688" width="420.907455" height="275.44375"/>
  </clipPath>
 </defs>
</svg>
